BesixdouzeSans-BoldItalic.sfdir
StartChar: numbersign
Encoding: 372 35 372
GlifName: numbersign
Width: 1700
VWidth: 0
Flags: W
LayerCount: 2
Fore
SplineSet
1496 902 m 257
 1484 861 1484 861 1473 825 c 128
 1462 789 1462 789 1450.5 753 c 128
 1439 717 1439 717 1427.5 679 c 128
 1416 641 1416 641 1404 598 c 257
 1709 598 l 257
 1644 380 l 257
 1341 380 l 257
 1227 6 l 257
 883 -27 l 257
 1007 380 l 257
 729 380 l 257
 618 6 l 257
 275 -27 l 257
 397 380 l 257
 122 380 l 257
 160 598 l 257
 460 598 l 257
 552 902 l 257
 210 902 l 257
 275 1120 l 257
 617 1120 l 257
 658 1258 l 257
 700 1494 l 257
 1072 1526 l 257
 949 1120 l 257
 1228 1120 l 257
 1339 1494 l 257
 1682 1527 l 257
 1561 1120 l 257
 1797 1120 l 257
 1759 902 l 257
 1496 902 l 257
1163 902 m 257
 886 902 l 257
 874 861 874 861 863 825 c 128
 852 789 852 789 840.5 753 c 128
 829 717 829 717 817.5 679 c 128
 806 641 806 641 794 598 c 257
 1071 598 l 257
 1163 902 l 257
EndSplineSet
EndChar
StartChar: quotesingle
Encoding: 446 39 446
GlifName: quotesingle
Width: 400
VWidth: 0
Flags: W
LayerCount: 2
Fore
SplineSet
364 1500 m 257
 634 1500 l 257
 611 1367 l 257
 589 1267 589 1267 542.5 1195.5 c 128
 496 1124 496 1124 417 1068 c 257
 278 1068 l 257
 295 1148 295 1148 312 1224.5 c 128
 329 1301 329 1301 341 1367 c 257
 364 1500 l 257
EndSplineSet
EndChar
StartChar: comma
Encoding: 203 44 203
GlifName: comma
Width: 500
VWidth: 0
Flags: W
LayerCount: 2
Fore
SplineSet
84 169 m 257
 85 208 85 208 103.5 244.5 c 128
 122 281 122 281 153 307.5 c 128
 184 334 184 334 224.5 348 c 128
 265 362 265 362 311 356 c 257
 355 351 355 351 385.5 332.5 c 128
 416 314 416 314 435 286 c 128
 454 258 454 258 462 222.5 c 128
 470 187 470 187 469 148 c 257
 467 98 467 98 442 34.5 c 128
 417 -29 417 -29 376 -92.5 c 128
 335 -156 335 -156 281.5 -212.5 c 128
 228 -269 228 -269 168 -303 c 257
 26 -238 l 257
 92 -180 92 -180 122 -123.5 c 128
 152 -67 152 -67 164 0 c 257
 128 26 128 26 105 64.5 c 128
 82 103 82 103 84 169 c 257
EndSplineSet
EndChar
StartChar: period
Encoding: 412 46 412
GlifName: period
Width: 500
VWidth: 0
Flags: W
LayerCount: 2
Fore
SplineSet
95 171 m 257
 98 209 98 209 118 244.5 c 128
 138 280 138 280 168.5 306 c 128
 199 332 199 332 236.5 346 c 128
 274 360 274 360 311 356 c 257
 387 348 387 348 428 298 c 128
 469 248 469 248 464 171 c 257
 462 132 462 132 442 97 c 128
 422 62 422 62 391.5 35.5 c 128
 361 9 361 9 323 -5.5 c 128
 285 -20 285 -20 248 -17 c 257
 209 -14 209 -14 179 1.5 c 128
 149 17 149 17 129.5 42.5 c 128
 110 68 110 68 101 101 c 128
 92 134 92 134 95 171 c 257
EndSplineSet
EndChar
StartChar: slash
Encoding: 485 47 485
GlifName: slash
Width: 1100
VWidth: 0
Flags: W
LayerCount: 2
Fore
SplineSet
342 -100 m 257
 -10 -100 l 257
 699 1600 l 257
 1042 1600 l 257
 342 -100 l 257
EndSplineSet
EndChar
StartChar: zero
Encoding: 587 48 587
GlifName: zero
Width: 1300
VWidth: 0
Flags: W
LayerCount: 2
Fore
SplineSet
594 -16 m 257
 502 -9 502 -9 433 26 c 128
 364 61 364 61 314.5 117 c 128
 265 173 265 173 234 246 c 128
 203 319 203 319 188 402 c 128
 173 485 173 485 172 574 c 128
 171 663 171 663 182 750 c 257
 193 841 193 841 221 935.5 c 128
 249 1030 249 1030 292 1118 c 128
 335 1206 335 1206 393 1283 c 128
 451 1360 451 1360 523 1414.5 c 128
 595 1469 595 1469 680.5 1497 c 128
 766 1525 766 1525 864 1516 c 257
 957 1507 957 1507 1027 1471.5 c 128
 1097 1436 1097 1436 1147.5 1380 c 128
 1198 1324 1198 1324 1229 1251.5 c 128
 1260 1179 1260 1179 1275 1096.5 c 128
 1290 1014 1290 1014 1289.5 925.5 c 128
 1289 837 1289 837 1276 750 c 257
 1262 659 1262 659 1234.5 565 c 128
 1207 471 1207 471 1165 383.5 c 128
 1123 296 1123 296 1066.5 219.5 c 128
 1010 143 1010 143 938.5 88 c 128
 867 33 867 33 781 4.5 c 128
 695 -24 695 -24 594 -16 c 257
524 791 m 257
 517 738 517 738 510 677 c 128
 503 616 503 616 500.5 555 c 128
 498 494 498 494 502 436.5 c 128
 506 379 506 379 521 334 c 128
 536 289 536 289 565.5 260 c 128
 595 231 595 231 643 226 c 257
 685 221 685 221 721 239.5 c 128
 757 258 757 258 787 293 c 128
 817 328 817 328 841 376 c 128
 865 424 865 424 883.5 479 c 128
 902 534 902 534 914.5 593.5 c 128
 927 653 927 653 934 709 c 257
 941 764 941 764 947.5 826 c 128
 954 888 954 888 956 949.5 c 128
 958 1011 958 1011 953.5 1067.5 c 128
 949 1124 949 1124 933 1168 c 128
 917 1212 917 1212 888 1240 c 128
 859 1268 859 1268 813 1273 c 257
 771 1277 771 1277 735 1258 c 128
 699 1239 699 1239 669.5 1204 c 128
 640 1169 640 1169 616 1120.5 c 128
 592 1072 592 1072 573.5 1017 c 128
 555 962 555 962 543 904 c 128
 531 846 531 846 524 791 c 257
EndSplineSet
EndChar
StartChar: one
Encoding: 383 49 383
GlifName: one
Width: 1300
VWidth: 0
Flags: W
LayerCount: 2
Fore
SplineSet
700 880 m 257
 838 1243 l 257
 563 972 l 257
 466 898 l 257
 343 1083 l 257
 901 1525 l 257
 1124 1492 l 257
 896 200 l 257
 1139 200 l 257
 1104 0 l 257
 302 0 l 257
 337 200 l 257
 580 200 l 257
 700 880 l 257
EndSplineSet
EndChar
StartChar: two
Encoding: 535 50 535
GlifName: two
Width: 1300
VWidth: 0
Flags: W
LayerCount: 2
Fore
SplineSet
124 0 m 257
 157 190 l 257
 197 239 197 239 247 294.5 c 128
 297 350 297 350 351.5 406.5 c 128
 406 463 406 463 461 518 c 128
 516 573 516 573 566.5 621.5 c 128
 617 670 617 670 659.5 710 c 128
 702 750 702 750 731 775 c 257
 787 825 787 825 826 862.5 c 128
 865 900 865 900 891 928 c 128
 917 956 917 956 932.5 977 c 128
 948 998 948 998 957 1017 c 128
 966 1036 966 1036 972 1055 c 128
 978 1074 978 1074 985 1097 c 257
 994 1128 994 1128 988.5 1162 c 128
 983 1196 983 1196 964.5 1225.5 c 128
 946 1255 946 1255 915 1275.5 c 128
 884 1296 884 1296 844 1300 c 257
 763 1307 763 1307 687.5 1252.5 c 128
 612 1198 612 1198 554 1096 c 257
 336 1183 l 257
 416 1357 416 1357 559 1442 c 128
 702 1527 702 1527 897 1517 c 257
 1010 1511 1010 1511 1088.5 1471 c 128
 1167 1431 1167 1431 1214.5 1370 c 128
 1262 1309 1262 1309 1279 1234.5 c 128
 1296 1160 1296 1160 1287 1086 c 257
 1278 1015 1278 1015 1239.5 950 c 128
 1201 885 1201 885 1150 826.5 c 128
 1099 768 1099 768 1043 716 c 128
 987 664 987 664 943 621 c 257
 882 561 882 561 817.5 499 c 128
 753 437 753 437 694.5 381 c 128
 636 325 636 325 588.5 278 c 128
 541 231 541 231 514 200 c 257
 1156 200 l 257
 1121 0 l 257
 124 0 l 257
EndSplineSet
EndChar
StartChar: three
Encoding: 520 51 520
GlifName: three
Width: 1300
VWidth: 0
Flags: W
LayerCount: 2
Fore
SplineSet
440 938 m 257
 473 959 473 959 519.5 987.5 c 128
 566 1016 566 1016 619 1050 c 128
 672 1084 672 1084 727.5 1122.5 c 128
 783 1161 783 1161 835 1202.5 c 128
 887 1244 887 1244 931 1287 c 128
 975 1330 975 1330 1005 1374 c 257
 732 1300 l 257
 401 1300 l 257
 457 1500 l 257
 1286 1500 l 257
 1255 1327 l 257
 1234 1297 1234 1297 1205.5 1261 c 128
 1177 1225 1177 1225 1142.5 1188.5 c 128
 1108 1152 1108 1152 1069 1116.5 c 128
 1030 1081 1030 1081 989 1052 c 257
 818 969 l 257
 908 973 908 973 984.5 946.5 c 128
 1061 920 1061 920 1115.5 868 c 128
 1170 816 1170 816 1197.5 741 c 128
 1225 666 1225 666 1216 573 c 257
 1206 470 1206 470 1160 387.5 c 128
 1114 305 1114 305 1039 241.5 c 128
 964 178 964 178 865.5 132.5 c 128
 767 87 767 87 653 57.5 c 128
 539 28 539 28 414 14 c 128
 289 0 289 0 162 0 c 257
 197 200 l 257
 283 200 283 200 367 211.5 c 128
 451 223 451 223 527 245 c 128
 603 267 603 267 668 298.5 c 128
 733 330 733 330 781 370.5 c 128
 829 411 829 411 857 459.5 c 128
 885 508 885 508 886 563 c 257
 887 621 887 621 865.5 661 c 128
 844 701 844 701 806.5 725 c 128
 769 749 769 749 719.5 759.5 c 128
 670 770 670 770 616 770 c 257
 601 770 601 770 572 768.5 c 128
 543 767 543 767 511.5 765.5 c 128
 480 764 480 764 451.5 762.5 c 128
 423 761 423 761 409 760 c 257
 440 938 l 257
EndSplineSet
EndChar
StartChar: four
Encoding: 281 52 281
GlifName: four
Width: 1300
VWidth: 0
Flags: W
LayerCount: 2
Fore
SplineSet
1190 300 m 257
 1012 300 l 257
 960 0 l 257
 652 0 l 257
 704 300 l 257
 114 300 l 257
 150 500 l 257
 825 1525 l 257
 1125 1492 l 257
 669 763 l 257
 449 500 l 257
 740 500 l 257
 792 799 l 257
 1096 772 l 257
 1048 500 l 257
 1247 500 l 257
 1190 300 l 257
EndSplineSet
EndChar
StartChar: seven
Encoding: 471 55 471
GlifName: seven
Width: 1300
VWidth: 0
Flags: W
LayerCount: 2
Fore
SplineSet
416 1500 m 257
 1410 1500 l 257
 1382 1339 l 257
 1368 1263 1368 1263 1303 1175.5 c 128
 1238 1088 1238 1088 1140 976 c 257
 1075 901 1075 901 1013 825 c 128
 951 749 951 749 898.5 670.5 c 128
 846 592 846 592 806.5 511 c 128
 767 430 767 430 748 346 c 257
 740 310 740 310 730 265.5 c 128
 720 221 720 221 710.5 175 c 128
 701 129 701 129 692 84 c 128
 683 39 683 39 676 0 c 257
 352 0 l 257
 358 32 358 32 368.5 86 c 128
 379 140 379 140 392.5 200 c 128
 406 260 406 260 420.5 318 c 128
 435 376 435 376 449 418 c 257
 482 517 482 517 528 607.5 c 128
 574 698 574 698 629 781 c 128
 684 864 684 864 746.5 940 c 128
 809 1016 809 1016 875 1086 c 257
 925 1139 925 1139 959.5 1189 c 128
 994 1239 994 1239 1012 1272 c 257
 376 1272 l 257
 416 1500 l 257
EndSplineSet
EndChar
StartChar: eight
Encoding: 236 56 236
GlifName: eight
Width: 1300
VWidth: 0
Flags: W
LayerCount: 2
Fore
SplineSet
883 1517 m 257
 984 1509 984 1509 1062 1482 c 128
 1140 1455 1140 1455 1191 1408 c 128
 1242 1361 1242 1361 1265 1292.5 c 128
 1288 1224 1288 1224 1280 1134 c 257
 1275 1084 1275 1084 1249.5 1038 c 128
 1224 992 1224 992 1185 954 c 128
 1146 916 1146 916 1099 887.5 c 128
 1052 859 1052 859 1005 844 c 257
 1048 827 1048 827 1094 787 c 128
 1140 747 1140 747 1177 691 c 128
 1214 635 1214 635 1235 567 c 128
 1256 499 1256 499 1249 427 c 257
 1241 345 1241 345 1211 279 c 128
 1181 213 1181 213 1134.5 162.5 c 128
 1088 112 1088 112 1028 76 c 128
 968 40 968 40 901 17.5 c 128
 834 -5 834 -5 762 -13.5 c 128
 690 -22 690 -22 619 -17 c 257
 516 -11 516 -11 430 18.5 c 128
 344 48 344 48 283.5 104 c 128
 223 160 223 160 193 243.5 c 128
 163 327 163 327 172 441 c 257
 178 513 178 513 205.5 574 c 128
 233 635 233 635 280 686 c 128
 327 737 327 737 390.5 777.5 c 128
 454 818 454 818 532 848 c 257
 496 878 496 878 464 908.5 c 128
 432 939 432 939 409 973 c 128
 386 1007 386 1007 374 1044.5 c 128
 362 1082 362 1082 366 1124 c 257
 372 1193 372 1193 398 1250.5 c 128
 424 1308 424 1308 463.5 1353 c 128
 503 1398 503 1398 553 1430.5 c 128
 603 1463 603 1463 658.5 1483.5 c 128
 714 1504 714 1504 771.5 1512.5 c 128
 829 1521 829 1521 883 1517 c 257
936 422 m 257
 938 476 938 476 922 520.5 c 128
 906 565 906 565 877.5 600 c 128
 849 635 849 635 811 662.5 c 128
 773 690 773 690 732 711 c 257
 682 693 682 693 637 666 c 128
 592 639 592 639 557.5 603 c 128
 523 567 523 567 502 521.5 c 128
 481 476 481 476 480 421 c 257
 479 372 479 372 492.5 333 c 128
 506 294 506 294 530 266.5 c 128
 554 239 554 239 586.5 222 c 128
 619 205 619 205 658 200 c 257
 704 194 704 194 752.5 208 c 128
 801 222 801 222 841 252 c 128
 881 282 881 282 907.5 325.5 c 128
 934 369 934 369 936 422 c 257
678 1156 m 257
 677 1121 677 1121 689.5 1092 c 128
 702 1063 702 1063 722 1039 c 128
 742 1015 742 1015 766 996 c 128
 790 977 790 977 812 964 c 257
 890 1002 890 1002 934.5 1047 c 128
 979 1092 979 1092 977 1152 c 257
 976 1188 976 1188 967.5 1214 c 128
 959 1240 959 1240 944 1257 c 128
 929 1274 929 1274 908.5 1284.5 c 128
 888 1295 888 1295 863 1300 c 257
 828 1307 828 1307 795.5 1297 c 128
 763 1287 763 1287 737 1265.5 c 128
 711 1244 711 1244 695 1215 c 128
 679 1186 679 1186 678 1156 c 257
EndSplineSet
EndChar
StartChar: question
Encoding: 436 63 436
GlifName: question
Width: 1100
VWidth: 0
Flags: W
LayerCount: 2
Fore
SplineSet
1237 1124 m 257
 1233 1062 1233 1062 1207 1010.5 c 128
 1181 959 1181 959 1140.5 915 c 128
 1100 871 1100 871 1048.5 834 c 128
 997 797 997 797 942 765 c 257
 900 741 900 741 864.5 711 c 128
 829 681 829 681 800.5 641.5 c 128
 772 602 772 602 751.5 551 c 128
 731 500 731 500 720 434 c 257
 403 399 l 257
 427 588 427 588 511 722 c 128
 595 856 595 856 748 942 c 257
 779 959 779 959 805.5 978.5 c 128
 832 998 832 998 852 1020.5 c 128
 872 1043 872 1043 884 1070.5 c 128
 896 1098 896 1098 897 1132 c 257
 898 1172 898 1172 886 1199.5 c 128
 874 1227 874 1227 853.5 1245 c 128
 833 1263 833 1263 805.5 1271.5 c 128
 778 1280 778 1280 748 1283 c 257
 718 1286 718 1286 680.5 1281 c 128
 643 1276 643 1276 599.5 1258.5 c 128
 556 1241 556 1241 508.5 1207 c 128
 461 1173 461 1173 413 1117 c 257
 258 1268 l 257
 335 1355 335 1355 408 1405 c 128
 481 1455 481 1455 550 1479.5 c 128
 619 1504 619 1504 684.5 1510.5 c 128
 750 1517 750 1517 813 1517 c 257
 899 1517 899 1517 978.5 1494 c 128
 1058 1471 1058 1471 1118 1422.5 c 128
 1178 1374 1178 1374 1211 1300 c 128
 1244 1226 1244 1226 1237 1124 c 257
404 137 m 257
 406 167 406 167 422 195.5 c 128
 438 224 438 224 462.5 245 c 128
 487 266 487 266 517 277 c 128
 547 288 547 288 577 285 c 257
 637 278 637 278 670 238 c 128
 703 198 703 198 699 137 c 257
 697 106 697 106 681 77.5 c 128
 665 49 665 49 640.5 28 c 128
 616 7 616 7 586 -4.5 c 128
 556 -16 556 -16 526 -14 c 257
 495 -12 495 -12 471 1 c 128
 447 14 447 14 431.5 34 c 128
 416 54 416 54 409 80.5 c 128
 402 107 402 107 404 137 c 257
EndSplineSet
EndChar
StartChar: C
Encoding: 12 67 12
GlifName: C_
Width: 1200
VWidth: 0
Flags: W
LayerCount: 2
Fore
SplineSet
1167 133 m 257
 1057 42 1057 42 938 6.5 c 128
 819 -29 819 -29 685 -17 c 257
 534 -4 534 -4 429.5 58 c 128
 325 120 325 120 262.5 222 c 128
 200 324 200 324 179 463 c 128
 158 602 158 602 174 769 c 257
 184 871 184 871 214 967.5 c 128
 244 1064 244 1064 293.5 1148.5 c 128
 343 1233 343 1233 411 1303.5 c 128
 479 1374 479 1374 565 1423 c 128
 651 1472 651 1472 754 1497 c 128
 857 1522 857 1522 976 1517 c 257
 1040 1514 1040 1514 1100.5 1502 c 128
 1161 1490 1161 1490 1215 1469 c 128
 1269 1448 1269 1448 1315 1417 c 128
 1361 1386 1361 1386 1397 1344 c 257
 1219 1170 l 257
 1180 1201 1180 1201 1146 1222 c 128
 1112 1243 1112 1243 1080.5 1255.5 c 128
 1049 1268 1049 1268 1017 1273.5 c 128
 985 1279 985 1279 950 1280 c 257
 856 1282 856 1282 779 1242.5 c 128
 702 1203 702 1203 645.5 1133.5 c 128
 589 1064 589 1064 554 971 c 128
 519 878 519 878 510 772 c 257
 504 710 504 710 503.5 647 c 128
 503 584 503 584 510.5 524.5 c 128
 518 465 518 465 534.5 412 c 128
 551 359 551 359 579.5 318.5 c 128
 608 278 608 278 650 252 c 128
 692 226 692 226 750 221 c 257
 819 215 819 215 902 239 c 128
 985 263 985 263 1082 328 c 257
 1167 133 l 257
EndSplineSet
EndChar
StartChar: G
Encoding: 31 71 31
GlifName: G_
Width: 1300
VWidth: 0
Flags: W
LayerCount: 2
Fore
SplineSet
1255 221 m 257
 1207 168 1207 168 1148.5 121 c 128
 1090 74 1090 74 1019 41 c 128
 948 8 948 8 865 -8.5 c 128
 782 -25 782 -25 685 -17 c 257
 531 -5 531 -5 425.5 58.5 c 128
 320 122 320 122 258 225.5 c 128
 196 329 196 329 176 467.5 c 128
 156 606 156 606 174 769 c 257
 185 869 185 869 217.5 965 c 128
 250 1061 250 1061 302.5 1146 c 128
 355 1231 355 1231 425 1301.5 c 128
 495 1372 495 1372 580.5 1421.5 c 128
 666 1471 666 1471 766 1496.5 c 128
 866 1522 866 1522 977 1517 c 257
 1041 1514 1041 1514 1101 1502 c 128
 1161 1490 1161 1490 1215 1469 c 128
 1269 1448 1269 1448 1315.5 1417 c 128
 1362 1386 1362 1386 1398 1344 c 257
 1220 1170 l 257
 1148 1231 1148 1231 1083.5 1256 c 128
 1019 1281 1019 1281 950 1280 c 257
 856 1279 856 1279 779 1239.5 c 128
 702 1200 702 1200 645.5 1131.5 c 128
 589 1063 589 1063 554.5 970.5 c 128
 520 878 520 878 511 772 c 257
 506 709 506 709 505 645 c 128
 504 581 504 581 511 521.5 c 128
 518 462 518 462 534 409.5 c 128
 550 357 550 357 578.5 317 c 128
 607 277 607 277 649.5 251.5 c 128
 692 226 692 226 751 221 c 257
 776 219 776 219 803.5 224.5 c 128
 831 230 831 230 857 240 c 128
 883 250 883 250 907 263 c 128
 931 276 931 276 949 289 c 257
 1007 616 l 257
 716 635 l 257
 753 840 l 257
 1365 840 l 257
 1255 221 l 257
EndSplineSet
EndChar
StartChar: J
Encoding: 41 74 41
GlifName: J_
Width: 900
VWidth: 0
Flags: W
LayerCount: 2
Fore
SplineSet
462 1493 m 257
 1016 1523 l 257
 826 446 l 257
 805 329 805 329 759.5 239 c 128
 714 149 714 149 647 89.5 c 128
 580 30 580 30 493 2.5 c 128
 406 -25 406 -25 303 -17 c 257
 253 -13 253 -13 205 1 c 128
 157 15 157 15 115 37 c 128
 73 59 73 59 38 86.5 c 128
 3 114 3 114 -20 145 c 257
 161 338 l 257
 174 322 174 322 190.5 305 c 128
 207 288 207 288 226.5 274.5 c 128
 246 261 246 261 268.5 252.5 c 128
 291 244 291 244 318 244 c 257
 348 244 348 244 374.5 253.5 c 128
 401 263 401 263 423.5 286 c 128
 446 309 446 309 462.5 347.5 c 128
 479 386 479 386 490 444 c 257
 611 1132 l 257
 649 1266 l 257
 449 1254 l 257
 462 1493 l 257
EndSplineSet
EndChar
StartChar: M
Encoding: 46 77 46
GlifName: M_
Width: 1800
VWidth: 0
Flags: W
LayerCount: 2
Fore
SplineSet
1062 799 m 257
 1513 1495 l 257
 1869 1526 l 257
 1600 0 l 257
 1282 0 l 257
 1379 551 l 257
 1513 1060 l 257
 1509 1061 l 257
 1260 581 l 257
 949 123 l 257
 766 123 l 257
 630 536 l 257
 553 1060 l 257
 547 1059 l 257
 499 498 l 257
 412 0 l 257
 100 0 l 257
 322 1263 l 257
 333 1494 l 257
 697 1524 l 257
 914 801 l 257
 935 498 l 257
 1062 799 l 257
EndSplineSet
EndChar
StartChar: N
Encoding: 48 78 48
GlifName: N_
Width: 1500
VWidth: 0
Flags: W
LayerCount: 2
Fore
SplineSet
1577 1527 m 257
 1308 0 l 257
 1007 0 l 257
 712 700 l 257
 624 1038 l 257
 617 1037 l 257
 594 691 l 257
 473 0 l 257
 146 0 l 257
 368 1263 l 257
 376 1494 l 257
 722 1524 l 257
 1021 810 l 257
 1107 449 l 257
 1113 450 l 257
 1129 816 l 257
 1249 1493 l 257
 1577 1527 l 257
EndSplineSet
EndChar
StartChar: Q
Encoding: 68 81 68
GlifName: Q_
Width: 1600
VWidth: 0
Flags: W
LayerCount: 2
Fore
SplineSet
957 2 m 257
 914 -7 914 -7 869 -14 c 128
 824 -21 824 -21 777 -17 c 257
 611 -4 611 -4 495.5 54.5 c 128
 380 113 380 113 310.5 211 c 128
 241 309 241 309 216.5 445 c 128
 192 581 192 581 209 750 c 257
 220 861 220 861 255.5 963.5 c 128
 291 1066 291 1066 346.5 1154 c 128
 402 1242 402 1242 476.5 1313 c 128
 551 1384 551 1384 640.5 1432 c 128
 730 1480 730 1480 832.5 1502.5 c 128
 935 1525 935 1525 1047 1517 c 257
 1214 1504 1214 1504 1329.5 1446 c 128
 1445 1388 1445 1388 1514 1289.5 c 128
 1583 1191 1583 1191 1607 1055 c 128
 1631 919 1631 919 1614 750 c 257
 1605 655 1605 655 1577.5 566 c 128
 1550 477 1550 477 1507.5 399 c 128
 1465 321 1465 321 1408.5 257.5 c 128
 1352 194 1352 194 1285 152 c 257
 1298 132 1298 132 1312.5 117.5 c 128
 1327 103 1327 103 1351 93 c 128
 1375 83 1375 83 1413 78.5 c 128
 1451 74 1451 74 1511 75 c 257
 1384 -145 l 257
 1352 -145 l 257
 1289 -142 1289 -142 1242 -128 c 128
 1195 -114 1195 -114 1160 -92.5 c 128
 1125 -71 1125 -71 1100.5 -43 c 128
 1076 -15 1076 -15 1056.5 15 c 128
 1037 45 1037 45 1021.5 76 c 128
 1006 107 1006 107 990 135 c 257
 957 2 l 257
1208 506 m 257
 1232 557 1232 557 1249.5 610.5 c 128
 1267 664 1267 664 1275 721 c 257
 1288 826 1288 826 1284.5 921.5 c 128
 1281 1017 1281 1017 1251 1092 c 128
 1221 1167 1221 1167 1160 1214 c 128
 1099 1261 1099 1261 997 1269 c 257
 932 1274 932 1274 876 1257.5 c 128
 820 1241 820 1241 772.5 1208 c 128
 725 1175 725 1175 686.5 1128.5 c 128
 648 1082 648 1082 620 1026.5 c 128
 592 971 592 971 574 908.5 c 128
 556 846 556 846 549 783 c 257
 537 668 537 668 541 570 c 128
 545 472 545 472 574.5 399 c 128
 604 326 604 326 664 282 c 128
 724 238 724 238 825 231 c 257
 934 231 l 257
 921 249 921 249 904 264 c 128
 887 279 887 279 864 288.5 c 128
 841 298 841 298 810 301.5 c 128
 779 305 779 305 739 300 c 257
 849 500 l 257
 923 505 923 505 975 493.5 c 128
 1027 482 1027 482 1064 457 c 128
 1101 432 1101 432 1126.5 394.5 c 128
 1152 357 1152 357 1173 311 c 257
 1208 506 l 257
EndSplineSet
EndChar
StartChar: R
Encoding: 69 82 69
GlifName: R_
Width: 1300
VWidth: 0
Flags: W
LayerCount: 2
Fore
SplineSet
672 1130 m 257
 614 802 l 257
 678 802 l 257
 746 802 746 802 801.5 820 c 128
 857 838 857 838 897 872 c 128
 937 906 937 906 960 955 c 128
 983 1004 983 1004 987 1066 c 257
 991 1137 991 1137 971.5 1183.5 c 128
 952 1230 952 1230 919.5 1257 c 128
 887 1284 887 1284 847 1294.5 c 128
 807 1305 807 1305 771 1305 c 257
 751 1305 751 1305 739 1305 c 128
 727 1305 727 1305 718 1305 c 128
 709 1305 709 1305 702 1304.5 c 128
 695 1304 695 1304 685 1303 c 257
 672 1130 l 257
619 564 m 257
 610 578 610 578 596.5 580.5 c 128
 583 583 583 583 575 583 c 257
 473 0 l 257
 136 0 l 257
 358 1262 l 257
 359 1482 l 257
 404 1487 404 1487 460 1492.5 c 128
 516 1498 516 1498 573 1502 c 128
 630 1506 630 1506 684.5 1508.5 c 128
 739 1511 739 1511 783 1511 c 257
 908 1511 908 1511 1010 1484 c 128
 1112 1457 1112 1457 1183 1403 c 128
 1254 1349 1254 1349 1290 1268.5 c 128
 1326 1188 1326 1188 1319 1081 c 257
 1314 1007 1314 1007 1291.5 946.5 c 128
 1269 886 1269 886 1233 838.5 c 128
 1197 791 1197 791 1150 754.5 c 128
 1103 718 1103 718 1050 691 c 128
 997 664 997 664 940 646 c 128
 883 628 883 628 826 617 c 257
 960 584 l 257
 1294 0 l 257
 926 0 l 257
 619 564 l 257
EndSplineSet
EndChar
StartChar: T
Encoding: 77 84 77
GlifName: T_
Width: 1200
VWidth: 0
Flags: W
LayerCount: 2
Fore
SplineSet
424 0 m 257
 648 1272 l 257
 254 1272 l 257
 294 1500 l 257
 1414 1500 l 257
 1374 1272 l 257
 984 1272 l 257
 760 0 l 257
 424 0 l 257
EndSplineSet
EndChar
StartChar: bracketleft
Encoding: 170 91 170
GlifName: bracketleft
Width: 900
VWidth: 0
Flags: W
LayerCount: 2
Fore
SplineSet
300 1287 m 257
 315 1519 l 257
 1002 1519 l 257
 964 1301 l 257
 614 1301 l 257
 603 1153 l 257
 394 -32 l 257
 353 -180 l 257
 703 -180 l 257
 664 -399 l 257
 -22 -399 l 257
 44 -167 l 257
 300 1287 l 257
EndSplineSet
EndChar
StartChar: backslash
Encoding: 144 92 144
GlifName: backslash
Width: 1100
VWidth: 0
Flags: W
LayerCount: 2
Fore
SplineSet
286 1595 m 257
 615 1595 l 257
 1023 -95 l 257
 683 -95 l 257
 286 1595 l 257
EndSplineSet
EndChar
StartChar: asciicircum
Encoding: 135 94 135
GlifName: asciicircum
Width: 1500
VWidth: 0
Flags: W
LayerCount: 2
Fore
SplineSet
1610 866 m 257
 1267 866 l 257
 958 1180 l 257
 554 868 l 257
 192 868 l 257
 897 1495 l 257
 1111 1522 l 257
 1610 866 l 257
EndSplineSet
EndChar
StartChar: grave
Encoding: 293 96 293
GlifName: grave
Width: 1100
VWidth: 0
Flags: W
LayerCount: 2
Fore
SplineSet
915 1200 m 257
 657 1200 l 257
 444 1491 l 257
 797 1525 l 257
 915 1200 l 257
EndSplineSet
EndChar
StartChar: a
Encoding: 101 97 101
GlifName: a
Width: 1100
VWidth: 0
Flags: W
LayerCount: 2
Fore
SplineSet
839 885 m 257
 819 888 819 888 802 890 c 128
 785 892 785 892 778 893 c 257
 703 893 703 893 645.5 862 c 128
 588 831 588 831 547 779 c 128
 506 727 506 727 481.5 657.5 c 128
 457 588 457 588 449 510 c 257
 443 449 443 449 445.5 394.5 c 128
 448 340 448 340 459 298.5 c 128
 470 257 470 257 490.5 233 c 128
 511 209 511 209 540 209 c 257
 574 209 574 209 604.5 220.5 c 128
 635 232 635 232 661.5 250 c 128
 688 268 688 268 708.5 289 c 128
 729 310 729 310 744 329 c 257
 839 885 l 257
483 -16 m 257
 406 -15 406 -15 349 8.5 c 128
 292 32 292 32 251.5 72 c 128
 211 112 211 112 186.5 165.5 c 128
 162 219 162 219 150.5 280.5 c 128
 139 342 139 342 138.5 409 c 128
 138 476 138 476 147 542 c 257
 156 614 156 614 180 685 c 128
 204 756 204 756 243.5 820 c 128
 283 884 283 884 337.5 938.5 c 128
 392 993 392 993 462.5 1032.5 c 128
 533 1072 533 1072 620.5 1094.5 c 128
 708 1117 708 1117 812 1117 c 257
 873 1116 873 1116 935 1108 c 257
 989 1101 989 1101 1052 1086 c 128
 1115 1071 1115 1071 1173 1043 c 257
 1030 209 l 257
 1016 0 l 257
 694 0 l 257
 722 162 l 257
 567 -10 l 257
 556 -12 556 -12 538 -14.5 c 128
 520 -17 520 -17 483 -16 c 257
EndSplineSet
EndChar
StartChar: b
Encoding: 142 98 142
GlifName: b
Width: 1200
VWidth: 0
Flags: W
LayerCount: 2
Fore
SplineSet
494 212 m 257
 523 207 523 207 555 203.5 c 128
 587 200 587 200 617 200 c 257
 686 200 686 200 735.5 236.5 c 128
 785 273 785 273 819 330 c 128
 853 387 853 387 872 458 c 128
 891 529 891 529 897 598 c 257
 905 681 905 681 902 736.5 c 128
 899 792 899 792 887 826.5 c 128
 875 861 875 861 854.5 877.5 c 128
 834 894 834 894 806 900 c 257
 776 906 776 906 749 902 c 128
 722 898 722 898 696.5 887.5 c 128
 671 877 671 877 647.5 860.5 c 128
 624 844 624 844 602 826 c 257
 494 212 l 257
389 1398 m 257
 403 1601 l 257
 744 1632 l 257
 628 974 l 257
 747 1096 l 257
 778 1104 778 1104 811 1110.5 c 128
 844 1117 844 1117 872 1117 c 257
 953 1117 953 1117 1021.5 1083 c 128
 1090 1049 1090 1049 1137 982.5 c 128
 1184 916 1184 916 1204.5 818 c 128
 1225 720 1225 720 1210 593 c 257
 1194 455 1194 455 1140 340.5 c 128
 1086 226 1086 226 1002.5 145 c 128
 919 64 919 64 809 21.5 c 128
 699 -21 699 -21 570 -16 c 257
 506 -13 506 -13 443.5 -6.5 c 128
 381 0 381 0 325.5 9.5 c 128
 270 19 270 19 225 30.5 c 128
 180 42 180 42 152 54 c 257
 389 1398 l 257
EndSplineSet
EndChar
StartChar: c
Encoding: 176 99 176
GlifName: c
Width: 1000
VWidth: 0
Flags: W
LayerCount: 2
Fore
SplineSet
930 814 m 257
 907 841 907 841 883 857 c 128
 859 873 859 873 835 882 c 128
 811 891 811 891 786 894.5 c 128
 761 898 761 898 737 900 c 257
 680 904 680 904 631.5 876.5 c 128
 583 849 583 849 547.5 802 c 128
 512 755 512 755 490.5 692.5 c 128
 469 630 469 630 465 563 c 257
 461 496 461 496 462 434 c 128
 463 372 463 372 478 323 c 128
 493 274 493 274 527.5 241.5 c 128
 562 209 562 209 624 200 c 257
 650 196 650 196 684 203 c 128
 718 210 718 210 752 223 c 128
 786 236 786 236 817.5 253.5 c 128
 849 271 849 271 871 288 c 257
 949 93 l 257
 913 67 913 67 869.5 45 c 128
 826 23 826 23 777.5 8 c 128
 729 -7 729 -7 677 -14.5 c 128
 625 -22 625 -22 573 -17 c 257
 440 -6 440 -6 354 44 c 128
 268 94 268 94 220 173 c 128
 172 252 172 252 157 355 c 128
 142 458 142 458 151 575 c 257
 159 684 159 684 207 785.5 c 128
 255 887 255 887 336 964 c 128
 417 1041 417 1041 528.5 1083.5 c 128
 640 1126 640 1126 777 1117 c 257
 831 1113 831 1113 877.5 1104 c 128
 924 1095 924 1095 964.5 1077.5 c 128
 1005 1060 1005 1060 1040.5 1031.5 c 128
 1076 1003 1076 1003 1107 961 c 257
 930 814 l 257
EndSplineSet
EndChar
StartChar: h
Encoding: 300 104 300
GlifName: h
Width: 1200
VWidth: 0
Flags: W
LayerCount: 2
Fore
SplineSet
445 0 m 257
 134 0 l 257
 377 1379 l 257
 394 1600 l 257
 732 1631 l 257
 612 952 l 257
 760 1107 l 257
 788 1112 788 1112 815.5 1114.5 c 128
 843 1117 843 1117 868 1117 c 257
 945 1117 945 1117 1005.5 1087 c 128
 1066 1057 1066 1057 1105 1003.5 c 128
 1144 950 1144 950 1158 877 c 128
 1172 804 1172 804 1156 718 c 257
 1030 0 l 257
 719 0 l 257
 847 726 l 257
 860 805 860 805 837.5 847 c 128
 815 889 815 889 777 900 c 257
 735 912 735 912 684 890.5 c 128
 633 869 633 869 589 818 c 257
 445 0 l 257
EndSplineSet
EndChar
StartChar: i
Encoding: 311 105 311
GlifName: i
Width: 600
VWidth: 0
Flags: W
LayerCount: 2
Fore
SplineSet
442 0 m 257
 136 0 l 257
 320 1049 l 257
 632 1081 l 257
 442 0 l 257
394 1500 m 257
 712 1500 l 257
 671 1269 l 257
 353 1269 l 257
 394 1500 l 257
EndSplineSet
EndChar
StartChar: k
Encoding: 326 107 326
GlifName: k
Width: 1100
VWidth: 0
Flags: W
LayerCount: 2
Fore
SplineSet
144 0 m 257
 390 1397 l 257
 404 1600 l 257
 722 1631 l 257
 570 769 l 257
 893 1100 l 257
 1234 1100 l 257
 802 700 l 257
 585 627 l 257
 763 564 l 257
 1142 0 l 257
 794 0 l 257
 515 458 l 257
 435 0 l 257
 144 0 l 257
EndSplineSet
EndChar
StartChar: m
Encoding: 344 109 344
GlifName: m
Width: 1800
VWidth: 0
Flags: W
LayerCount: 2
Fore
SplineSet
469 0 m 257
 156 0 l 257
 348 1093 l 257
 667 1126 l 257
 634 937 l 257
 750 1088 l 257
 773 1096 773 1096 799 1102 c 257
 821 1107 821 1107 847.5 1112 c 128
 874 1117 874 1117 900 1117 c 257
 920 1117 920 1117 949 1113 c 128
 978 1109 978 1109 1011.5 1098.5 c 128
 1045 1088 1045 1088 1081.5 1070 c 128
 1118 1052 1118 1052 1153 1023 c 257
 1183 1039 1183 1039 1220 1056 c 128
 1257 1073 1257 1073 1297 1086.5 c 128
 1337 1100 1337 1100 1379 1108.5 c 128
 1421 1117 1421 1117 1462 1117 c 257
 1551 1117 1551 1117 1617.5 1084 c 128
 1684 1051 1684 1051 1724.5 997.5 c 128
 1765 944 1765 944 1778 875.5 c 128
 1791 807 1791 807 1773 736 c 257
 1644 0 l 257
 1331 0 l 257
 1464 757 l 257
 1471 786 1471 786 1466.5 811.5 c 128
 1462 837 1462 837 1449 856 c 128
 1436 875 1436 875 1416 886.5 c 128
 1396 898 1396 898 1373 900 c 257
 1336 903 1336 903 1291 885 c 128
 1246 867 1246 867 1196 814 c 257
 1194 790 1194 790 1191 772.5 c 128
 1188 755 1188 755 1184 727 c 257
 1056 0 l 257
 743 0 l 257
 876 757 l 257
 885 785 885 785 881.5 809.5 c 128
 878 834 878 834 866.5 853 c 128
 855 872 855 872 837.5 884.5 c 128
 820 897 820 897 801 900 c 257
 756 908 756 908 710 888 c 128
 664 868 664 868 612 816 c 257
 469 0 l 257
EndSplineSet
EndChar
StartChar: p
Encoding: 397 112 397
GlifName: p
Width: 1200
VWidth: 0
Flags: W
LayerCount: 2
Fore
SplineSet
511 200 m 257
 589 200 l 257
 668 200 668 200 729.5 230 c 128
 791 260 791 260 834.5 311 c 128
 878 362 878 362 904.5 430.5 c 128
 931 499 931 499 941 576 c 257
 950 649 950 649 943.5 707 c 128
 937 765 937 765 920 806 c 128
 903 847 903 847 877 870.5 c 128
 851 894 851 894 821 900 c 257
 794 905 794 905 767 899.5 c 128
 740 894 740 894 714.5 881.5 c 128
 689 869 689 869 664.5 850.5 c 128
 640 832 640 832 619 811 c 257
 511 200 l 257
76 -500 m 257
 357 1093 l 257
 674 1126 l 257
 642 944 l 257
 795 1110 l 257
 817 1113 817 1113 839.5 1115 c 128
 862 1117 862 1117 886 1117 c 257
 967 1117 967 1117 1034.5 1081.5 c 128
 1102 1046 1102 1046 1148.5 976 c 128
 1195 906 1195 906 1216 802.5 c 128
 1237 699 1237 699 1224 564 c 257
 1212 440 1212 440 1157.5 336.5 c 128
 1103 233 1103 233 1013.5 158 c 128
 924 83 924 83 803 41.5 c 128
 682 0 682 0 537 0 c 257
 476 0 l 257
 387 -500 l 257
 76 -500 l 257
EndSplineSet
EndChar
StartChar: q
Encoding: 435 113 435
GlifName: q
Width: 1200
VWidth: 0
Flags: W
LayerCount: 2
Fore
SplineSet
876 891 m 257
 846 895 846 895 814 897.5 c 128
 782 900 782 900 752 900 c 257
 682 900 682 900 631.5 866 c 128
 581 832 581 832 547.5 778 c 128
 514 724 514 724 495.5 657.5 c 128
 477 591 477 591 470 526 c 257
 461 442 461 442 464 382.5 c 128
 467 323 467 323 480 285 c 128
 493 247 493 247 514 226.5 c 128
 535 206 535 206 563 200 c 257
 584 195 584 195 609 200.5 c 128
 634 206 634 206 661 218.5 c 128
 688 231 688 231 715.5 249 c 128
 743 267 743 267 769 288 c 257
 876 891 l 257
742 136 m 257
 600 -8 l 257
 575 -13 575 -13 552.5 -16 c 128
 530 -19 530 -19 507 -17 c 257
 420 -11 420 -11 349 27.5 c 128
 278 66 278 66 231 134.5 c 128
 184 203 184 203 165 301.5 c 128
 146 400 146 400 162 526 c 257
 180 664 180 664 231 774 c 128
 282 884 282 884 362.5 960 c 128
 443 1036 443 1036 552 1076.5 c 128
 661 1117 661 1117 794 1117 c 257
 839 1117 839 1117 896.5 1109 c 128
 954 1101 954 1101 1012 1089 c 128
 1070 1077 1070 1077 1123 1063.5 c 128
 1176 1050 1176 1050 1213 1038 c 257
 941 -500 l 257
 630 -500 l 257
 742 136 l 257
EndSplineSet
EndChar
StartChar: r
Encoding: 447 114 447
GlifName: r
Width: 800
VWidth: 0
Flags: W
LayerCount: 2
Fore
SplineSet
940 867 m 257
 922 877 922 877 907 883.5 c 128
 892 890 892 890 877 894 c 128
 862 898 862 898 844.5 899 c 128
 827 900 827 900 804 900 c 257
 741 900 741 900 680 858 c 128
 619 816 619 816 578 736 c 257
 449 0 l 257
 136 0 l 257
 328 1093 l 257
 647 1126 l 257
 606 895 l 257
 736 1100 l 257
 745 1103 745 1103 757.5 1106 c 128
 770 1109 770 1109 784 1111.5 c 128
 798 1114 798 1114 812.5 1115.5 c 128
 827 1117 827 1117 840 1117 c 257
 895 1117 895 1117 929.5 1108.5 c 128
 964 1100 964 1100 993 1084 c 257
 940 867 l 257
EndSplineSet
EndChar
StartChar: t
Encoding: 511 116 511
GlifName: t
Width: 800
VWidth: 0
Flags: W
LayerCount: 2
Fore
SplineSet
533 388 m 257
 525 355 525 355 524 325 c 128
 523 295 523 295 527.5 271 c 128
 532 247 532 247 541.5 230.5 c 128
 551 214 551 214 564 208 c 257
 586 198 586 198 606 201 c 128
 626 204 626 204 642 212 c 257
 660 221 660 221 676 235 c 257
 742 72 l 257
 700 31 700 31 632 5 c 128
 564 -21 564 -21 476 -16 c 257
 377 -10 377 -10 322 23.5 c 128
 267 57 267 57 243 113 c 128
 219 169 219 169 220 244.5 c 128
 221 320 221 320 234 410 c 257
 316 876 l 257
 166 876 l 257
 205 1100 l 257
 355 1100 l 257
 387 1279 l 257
 718 1463 l 257
 654 1100 l 257
 944 1100 l 257
 878 876 l 257
 619 876 l 257
 533 388 l 257
EndSplineSet
EndChar
StartChar: v
Encoding: 555 118 555
GlifName: v
Width: 1100
VWidth: 0
Flags: W
LayerCount: 2
Fore
SplineSet
585 700 m 257
 588 300 l 257
 731 700 l 257
 929 1093 l 257
 1243 1129 l 257
 664 -24 l 257
 372 5 l 257
 212 1093 l 257
 523 1125 l 257
 585 700 l 257
EndSplineSet
EndChar
StartChar: x
Encoding: 580 120 580
GlifName: x
Width: 1100
VWidth: 0
Flags: W
LayerCount: 2
Fore
SplineSet
644 272 m 257
 614 474 l 257
 510 272 l 257
 295 0 l 257
 -34 0 l 257
 480 585 l 257
 213 1093 l 257
 550 1120 l 257
 652 900 l 257
 679 699 l 257
 774 900 l 257
 948 1096 l 257
 1299 1124 l 257
 823 581 l 257
 1129 0 l 257
 778 0 l 257
 644 272 l 257
EndSplineSet
EndChar
StartChar: z
Encoding: 586 122 586
GlifName: z
Width: 1000
VWidth: 0
Flags: W
LayerCount: 2
Fore
SplineSet
580 200 m 257
 953 200 l 257
 945 0 l 257
 55 0 l 257
 36 85 l 257
 555 757 l 257
 817 935 l 257
 540 900 l 257
 266 900 l 257
 274 1100 l 257
 1057 1100 l 257
 1075 1017 l 257
 560 339 l 257
 303 165 l 257
 580 200 l 257
EndSplineSet
EndChar
StartChar: bar
Encoding: 145 124 145
GlifName: bar
Width: 400
VWidth: 0
Flags: W
LayerCount: 2
Fore
SplineSet
635 1527 m 257
 298 -380 l 257
 -28 -380 l 257
 302 1493 l 257
 635 1527 l 257
EndSplineSet
EndChar
StartChar: braceright
Encoding: 169 125 169
GlifName: braceright
Width: 1200
VWidth: 0
Flags: W
LayerCount: 2
Fore
SplineSet
454 1445 m 257
 490 1461 490 1461 523 1474 c 128
 556 1487 556 1487 591.5 1496.5 c 128
 627 1506 627 1506 668.5 1511.5 c 128
 710 1517 710 1517 762 1517 c 257
 860 1517 860 1517 924.5 1484 c 128
 989 1451 989 1451 1024.5 1394 c 128
 1060 1337 1060 1337 1068.5 1261 c 128
 1077 1185 1077 1185 1062 1099 c 257
 1021 864 l 257
 1005 776 1005 776 1011.5 723 c 128
 1018 670 1018 670 1062 660 c 257
 1196 640 l 257
 1165 462 l 257
 1023 442 l 257
 975 432 975 432 950.5 379.5 c 128
 926 327 926 327 910 238 c 257
 868 -2 l 257
 850 -102 850 -102 822 -182.5 c 128
 794 -263 794 -263 742.5 -317.5 c 128
 691 -372 691 -372 610 -399 c 128
 529 -426 529 -426 405 -420 c 257
 353 -417 353 -417 316 -411.5 c 128
 279 -406 279 -406 249.5 -397 c 128
 220 -388 220 -388 194 -375.5 c 128
 168 -363 168 -363 138 -348 c 257
 267 -163 l 257
 282 -173 282 -173 301 -183.5 c 128
 320 -194 320 -194 339.5 -201 c 128
 359 -208 359 -208 378.5 -210.5 c 128
 398 -213 398 -213 415 -208 c 257
 446 -198 446 -198 467 -182.5 c 128
 488 -167 488 -167 501.5 -143 c 128
 515 -119 515 -119 524 -84.5 c 128
 533 -50 533 -50 541 -2 c 257
 583 238 l 257
 596 311 596 311 620.5 364.5 c 128
 645 418 645 418 675.5 455.5 c 128
 706 493 706 493 739 515.5 c 128
 772 538 772 538 802 550 c 257
 779 570 779 570 757 606.5 c 128
 735 643 735 643 718.5 687.5 c 128
 702 732 702 732 694.5 778.5 c 128
 687 825 687 825 694 864 c 257
 735 1099 l 257
 744 1147 744 1147 749.5 1182.5 c 128
 755 1218 755 1218 751 1242.5 c 128
 747 1267 747 1267 731.5 1282 c 128
 716 1297 716 1297 682 1305 c 257
 665 1309 665 1309 644 1306.5 c 128
 623 1304 623 1304 601.5 1297 c 128
 580 1290 580 1290 558 1280 c 128
 536 1270 536 1270 518 1260 c 257
 454 1445 l 257
EndSplineSet
EndChar
StartChar: currency
Encoding: 213 164 213
GlifName: currency
Width: 1200
VWidth: 0
Flags: W
LayerCount: 2
Fore
SplineSet
1147 249 m 257
 940 72 l 257
 803 238 l 257
 764 217 764 217 719.5 206 c 128
 675 195 675 195 629 194.5 c 128
 583 194 583 194 537.5 204.5 c 128
 492 215 492 215 452 238 c 257
 258 72 l 257
 112 249 l 257
 291 400 l 257
 266 443 266 443 257.5 493.5 c 128
 249 544 249 544 257.5 595 c 128
 266 646 266 646 291 694 c 128
 316 742 316 742 358 779 c 257
 232 930 l 257
 440 1109 l 257
 577 942 l 257
 610 958 610 958 654 968 c 128
 698 978 698 978 746 979.5 c 128
 794 981 794 981 841.5 972.5 c 128
 889 964 889 964 928 942 c 257
 1124 1109 l 257
 1267 930 l 257
 1090 779 l 257
 1111 736 1111 736 1117 682.5 c 128
 1123 629 1123 629 1114.5 576 c 128
 1106 523 1106 523 1083 476.5 c 128
 1060 430 1060 430 1023 400 c 257
 1147 249 l 257
526 590 m 257
 523 543 523 543 533.5 512.5 c 128
 544 482 544 482 563.5 463 c 128
 583 444 583 444 608 433.5 c 128
 633 423 633 423 660 417 c 257
 686 411 686 411 719 419.5 c 128
 752 428 752 428 781.5 450 c 128
 811 472 811 472 832 507.5 c 128
 853 543 853 543 855 590 c 257
 857 639 857 639 846.5 670 c 128
 836 701 836 701 817 719.5 c 128
 798 738 798 738 773 747 c 128
 748 756 748 756 721 761 c 257
 695 765 695 765 662.5 757.5 c 128
 630 750 630 750 601 729 c 128
 572 708 572 708 550.5 673.5 c 128
 529 639 529 639 526 590 c 257
EndSplineSet
EndChar
StartChar: yen
Encoding: 585 165 585
GlifName: yen
Width: 1200
VWidth: 0
Flags: W
LayerCount: 2
Fore
SplineSet
203 589 m 257
 522 589 l 257
 533 650 l 257
 516 700 l 257
 223 700 l 257
 256 889 l 257
 453 889 l 257
 253 1492 l 257
 587 1525 l 257
 712 1143 l 257
 754 773 l 257
 877 1143 l 257
 1122 1500 l 257
 1452 1500 l 257
 1033 889 l 257
 1256 889 l 257
 1223 700 l 257
 903 700 l 257
 869 650 l 257
 858 589 l 257
 1203 589 l 257
 1170 400 l 257
 825 400 l 257
 755 0 l 257
 419 0 l 257
 489 400 l 257
 170 400 l 257
 203 589 l 257
EndSplineSet
EndChar
StartChar: brokenbar
Encoding: 173 166 173
GlifName: brokenbar
Width: 400
VWidth: 0
Flags: W
LayerCount: 2
Fore
SplineSet
634 1527 m 257
 488 700 l 257
 161 700 l 257
 301 1493 l 257
 634 1527 l 257
428 362 m 257
 294 -400 l 257
 -32 -400 l 257
 101 362 l 257
 428 362 l 257
EndSplineSet
EndChar
StartChar: section
Encoding: 468 167 468
GlifName: section
Width: 1000
VWidth: 0
Flags: W
LayerCount: 2
Fore
SplineSet
998 1249 m 257
 974 1261 974 1261 952 1273.5 c 128
 930 1286 930 1286 904.5 1296 c 128
 879 1306 879 1306 849 1312 c 128
 819 1318 819 1318 779 1318 c 257
 738 1318 738 1318 705 1310.5 c 128
 672 1303 672 1303 648.5 1286.5 c 128
 625 1270 625 1270 612 1242 c 128
 599 1214 599 1214 599 1174 c 257
 599 1132 599 1132 610 1102 c 128
 621 1072 621 1072 640.5 1048 c 128
 660 1024 660 1024 686.5 1003 c 128
 713 982 713 982 745 958 c 257
 795 920 795 920 842.5 879.5 c 128
 890 839 890 839 925.5 788.5 c 128
 961 738 961 738 980.5 674.5 c 128
 1000 611 1000 611 994 527 c 257
 991 479 991 479 973.5 434 c 128
 956 389 956 389 925 350.5 c 128
 894 312 894 312 850.5 282 c 128
 807 252 807 252 751 234 c 257
 814 176 814 176 845.5 107 c 128
 877 38 877 38 874 -46 c 257
 871 -130 871 -130 831 -198 c 128
 791 -266 791 -266 723.5 -313 c 128
 656 -360 656 -360 565.5 -383 c 128
 475 -406 475 -406 370 -400 c 257
 323 -397 323 -397 279.5 -391.5 c 128
 236 -386 236 -386 195 -375 c 128
 154 -364 154 -364 114 -346 c 128
 74 -328 74 -328 34 -299 c 257
 170 -129 l 257
 207 -152 207 -152 238 -166 c 128
 269 -180 269 -180 295.5 -187.5 c 128
 322 -195 322 -195 344.5 -197.5 c 128
 367 -200 367 -200 388 -200 c 257
 419 -200 419 -200 451.5 -192 c 128
 484 -184 484 -184 510.5 -167 c 128
 537 -150 537 -150 553 -122 c 128
 569 -94 569 -94 568 -54 c 257
 566 -11 566 -11 554.5 20 c 128
 543 51 543 51 523.5 75.5 c 128
 504 100 504 100 478 120 c 128
 452 140 452 140 422 163 c 257
 371 202 371 202 325 241.5 c 128
 279 281 279 281 245 330.5 c 128
 211 380 211 380 191.5 443.5 c 128
 172 507 172 507 173 593 c 257
 173 644 173 644 195 692.5 c 128
 217 741 217 741 251.5 780.5 c 128
 286 820 286 820 329 847.5 c 128
 372 875 372 875 416 885 c 257
 352 945 352 945 321 1013 c 128
 290 1081 290 1081 293 1166 c 257
 296 1247 296 1247 333 1314.5 c 128
 370 1382 370 1382 436 1429 c 128
 502 1476 502 1476 594 1499.5 c 128
 686 1523 686 1523 797 1517 c 257
 843 1514 843 1514 886 1509 c 128
 929 1504 929 1504 970 1493.5 c 128
 1011 1483 1011 1483 1051.5 1465 c 128
 1092 1447 1092 1447 1133 1419 c 257
 998 1249 l 257
569 747 m 257
 555 737 l 257
 534 723 534 723 517 709.5 c 128
 500 696 500 696 488 679.5 c 128
 476 663 476 663 469.5 642.5 c 128
 463 622 463 622 463 595 c 257
 463 559 463 559 474.5 528 c 128
 486 497 486 497 503.5 471 c 128
 521 445 521 445 541 424 c 128
 561 403 561 403 579 387 c 257
 598 372 l 257
 612 383 l 257
 624 392 624 392 639.5 404.5 c 128
 655 417 655 417 669 434 c 128
 683 451 683 451 692.5 473.5 c 128
 702 496 702 496 704 525 c 257
 706 558 706 558 697 587 c 128
 688 616 688 616 672 641.5 c 128
 656 667 656 667 634.5 689 c 128
 613 711 613 711 589 731 c 257
 569 747 l 257
EndSplineSet
EndChar
StartChar: dieresis
Encoding: 223 168 223
GlifName: dieresis
Width: 1100
VWidth: 0
Flags: W
LayerCount: 2
Fore
SplineSet
487 1500 m 257
 763 1500 l 257
 716 1234 l 257
 440 1234 l 257
 487 1500 l 257
887 1500 m 257
 1163 1500 l 257
 1116 1234 l 257
 840 1234 l 257
 887 1500 l 257
EndSplineSet
EndChar
StartChar: copyright
Encoding: 210 169 210
GlifName: copyright
Width: 1100
VWidth: 0
Flags: W
LayerCount: 2
Fore
SplineSet
816 1517 m 257
 912 1511 912 1511 986.5 1475 c 128
 1061 1439 1061 1439 1110.5 1377.5 c 128
 1160 1316 1160 1316 1184 1232.5 c 128
 1208 1149 1208 1149 1203 1047 c 257
 1198 948 1198 948 1147.5 859 c 128
 1097 770 1097 770 1018.5 704.5 c 128
 940 639 940 639 843.5 604 c 128
 747 569 747 569 650 577 c 257
 548 586 548 586 472.5 623 c 128
 397 660 397 660 348 720.5 c 128
 299 781 299 781 278 864 c 128
 257 947 257 947 263 1047 c 257
 269 1146 269 1146 317.5 1234 c 128
 366 1322 366 1322 442.5 1387 c 128
 519 1452 519 1452 615.5 1487.5 c 128
 712 1523 712 1523 816 1517 c 257
794 1395 m 257
 717 1400 717 1400 645 1373.5 c 128
 573 1347 573 1347 517 1299 c 128
 461 1251 461 1251 425 1185 c 128
 389 1119 389 1119 384 1046 c 257
 379 972 379 972 395 910.5 c 128
 411 849 411 849 447 804 c 128
 483 759 483 759 539 732 c 128
 595 705 595 705 670 698 c 257
 742 692 742 692 813.5 718 c 128
 885 744 885 744 943 793 c 128
 1001 842 1001 842 1039 907.5 c 128
 1077 973 1077 973 1081 1046 c 257
 1084 1122 1084 1122 1066.5 1184 c 128
 1049 1246 1049 1246 1012 1291.5 c 128
 975 1337 975 1337 920 1363.5 c 128
 865 1390 865 1390 794 1395 c 257
874 1165 m 257
 863 1177 863 1177 851 1184.5 c 128
 839 1192 839 1192 827 1196 c 128
 815 1200 815 1200 802.5 1201.5 c 128
 790 1203 790 1203 778 1204 c 257
 749 1206 749 1206 725 1193.5 c 128
 701 1181 701 1181 683 1160 c 128
 665 1139 665 1139 654.5 1110.5 c 128
 644 1082 644 1082 642 1052 c 257
 640 1022 640 1022 640.5 994 c 128
 641 966 641 966 648.5 944 c 128
 656 922 656 922 673 907.5 c 128
 690 893 690 893 721 889 c 257
 734 887 734 887 751 890 c 128
 768 893 768 893 785 899 c 128
 802 905 802 905 818 913 c 128
 834 921 834 921 845 929 c 257
 884 841 l 257
 866 829 866 829 844 819 c 128
 822 809 822 809 798 802.5 c 128
 774 796 774 796 748 792.5 c 128
 722 789 722 789 696 791 c 257
 629 796 629 796 586 818.5 c 128
 543 841 543 841 519 876.5 c 128
 495 912 495 912 487.5 958.5 c 128
 480 1005 480 1005 485 1058 c 257
 489 1107 489 1107 513 1152.5 c 128
 537 1198 537 1198 577.5 1232.5 c 128
 618 1267 618 1267 673.5 1286.5 c 128
 729 1306 729 1306 798 1302 c 257
 825 1300 825 1300 848 1296 c 128
 871 1292 871 1292 891.5 1284 c 128
 912 1276 912 1276 929.5 1263 c 128
 947 1250 947 1250 963 1231 c 257
 874 1165 l 257
EndSplineSet
EndChar
StartChar: ordfeminine
Encoding: 393 170 393
GlifName: ordfeminine
Width: 800
VWidth: 0
Flags: W
LayerCount: 2
Fore
SplineSet
211 800 m 257
 671 800 l 257
 644 650 l 257
 184 650 l 257
 211 800 l 257
661 1373 m 257
 651 1375 651 1375 642.5 1376 c 128
 634 1377 634 1377 630 1377 c 257
 593 1377 593 1377 564 1361.5 c 128
 535 1346 535 1346 514.5 1320 c 128
 494 1294 494 1294 482 1259.5 c 128
 470 1225 470 1225 466 1186 c 257
 463 1155 463 1155 464 1128 c 128
 465 1101 465 1101 470.5 1080 c 128
 476 1059 476 1059 486.5 1047 c 128
 497 1035 497 1035 511 1035 c 257
 528 1035 528 1035 543.5 1041 c 128
 559 1047 559 1047 572 1056 c 128
 585 1065 585 1065 595.5 1075.5 c 128
 606 1086 606 1086 613 1095 c 257
 661 1373 l 257
483 923 m 257
 444 923 444 923 415.5 935 c 128
 387 947 387 947 367 967 c 128
 347 987 347 987 334.5 1013.5 c 128
 322 1040 322 1040 316.5 1071 c 128
 311 1102 311 1102 310.5 1135.5 c 128
 310 1169 310 1169 315 1202 c 257
 319 1238 319 1238 331 1273.5 c 128
 343 1309 343 1309 363 1341 c 128
 383 1373 383 1373 410 1400 c 128
 437 1427 437 1427 472.5 1447 c 128
 508 1467 508 1467 551.5 1478 c 128
 595 1489 595 1489 647 1489 c 257
 678 1489 678 1489 709 1485 c 257
 736 1481 736 1481 767.5 1473.5 c 128
 799 1466 799 1466 828 1452 c 257
 756 1035 l 257
 749 931 l 257
 588 931 l 257
 602 1012 l 257
 525 926 l 257
 519 925 519 925 510 923.5 c 128
 501 922 501 922 483 923 c 257
EndSplineSet
EndChar
StartChar: macron
Encoding: 345 175 345
GlifName: macron
Width: 1100
VWidth: 0
Flags: W
LayerCount: 2
Fore
SplineSet
464 1500 m 257
 1164 1500 l 257
 1126 1282 l 257
 426 1282 l 257
 464 1500 l 257
EndSplineSet
EndChar
StartChar: plusminus
Encoding: 427 177 427
GlifName: plusminus
Width: 1200
VWidth: 0
Flags: W
LayerCount: 2
Fore
SplineSet
303 863 m 257
 648 863 l 257
 721 1212 l 257
 922 1212 l 257
 849 863 l 257
 1194 863 l 257
 1160 700 l 257
 815 700 l 257
 747 374 l 257
 546 374 l 257
 614 700 l 257
 270 700 l 257
 303 863 l 257
264 299 m 257
 1164 299 l 257
 1164 159 l 257
 264 159 l 257
 264 299 l 257
EndSplineSet
EndChar
StartChar: twosuperior
Encoding: 540 178 540
GlifName: twosuperior
Width: 600
VWidth: 0
Flags: W
LayerCount: 2
Fore
SplineSet
62 720 m 257
 79 815 l 257
 109 852 109 852 149.5 895 c 128
 190 938 190 938 231 978.5 c 128
 272 1019 272 1019 308 1053.5 c 128
 344 1088 344 1088 366 1107 c 257
 408 1145 408 1145 431.5 1168.5 c 128
 455 1192 455 1192 467 1208.5 c 128
 479 1225 479 1225 483.5 1238 c 128
 488 1251 488 1251 493 1268 c 257
 497 1283 497 1283 494.5 1300.5 c 128
 492 1318 492 1318 482.5 1332.5 c 128
 473 1347 473 1347 457.5 1357.5 c 128
 442 1368 442 1368 422 1370 c 257
 381 1374 381 1374 343.5 1346.5 c 128
 306 1319 306 1319 277 1268 c 257
 168 1311 l 257
 208 1399 208 1399 280 1441 c 128
 352 1483 352 1483 449 1478 c 257
 506 1475 506 1475 545 1455 c 128
 584 1435 584 1435 607.5 1405 c 128
 631 1375 631 1375 639.5 1337.5 c 128
 648 1300 648 1300 644 1263 c 257
 639 1227 639 1227 620 1194.5 c 128
 601 1162 601 1162 575.5 1132.5 c 128
 550 1103 550 1103 522 1077.5 c 128
 494 1052 494 1052 472 1030 c 257
 442 1000 442 1000 409.5 969 c 128
 377 938 377 938 347.5 910 c 128
 318 882 318 882 294 858.5 c 128
 270 835 270 835 257 820 c 257
 578 820 l 257
 561 720 l 257
 62 720 l 257
EndSplineSet
EndChar
StartChar: threesuperior
Encoding: 526 179 526
GlifName: threesuperior
Width: 600
VWidth: 0
Flags: W
LayerCount: 2
Fore
SplineSet
219 1189 m 257
 244 1205 244 1205 282.5 1228.5 c 128
 321 1252 321 1252 362.5 1281 c 128
 404 1310 404 1310 441.5 1342 c 128
 479 1374 479 1374 502 1407 c 257
 365 1370 l 257
 200 1370 l 257
 228 1470 l 257
 642 1470 l 257
 627 1383 l 257
 606 1353 606 1353 571 1314 c 128
 536 1275 536 1275 494 1246 c 257
 408 1204 l 257
 453 1206 453 1206 491.5 1192.5 c 128
 530 1179 530 1179 557 1153 c 128
 584 1127 584 1127 597.5 1089.5 c 128
 611 1052 611 1052 607 1006 c 257
 600 929 600 929 552.5 875 c 128
 505 821 505 821 432 786.5 c 128
 359 752 359 752 267.5 736 c 128
 176 720 176 720 80 720 c 257
 98 820 l 257
 162 820 162 820 223.5 833 c 128
 285 846 285 846 333 869.5 c 128
 381 893 381 893 411 926.5 c 128
 441 960 441 960 442 1001 c 257
 443 1030 443 1030 432 1050 c 128
 421 1070 421 1070 402.5 1082 c 128
 384 1094 384 1094 359 1099.5 c 128
 334 1105 334 1105 307 1105 c 257
 299 1105 299 1105 285 1104.5 c 128
 271 1104 271 1104 255 1103 c 128
 239 1102 239 1102 225 1101 c 128
 211 1100 211 1100 204 1100 c 257
 219 1189 l 257
EndSplineSet
EndChar
StartChar: acute
Encoding: 104 180 104
GlifName: acute
Width: 1100
VWidth: 0
Flags: W
LayerCount: 2
Fore
SplineSet
800 1496 m 257
 1187 1528 l 257
 837 1200 l 257
 588 1200 l 257
 800 1496 l 257
EndSplineSet
EndChar
StartChar: mu
Encoding: 354 181 354
GlifName: mu
Width: 1300
VWidth: 0
Flags: W
LayerCount: 2
Fore
SplineSet
1264 51 m 257
 1229 13 1229 13 1175 -7.5 c 128
 1121 -28 1121 -28 1039 -17 c 257
 1006 -13 1006 -13 974.5 5 c 128
 943 23 943 23 919 50.5 c 128
 895 78 895 78 880 113.5 c 128
 865 149 865 149 865 190 c 257
 797 72 l 257
 749 18 749 18 684.5 0.5 c 128
 620 -17 620 -17 542 -17 c 257
 522 -17 522 -17 494 -12 c 128
 466 -7 466 -7 438 1.5 c 128
 410 10 410 10 386.5 20 c 128
 363 30 363 30 353 40 c 257
 381 -166 l 257
 322 -500 l 257
 24 -500 l 257
 305 1093 l 257
 609 1125 l 257
 474 362 l 257
 466 329 466 329 475.5 301.5 c 128
 485 274 485 274 504 252.5 c 128
 523 231 523 231 546.5 217 c 128
 570 203 570 203 590 199 c 257
 628 191 628 191 670 209 c 128
 712 227 712 227 747 268 c 257
 892 1093 l 257
 1196 1125 l 257
 1062 365 l 257
 1051 321 1051 321 1050.5 292.5 c 128
 1050 264 1050 264 1057 245.5 c 128
 1064 227 1064 227 1077 216.5 c 128
 1090 206 1090 206 1106 199 c 257
 1124 191 1124 191 1146.5 200.5 c 128
 1169 210 1169 210 1196 223 c 257
 1264 51 l 257
EndSplineSet
EndChar
StartChar: paragraph
Encoding: 400 182 400
GlifName: paragraph
Width: 1400
VWidth: 0
Flags: W
LayerCount: 2
Fore
SplineSet
1260 1298 m 257
 1126 1298 l 257
 827 -400 l 257
 568 -400 l 257
 745 604 l 257
 704 612 704 612 661 626.5 c 128
 618 641 618 641 578.5 665.5 c 128
 539 690 539 690 504.5 724.5 c 128
 470 759 470 759 446 806 c 128
 422 853 422 853 411.5 913.5 c 128
 401 974 401 974 409 1050 c 257
 418 1138 418 1138 446.5 1206 c 128
 475 1274 475 1274 518 1324 c 128
 561 1374 561 1374 616.5 1407.5 c 128
 672 1441 672 1441 735 1461.5 c 128
 798 1482 798 1482 866 1491 c 128
 934 1500 934 1500 1003 1500 c 257
 1553 1500 l 257
 1218 -400 l 257
 961 -400 l 257
 1260 1298 l 257
EndSplineSet
EndChar
StartChar: onesuperior
Encoding: 391 185 391
GlifName: onesuperior
Width: 600
VWidth: 0
Flags: W
LayerCount: 2
Fore
SplineSet
351 1160 m 257
 420 1341 l 257
 282 1206 l 257
 234 1169 l 257
 172 1261 l 257
 451 1482 l 257
 563 1466 l 257
 449 820 l 257
 570 820 l 257
 553 720 l 257
 152 720 l 257
 169 820 l 257
 291 820 l 257
 351 1160 l 257
EndSplineSet
EndChar
StartChar: guillemotright
Encoding: 297 187 297
GlifName: guillemotright
Width: 1400
VWidth: 0
Flags: W
LayerCount: 2
Fore
SplineSet
886 619 m 257
 860 476 l 257
 218 -13 l 257
 166 224 l 257
 552 517 l 257
 631 550 l 257
 562 582 l 257
 284 880 l 257
 413 1106 l 257
 886 619 l 257
1386 619 m 257
 1360 476 l 257
 718 -13 l 257
 666 224 l 257
 1052 517 l 257
 1131 550 l 257
 1062 582 l 257
 784 880 l 257
 913 1106 l 257
 1386 619 l 257
EndSplineSet
EndChar
StartChar: onequarter
Encoding: 388 188 388
GlifName: onequarter
Width: 1500
VWidth: 0
Flags: W
LayerCount: 2
Fore
SplineSet
474 0 m 257
 289 0 l 257
 1064 1500 l 257
 1240 1500 l 257
 474 0 l 257
369 1162 m 257
 438 1343 l 257
 300 1208 l 257
 252 1171 l 257
 190 1263 l 257
 469 1484 l 257
 581 1468 l 257
 467 822 l 257
 588 822 l 257
 571 722 l 257
 170 722 l 257
 187 822 l 257
 309 822 l 257
 369 1162 l 257
1424 188 m 257
 1335 188 l 257
 1309 38 l 257
 1155 38 l 257
 1181 188 l 257
 886 188 l 257
 904 288 l 257
 1242 800 l 257
 1392 784 l 257
 1164 419 l 257
 1054 288 l 257
 1199 288 l 257
 1225 437 l 257
 1377 424 l 257
 1353 288 l 257
 1453 288 l 257
 1424 188 l 257
EndSplineSet
EndChar
StartChar: onehalf
Encoding: 386 189 386
GlifName: onehalf
Width: 1500
VWidth: 0
Flags: W
LayerCount: 2
Fore
SplineSet
474 0 m 257
 289 0 l 257
 1064 1500 l 257
 1240 1500 l 257
 474 0 l 257
369 1162 m 257
 438 1343 l 257
 300 1208 l 257
 252 1171 l 257
 190 1263 l 257
 469 1484 l 257
 581 1468 l 257
 467 822 l 257
 588 822 l 257
 571 722 l 257
 170 722 l 257
 187 822 l 257
 309 822 l 257
 369 1162 l 257
910 38 m 257
 927 133 l 257
 957 170 957 170 997.5 213 c 128
 1038 256 1038 256 1079 296.5 c 128
 1120 337 1120 337 1156 371.5 c 128
 1192 406 1192 406 1214 425 c 257
 1256 463 1256 463 1279.5 486.5 c 128
 1303 510 1303 510 1315 526.5 c 128
 1327 543 1327 543 1331.5 556 c 128
 1336 569 1336 569 1341 586 c 257
 1345 601 1345 601 1342.5 618.5 c 128
 1340 636 1340 636 1330.5 650.5 c 128
 1321 665 1321 665 1305.5 675.5 c 128
 1290 686 1290 686 1270 688 c 257
 1229 692 1229 692 1191.5 664.5 c 128
 1154 637 1154 637 1125 586 c 257
 1016 629 l 257
 1056 717 1056 717 1128 759 c 128
 1200 801 1200 801 1297 796 c 257
 1354 793 1354 793 1393 773 c 128
 1432 753 1432 753 1455.5 723 c 128
 1479 693 1479 693 1487.5 655.5 c 128
 1496 618 1496 618 1492 581 c 257
 1487 545 1487 545 1468 512.5 c 128
 1449 480 1449 480 1423.5 450.5 c 128
 1398 421 1398 421 1370 395.5 c 128
 1342 370 1342 370 1320 348 c 257
 1290 318 1290 318 1257.5 287 c 128
 1225 256 1225 256 1195.5 228 c 128
 1166 200 1166 200 1142 176.5 c 128
 1118 153 1118 153 1105 138 c 257
 1426 138 l 257
 1409 38 l 257
 910 38 l 257
EndSplineSet
EndChar
StartChar: questiondown
Encoding: 437 191 437
GlifName: questiondown
Width: 1100
VWidth: 0
Flags: W
LayerCount: 2
Fore
SplineSet
276 -22 m 257
 280 39 280 39 306 91 c 128
 332 143 332 143 372.5 187 c 128
 413 231 413 231 464.5 268 c 128
 516 305 516 305 571 337 c 257
 613 361 613 361 648.5 391 c 128
 684 421 684 421 712.5 460.5 c 128
 741 500 741 500 761.5 551 c 128
 782 602 782 602 793 668 c 257
 1110 703 l 257
 1086 514 1086 514 1002 380 c 128
 918 246 918 246 765 160 c 257
 734 143 734 143 707.5 123.5 c 128
 681 104 681 104 661 81.5 c 128
 641 59 641 59 629 31.5 c 128
 617 4 617 4 616 -30 c 257
 615 -70 615 -70 627 -97.5 c 128
 639 -125 639 -125 659.5 -143 c 128
 680 -161 680 -161 707.5 -169.5 c 128
 735 -178 735 -178 765 -181 c 257
 795 -184 795 -184 832.5 -179 c 128
 870 -174 870 -174 913.5 -156.5 c 128
 957 -139 957 -139 1004.5 -105 c 128
 1052 -71 1052 -71 1100 -15 c 257
 1255 -166 l 257
 1178 -253 1178 -253 1105 -303 c 128
 1032 -353 1032 -353 963 -377.5 c 128
 894 -402 894 -402 828.5 -408.5 c 128
 763 -415 763 -415 700 -415 c 257
 614 -415 614 -415 534.5 -392 c 128
 455 -369 455 -369 395 -320.5 c 128
 335 -272 335 -272 302 -198 c 128
 269 -124 269 -124 276 -22 c 257
1109 965 m 257
 1107 935 1107 935 1091 906.5 c 128
 1075 878 1075 878 1050.5 857 c 128
 1026 836 1026 836 996 825 c 128
 966 814 966 814 936 817 c 257
 876 824 876 824 843 864 c 128
 810 904 810 904 814 965 c 257
 816 996 816 996 832 1024 c 128
 848 1052 848 1052 872.5 1073 c 128
 897 1094 897 1094 927 1106 c 128
 957 1118 957 1118 987 1116 c 257
 1018 1114 1018 1114 1042 1101 c 128
 1066 1088 1066 1088 1081.5 1068 c 128
 1097 1048 1097 1048 1104 1021.5 c 128
 1111 995 1111 995 1109 965 c 257
EndSplineSet
EndChar
StartChar: Acircumflex
Encoding: 4 194 4
GlifName: A_circumflex
Width: 1300
VWidth: 0
Flags: W
LayerCount: 2
Fore
SplineSet
20 0 m 257
 644 1284 l 257
 716 1494 l 257
 1071 1525 l 257
 1282 0 l 257
 955 0 l 257
 914 427 l 257
 522 427 l 257
 334 0 l 257
 20 0 l 257
882 1361 m 257
 764 990 l 257
 619 646 l 257
 893 646 l 257
 869 990 l 257
 882 1361 l 257
1244 1620 m 257
 1029 1620 l 257
 977 1723 l 257
 969 1850 l 257
 917 1723 l 257
 818 1620 l 257
 588 1620 l 257
 809 1895 l 257
 1110 1924 l 257
 1244 1620 l 257
EndSplineSet
EndChar
StartChar: Adieresis
Encoding: 5 196 5
GlifName: A_dieresis
Width: 1300
VWidth: 0
Flags: W
LayerCount: 2
Fore
SplineSet
20 0 m 257
 644 1284 l 257
 716 1494 l 257
 1071 1525 l 257
 1282 0 l 257
 955 0 l 257
 914 427 l 257
 522 427 l 257
 334 0 l 257
 20 0 l 257
882 1361 m 257
 764 990 l 257
 619 646 l 257
 893 646 l 257
 869 990 l 257
 882 1361 l 257
560 1634 m 257
 836 1634 l 257
 883 1900 l 257
 607 1900 l 257
 560 1634 l 257
960 1634 m 257
 1236 1634 l 257
 1283 1900 l 257
 1007 1900 l 257
 960 1634 l 257
EndSplineSet
EndChar
StartChar: AE
Encoding: 2 198 2
GlifName: A_E_
Width: 1700
VWidth: 0
Flags: W
LayerCount: 2
Fore
SplineSet
1703 228 m 257
 1635 0 l 257
 697 0 l 257
 755 231 l 257
 790 427 l 257
 547 427 l 257
 301 0 l 257
 6 0 l 257
 746 1280 l 257
 834 1500 l 257
 1890 1500 l 257
 1850 1272 l 257
 1254 1272 l 257
 1246 1133 l 257
 1208 916 l 257
 1719 916 l 257
 1681 703 l 257
 1170 703 l 257
 1110 360 l 257
 1079 228 l 257
 1703 228 l 257
828 645 m 257
 926 1200 l 257
 830 939 l 257
 673 645 l 257
 828 645 l 257
EndSplineSet
EndChar
StartChar: Egrave
Encoding: 21 200 21
GlifName: E_grave
Width: 1200
VWidth: 0
Flags: W
LayerCount: 2
Fore
SplineSet
1127 228 m 257
 1060 0 l 257
 118 0 l 257
 175 231 l 257
 357 1263 l 257
 364 1500 l 257
 1314 1500 l 257
 1274 1272 l 257
 680 1272 l 257
 670 1134 l 257
 632 916 l 257
 1145 916 l 257
 1107 703 l 257
 594 703 l 257
 534 360 l 257
 503 228 l 257
 1127 228 l 257
1000 1600 m 257
 742 1600 l 257
 529 1891 l 257
 882 1925 l 257
 1000 1600 l 257
EndSplineSet
EndChar
StartChar: Eacute
Encoding: 18 201 18
GlifName: E_acute
Width: 1200
VWidth: 0
Flags: W
LayerCount: 2
Fore
SplineSet
1127 228 m 257
 1060 0 l 257
 118 0 l 257
 175 231 l 257
 357 1263 l 257
 364 1500 l 257
 1314 1500 l 257
 1274 1272 l 257
 680 1272 l 257
 670 1134 l 257
 632 916 l 257
 1145 916 l 257
 1107 703 l 257
 594 703 l 257
 534 360 l 257
 503 228 l 257
 1127 228 l 257
850 1896 m 257
 1237 1928 l 257
 887 1600 l 257
 638 1600 l 257
 850 1896 l 257
EndSplineSet
EndChar
StartChar: Ecircumflex
Encoding: 19 202 19
GlifName: E_circumflex
Width: 1200
VWidth: 0
Flags: W
LayerCount: 2
Fore
SplineSet
1127 228 m 257
 1060 0 l 257
 118 0 l 257
 175 231 l 257
 357 1263 l 257
 364 1500 l 257
 1314 1500 l 257
 1274 1272 l 257
 680 1272 l 257
 670 1134 l 257
 632 916 l 257
 1145 916 l 257
 1107 703 l 257
 594 703 l 257
 534 360 l 257
 503 228 l 257
 1127 228 l 257
1180 1620 m 257
 965 1620 l 257
 913 1723 l 257
 905 1850 l 257
 853 1723 l 257
 754 1620 l 257
 524 1620 l 257
 745 1895 l 257
 1046 1924 l 257
 1180 1620 l 257
EndSplineSet
EndChar
StartChar: Otilde
Encoding: 64 213 64
GlifName: O_tilde
Width: 1600
VWidth: 0
Flags: W
LayerCount: 2
Fore
SplineSet
777 -17 m 257
 624 -11 624 -11 509 46.5 c 128
 394 104 394 104 321 204 c 128
 248 304 248 304 219 442.5 c 128
 190 581 190 581 209 750 c 257
 221 861 221 861 257 963 c 128
 293 1065 293 1065 349 1153 c 128
 405 1241 405 1241 479 1311.5 c 128
 553 1382 553 1382 642 1430.5 c 128
 731 1479 731 1479 833 1502 c 128
 935 1525 935 1525 1047 1517 c 257
 1206 1506 1206 1506 1321 1449.5 c 128
 1436 1393 1436 1393 1507 1295 c 128
 1578 1197 1578 1197 1605 1059.5 c 128
 1632 922 1632 922 1614 750 c 257
 1596 581 1596 581 1527.5 437.5 c 128
 1459 294 1459 294 1349.5 190.5 c 128
 1240 87 1240 87 1094.5 31.5 c 128
 949 -24 949 -24 777 -17 c 257
1275 721 m 257
 1284 830 1284 830 1280 925.5 c 128
 1276 1021 1276 1021 1247 1094.5 c 128
 1218 1168 1218 1168 1158.5 1214 c 128
 1099 1260 1099 1260 997 1269 c 257
 903 1277 903 1277 825 1238 c 128
 747 1199 747 1199 689.5 1129.5 c 128
 632 1060 632 1060 596 969 c 128
 560 878 560 878 549 783 c 257
 537 677 537 677 541 582 c 128
 545 487 545 487 574.5 413.5 c 128
 604 340 604 340 664 292 c 128
 724 244 724 244 825 231 c 257
 887 223 887 223 942.5 239 c 128
 998 255 998 255 1046.5 288 c 128
 1095 321 1095 321 1134.5 369.5 c 128
 1174 418 1174 418 1203.5 475 c 128
 1233 532 1233 532 1251.5 595 c 128
 1270 658 1270 658 1275 721 c 257
706 1627 m 257
 713 1669 713 1669 735.5 1717.5 c 128
 758 1766 758 1766 795 1805 c 128
 832 1844 832 1844 883.5 1867.5 c 128
 935 1891 935 1891 1002 1884 c 257
 1051 1879 1051 1879 1082.5 1864.5 c 128
 1114 1850 1114 1850 1138.5 1835 c 128
 1163 1820 1163 1820 1185.5 1810 c 128
 1208 1800 1208 1800 1238 1804 c 257
 1280 1809 1280 1809 1301 1833 c 128
 1322 1857 1322 1857 1335 1892 c 257
 1500 1882 l 257
 1489 1828 1489 1828 1466 1779 c 128
 1443 1730 1443 1730 1407 1693.5 c 128
 1371 1657 1371 1657 1321.5 1637 c 128
 1272 1617 1272 1617 1209 1620 c 257
 1164 1622 1164 1622 1133 1636.5 c 128
 1102 1651 1102 1651 1077.5 1666.5 c 128
 1053 1682 1053 1682 1029 1693 c 128
 1005 1704 1005 1704 974 1700 c 257
 939 1695 939 1695 919.5 1672.5 c 128
 900 1650 900 1650 887 1620 c 257
 706 1627 l 257
EndSplineSet
EndChar
StartChar: multiply
Encoding: 356 215 356
GlifName: multiply
Width: 1600
VWidth: 0
Flags: W
LayerCount: 2
Fore
SplineSet
490 119 m 257
 330 269 l 257
 760 633 l 257
 458 998 l 257
 672 1149 l 257
 920 847 l 257
 969 729 l 257
 1012 847 l 257
 1365 1149 l 257
 1525 998 l 257
 1096 633 l 257
 1397 269 l 257
 1183 119 l 257
 936 419 l 257
 887 538 l 257
 844 419 l 257
 490 119 l 257
EndSplineSet
EndChar
StartChar: Thorn
Encoding: 81 222 81
GlifName: T_horn
Width: 1300
VWidth: 0
Flags: W
LayerCount: 2
Fore
SplineSet
384 1500 m 257
 735 1500 l 257
 702 1311 l 257
 816 1311 l 257
 856 1305 856 1305 904 1295 c 128
 952 1285 952 1285 1000 1266 c 128
 1048 1247 1048 1247 1092 1217 c 128
 1136 1187 1136 1187 1168.5 1141 c 128
 1201 1095 1201 1095 1218.5 1031.5 c 128
 1236 968 1236 968 1230 882 c 257
 1223 776 1223 776 1187 682.5 c 128
 1151 589 1151 589 1077.5 520 c 128
 1004 451 1004 451 890 413 c 128
 776 375 776 375 614 381 c 257
 538 381 l 257
 471 0 l 257
 142 0 l 257
 365 1267 l 257
 384 1500 l 257
663 1093 m 257
 577 605 l 257
 681 605 l 257
 741 605 741 605 783 622.5 c 128
 825 640 825 640 853 675 c 128
 881 710 881 710 897 762 c 128
 913 814 913 814 921 882 c 257
 927 933 927 933 913.5 972 c 128
 900 1011 900 1011 874.5 1038 c 128
 849 1065 849 1065 815.5 1079 c 128
 782 1093 782 1093 748 1093 c 257
 663 1093 l 257
EndSplineSet
EndChar
StartChar: germandbls
Encoding: 291 223 291
GlifName: germandbls
Width: 1400
VWidth: 0
Flags: W
LayerCount: 2
Fore
SplineSet
466 -21 m 257
 140 5 l 257
 329 1073 l 257
 347 1188 347 1188 394 1270.5 c 128
 441 1353 441 1353 512.5 1404 c 128
 584 1455 584 1455 676 1475.5 c 128
 768 1496 768 1496 875 1489 c 257
 959 1483 959 1483 1031 1460 c 128
 1103 1437 1103 1437 1155 1393.5 c 128
 1207 1350 1207 1350 1234 1284 c 128
 1261 1218 1261 1218 1256 1127 c 257
 1253 1070 1253 1070 1232 1021 c 128
 1211 972 1211 972 1176 932 c 128
 1141 892 1141 892 1094 862 c 128
 1047 832 1047 832 992 811 c 257
 1041 795 1041 795 1087.5 762.5 c 128
 1134 730 1134 730 1168.5 685 c 128
 1203 640 1203 640 1221.5 584.5 c 128
 1240 529 1240 529 1234 466 c 257
 1225 374 1225 374 1193 303 c 128
 1161 232 1161 232 1113 179 c 128
 1065 126 1065 126 1004.5 89.5 c 128
 944 53 944 53 876.5 32 c 128
 809 11 809 11 738.5 3.5 c 128
 668 -4 668 -4 601 0 c 257
 559 224 l 257
 637 215 637 215 698.5 228.5 c 128
 760 242 760 242 803.5 273 c 128
 847 304 847 304 873 351 c 128
 899 398 899 398 906 457 c 257
 914 521 914 521 895.5 568 c 128
 877 615 877 615 846.5 643 c 128
 816 671 816 671 779.5 680.5 c 128
 743 690 743 690 715 681 c 257
 659 902 l 257
 719 905 719 905 769 918 c 128
 819 931 819 931 855.5 955.5 c 128
 892 980 892 980 913 1017.5 c 128
 934 1055 934 1055 935 1107 c 257
 937 1179 937 1179 909 1222 c 128
 881 1265 881 1265 834 1276 c 257
 800 1284 800 1284 772 1275 c 128
 744 1266 744 1266 723 1244 c 128
 702 1222 702 1222 688 1189.5 c 128
 674 1157 674 1157 667 1119 c 257
 466 -21 l 257
EndSplineSet
EndChar
StartChar: adieresis
Encoding: 106 228 106
GlifName: adieresis
Width: 1100
VWidth: 0
Flags: W
LayerCount: 2
Fore
SplineSet
839 885 m 257
 819 888 819 888 802 890 c 128
 785 892 785 892 778 893 c 257
 703 893 703 893 645.5 862 c 128
 588 831 588 831 547 779 c 128
 506 727 506 727 481.5 657.5 c 128
 457 588 457 588 449 510 c 257
 443 449 443 449 445.5 394.5 c 128
 448 340 448 340 459 298.5 c 128
 470 257 470 257 490.5 233 c 128
 511 209 511 209 540 209 c 257
 574 209 574 209 604.5 220.5 c 128
 635 232 635 232 661.5 250 c 128
 688 268 688 268 708.5 289 c 128
 729 310 729 310 744 329 c 257
 839 885 l 257
483 -16 m 257
 406 -15 406 -15 349 8.5 c 128
 292 32 292 32 251.5 72 c 128
 211 112 211 112 186.5 165.5 c 128
 162 219 162 219 150.5 280.5 c 128
 139 342 139 342 138.5 409 c 128
 138 476 138 476 147 542 c 257
 156 614 156 614 180 685 c 128
 204 756 204 756 243.5 820 c 128
 283 884 283 884 337.5 938.5 c 128
 392 993 392 993 462.5 1032.5 c 128
 533 1072 533 1072 620.5 1094.5 c 128
 708 1117 708 1117 812 1117 c 257
 873 1116 873 1116 935 1108 c 257
 989 1101 989 1101 1052 1086 c 128
 1115 1071 1115 1071 1173 1043 c 257
 1030 209 l 257
 1016 0 l 257
 694 0 l 257
 722 162 l 257
 567 -10 l 257
 556 -12 556 -12 538 -14.5 c 128
 520 -17 520 -17 483 -16 c 257
376 1234 m 257
 652 1234 l 257
 699 1500 l 257
 423 1500 l 257
 376 1234 l 257
776 1234 m 257
 1052 1234 l 257
 1099 1500 l 257
 823 1500 l 257
 776 1234 l 257
EndSplineSet
EndChar
StartChar: aring
Encoding: 114 229 114
GlifName: aring
Width: 1100
VWidth: 0
Flags: W
LayerCount: 2
Fore
SplineSet
839 885 m 257
 819 888 819 888 802 890 c 128
 785 892 785 892 778 893 c 257
 703 893 703 893 645.5 862 c 128
 588 831 588 831 547 779 c 128
 506 727 506 727 481.5 657.5 c 128
 457 588 457 588 449 510 c 257
 443 449 443 449 445.5 394.5 c 128
 448 340 448 340 459 298.5 c 128
 470 257 470 257 490.5 233 c 128
 511 209 511 209 540 209 c 257
 574 209 574 209 604.5 220.5 c 128
 635 232 635 232 661.5 250 c 128
 688 268 688 268 708.5 289 c 128
 729 310 729 310 744 329 c 257
 839 885 l 257
483 -16 m 257
 406 -15 406 -15 349 8.5 c 128
 292 32 292 32 251.5 72 c 128
 211 112 211 112 186.5 165.5 c 128
 162 219 162 219 150.5 280.5 c 128
 139 342 139 342 138.5 409 c 128
 138 476 138 476 147 542 c 257
 156 614 156 614 180 685 c 128
 204 756 204 756 243.5 820 c 128
 283 884 283 884 337.5 938.5 c 128
 392 993 392 993 462.5 1032.5 c 128
 533 1072 533 1072 620.5 1094.5 c 128
 708 1117 708 1117 812 1117 c 257
 873 1116 873 1116 935 1108 c 257
 989 1101 989 1101 1052 1086 c 128
 1115 1071 1115 1071 1173 1043 c 257
 1030 209 l 257
 1016 0 l 257
 694 0 l 257
 722 162 l 257
 567 -10 l 257
 556 -12 556 -12 538 -14.5 c 128
 520 -17 520 -17 483 -16 c 257
807 1612 m 257
 869 1605 869 1605 920 1582 c 128
 971 1559 971 1559 1006 1522 c 128
 1041 1485 1041 1485 1058 1435.5 c 128
 1075 1386 1075 1386 1069 1326 c 257
 1063 1267 1063 1267 1030 1212 c 128
 997 1157 997 1157 946.5 1116 c 128
 896 1075 896 1075 833.5 1053 c 128
 771 1031 771 1031 706 1040 c 257
 569 1058 569 1058 503 1133 c 128
 437 1208 437 1208 442 1326 c 257
 444 1386 444 1386 477 1441 c 128
 510 1496 510 1496 562 1536.5 c 128
 614 1577 614 1577 678 1598 c 128
 742 1619 742 1619 807 1612 c 257
776 1422 m 257
 754 1424 754 1424 732 1417 c 128
 710 1410 710 1410 692.5 1396.5 c 128
 675 1383 675 1383 664 1364.5 c 128
 653 1346 653 1346 652 1325 c 257
 651 1284 651 1284 673 1259 c 128
 695 1234 695 1234 743 1227 c 257
 764 1224 764 1224 785 1231.5 c 128
 806 1239 806 1239 823.5 1253 c 128
 841 1267 841 1267 852 1286 c 128
 863 1305 863 1305 865 1325 c 257
 869 1367 869 1367 844.5 1392 c 128
 820 1417 820 1417 776 1422 c 257
EndSplineSet
EndChar
StartChar: igrave
Encoding: 316 236 316
GlifName: igrave
Width: 600
VWidth: 0
Flags: W
LayerCount: 2
Fore
SplineSet
442 0 m 257
 136 0 l 257
 320 1049 l 257
 632 1081 l 257
 442 0 l 257
609 1237 m 257
 351 1237 l 257
 138 1528 l 257
 491 1562 l 257
 609 1237 l 257
EndSplineSet
EndChar
StartChar: idieresis
Encoding: 315 239 315
GlifName: idieresis
Width: 600
VWidth: 0
Flags: W
LayerCount: 2
Fore
SplineSet
442 0 m 257
 136 0 l 257
 320 1049 l 257
 632 1081 l 257
 442 0 l 257
217 1537 m 257
 493 1537 l 257
 446 1271 l 257
 170 1271 l 257
 217 1537 l 257
617 1537 m 257
 893 1537 l 257
 846 1271 l 257
 570 1271 l 257
 617 1537 l 257
EndSplineSet
EndChar
StartChar: ntilde
Encoding: 370 241 370
GlifName: ntilde
Width: 1200
VWidth: 0
Flags: W
LayerCount: 2
Fore
SplineSet
653 1126 m 257
 620 937 l 257
 736 1088 l 257
 770 1099 770 1099 805 1107 c 128
 840 1115 840 1115 875 1117 c 257
 929 1121 929 1121 967.5 1117.5 c 128
 1006 1114 1006 1114 1036 1102.5 c 128
 1066 1091 1066 1091 1090 1071.5 c 128
 1114 1052 1114 1052 1139 1024 c 257
 1166 993 1166 993 1176 953.5 c 128
 1186 914 1186 914 1186.5 873.5 c 128
 1187 833 1187 833 1181 794.5 c 128
 1175 756 1175 756 1170 727 c 257
 1042 0 l 257
 729 0 l 257
 862 757 l 257
 873 821 873 821 849.5 855 c 128
 826 889 826 889 787 900 c 257
 771 904 771 904 748.5 901.5 c 128
 726 899 726 899 700 888.5 c 128
 674 878 674 878 647.5 860 c 128
 621 842 621 842 598 816 c 257
 455 0 l 257
 142 0 l 257
 334 1093 l 257
 653 1126 l 257
448 1247 m 257
 455 1289 455 1289 477.5 1337.5 c 128
 500 1386 500 1386 537 1425 c 128
 574 1464 574 1464 625.5 1487.5 c 128
 677 1511 677 1511 744 1504 c 257
 793 1499 793 1499 824.5 1484.5 c 128
 856 1470 856 1470 880.5 1455 c 128
 905 1440 905 1440 927.5 1430 c 128
 950 1420 950 1420 980 1424 c 257
 1022 1429 1022 1429 1043 1453 c 128
 1064 1477 1064 1477 1077 1512 c 257
 1242 1502 l 257
 1231 1448 1231 1448 1208 1399 c 128
 1185 1350 1185 1350 1149 1313.5 c 128
 1113 1277 1113 1277 1063.5 1257 c 128
 1014 1237 1014 1237 951 1240 c 257
 906 1242 906 1242 875 1256.5 c 128
 844 1271 844 1271 819.5 1286.5 c 128
 795 1302 795 1302 771 1313 c 128
 747 1324 747 1324 716 1320 c 257
 681 1315 681 1315 661.5 1292.5 c 128
 642 1270 642 1270 629 1240 c 257
 448 1247 l 257
EndSplineSet
EndChar
StartChar: otilde
Encoding: 396 245 396
GlifName: otilde
Width: 1200
VWidth: 0
Flags: W
LayerCount: 2
Fore
SplineSet
600 -17 m 257
 481 -7 481 -7 395 36.5 c 128
 309 80 309 80 256 153 c 128
 203 226 203 226 182.5 327 c 128
 162 428 162 428 173 553 c 257
 184 676 184 676 237 783 c 128
 290 890 290 890 373.5 968 c 128
 457 1046 457 1046 566.5 1086.5 c 128
 676 1127 676 1127 799 1117 c 257
 918 1107 918 1107 1004 1063.5 c 128
 1090 1020 1090 1020 1143.5 947.5 c 128
 1197 875 1197 875 1218 775.5 c 128
 1239 676 1239 676 1228 553 c 257
 1221 471 1221 471 1194 394.5 c 128
 1167 318 1167 318 1124.5 252.5 c 128
 1082 187 1082 187 1025.5 134 c 128
 969 81 969 81 901.5 45 c 128
 834 9 834 9 758 -7.5 c 128
 682 -24 682 -24 600 -17 c 257
911 528 m 257
 918 598 918 598 917.5 661.5 c 128
 917 725 917 725 901.5 774.5 c 128
 886 824 886 824 852 856.5 c 128
 818 889 818 889 757 897 c 257
 706 904 706 904 659.5 877.5 c 128
 613 851 613 851 577 803.5 c 128
 541 756 541 756 517.5 695 c 128
 494 634 494 634 489 571 c 257
 483 500 483 500 484.5 436.5 c 128
 486 373 486 373 501.5 323.5 c 128
 517 274 517 274 550.5 242 c 128
 584 210 584 210 641 203 c 257
 696 196 696 196 742.5 223 c 128
 789 250 789 250 824.5 297 c 128
 860 344 860 344 882.5 405 c 128
 905 466 905 466 911 528 c 257
418 1247 m 257
 425 1289 425 1289 447.5 1337.5 c 128
 470 1386 470 1386 507 1425 c 128
 544 1464 544 1464 595.5 1487.5 c 128
 647 1511 647 1511 714 1504 c 257
 763 1499 763 1499 794.5 1484.5 c 128
 826 1470 826 1470 850.5 1455 c 128
 875 1440 875 1440 897.5 1430 c 128
 920 1420 920 1420 950 1424 c 257
 992 1429 992 1429 1013 1453 c 128
 1034 1477 1034 1477 1047 1512 c 257
 1212 1502 l 257
 1201 1448 1201 1448 1178 1399 c 128
 1155 1350 1155 1350 1119 1313.5 c 128
 1083 1277 1083 1277 1033.5 1257 c 128
 984 1237 984 1237 921 1240 c 257
 876 1242 876 1242 845 1256.5 c 128
 814 1271 814 1271 789.5 1286.5 c 128
 765 1302 765 1302 741 1313 c 128
 717 1324 717 1324 686 1320 c 257
 651 1315 651 1315 631.5 1292.5 c 128
 612 1270 612 1270 599 1240 c 257
 418 1247 l 257
EndSplineSet
EndChar
StartChar: odieresis
Encoding: 376 246 376
GlifName: odieresis
Width: 1200
VWidth: 0
Flags: W
LayerCount: 2
Fore
SplineSet
600 -17 m 257
 481 -7 481 -7 395 36.5 c 128
 309 80 309 80 256 153 c 128
 203 226 203 226 182.5 327 c 128
 162 428 162 428 173 553 c 257
 184 676 184 676 237 783 c 128
 290 890 290 890 373.5 968 c 128
 457 1046 457 1046 566.5 1086.5 c 128
 676 1127 676 1127 799 1117 c 257
 918 1107 918 1107 1004 1063.5 c 128
 1090 1020 1090 1020 1143.5 947.5 c 128
 1197 875 1197 875 1218 775.5 c 128
 1239 676 1239 676 1228 553 c 257
 1221 471 1221 471 1194 394.5 c 128
 1167 318 1167 318 1124.5 252.5 c 128
 1082 187 1082 187 1025.5 134 c 128
 969 81 969 81 901.5 45 c 128
 834 9 834 9 758 -7.5 c 128
 682 -24 682 -24 600 -17 c 257
911 528 m 257
 918 598 918 598 917.5 661.5 c 128
 917 725 917 725 901.5 774.5 c 128
 886 824 886 824 852 856.5 c 128
 818 889 818 889 757 897 c 257
 706 904 706 904 659.5 877.5 c 128
 613 851 613 851 577 803.5 c 128
 541 756 541 756 517.5 695 c 128
 494 634 494 634 489 571 c 257
 483 500 483 500 484.5 436.5 c 128
 486 373 486 373 501.5 323.5 c 128
 517 274 517 274 550.5 242 c 128
 584 210 584 210 641 203 c 257
 696 196 696 196 742.5 223 c 128
 789 250 789 250 824.5 297 c 128
 860 344 860 344 882.5 405 c 128
 905 466 905 466 911 528 c 257
440 1234 m 257
 716 1234 l 257
 763 1500 l 257
 487 1500 l 257
 440 1234 l 257
840 1234 m 257
 1116 1234 l 257
 1163 1500 l 257
 887 1500 l 257
 840 1234 l 257
EndSplineSet
EndChar
StartChar: divide
Encoding: 224 247 224
GlifName: divide
Width: 1100
VWidth: 0
Flags: W
LayerCount: 2
Fore
SplineSet
264 724 m 257
 1164 724 l 257
 1164 569 l 257
 264 569 l 257
 264 724 l 257
641 959 m 257
 643 992 643 992 660 1022 c 128
 677 1052 677 1052 703 1074 c 128
 729 1096 729 1096 760.5 1108 c 128
 792 1120 792 1120 824 1117 c 257
 889 1109 889 1109 923.5 1067 c 128
 958 1025 958 1025 954 959 c 257
 952 926 952 926 935 896.5 c 128
 918 867 918 867 892.5 844.5 c 128
 867 822 867 822 835 810 c 128
 803 798 803 798 771 800 c 257
 738 802 738 802 712.5 815 c 128
 687 828 687 828 670.5 849.5 c 128
 654 871 654 871 646.5 899 c 128
 639 927 639 927 641 959 c 257
526 303 m 257
 528 336 528 336 545 366 c 128
 562 396 562 396 588 418 c 128
 614 440 614 440 645.5 452 c 128
 677 464 677 464 709 461 c 257
 774 453 774 453 808.5 411 c 128
 843 369 843 369 839 303 c 257
 837 270 837 270 820 240.5 c 128
 803 211 803 211 777.5 188.5 c 128
 752 166 752 166 720 154 c 128
 688 142 688 142 656 144 c 257
 623 146 623 146 597.5 159 c 128
 572 172 572 172 555.5 193.5 c 128
 539 215 539 215 531.5 243 c 128
 524 271 524 271 526 303 c 257
EndSplineSet
EndChar
StartChar: uacute
Encoding: 543 250 543
GlifName: uacute
Width: 1200
VWidth: 0
Flags: W
LayerCount: 2
Fore
SplineSet
921 1093 m 257
 1240 1126 l 257
 1042 0 l 257
 729 0 l 257
 757 163 l 257
 619 11 l 257
 598 2 598 2 563.5 -7.5 c 128
 529 -17 529 -17 476 -17 c 257
 386 -17 386 -17 328 17 c 128
 270 51 270 51 239 107.5 c 128
 208 164 208 164 202 236 c 128
 196 308 196 308 210 384 c 257
 335 1093 l 257
 654 1126 l 257
 523 384 l 257
 515 352 515 352 515.5 322 c 128
 516 292 516 292 524.5 267.5 c 128
 533 243 533 243 550.5 225 c 128
 568 207 568 207 595 200 c 257
 614 195 614 195 637 198.5 c 128
 660 202 660 202 684.5 212.5 c 128
 709 223 709 223 733 239.5 c 128
 757 256 757 256 777 276 c 257
 921 1093 l 257
868 1496 m 257
 1255 1528 l 257
 905 1200 l 257
 656 1200 l 257
 868 1496 l 257
EndSplineSet
EndChar
StartChar: thorn
Encoding: 519 254 519
GlifName: thorn
Width: 1200
VWidth: 0
Flags: W
LayerCount: 2
Fore
SplineSet
908 528 m 257
 919 592 919 592 917 656 c 128
 915 720 915 720 897 772 c 128
 879 824 879 824 844 858 c 128
 809 892 809 892 754 897 c 257
 699 902 699 902 653 875 c 128
 607 848 607 848 572.5 801 c 128
 538 754 538 754 515.5 693.5 c 128
 493 633 493 633 486 571 c 257
 478 502 478 502 479 439 c 128
 480 376 480 376 496.5 326.5 c 128
 513 277 513 277 547 244 c 128
 581 211 581 211 638 203 c 257
 697 194 697 194 743 221.5 c 128
 789 249 789 249 822 297 c 128
 855 345 855 345 876 406.5 c 128
 897 468 897 468 908 528 c 257
671 1527 m 257
 613 1201 l 257
 501 1030 l 257
 696 1109 l 257
 721 1113 721 1113 745.5 1115 c 128
 770 1117 770 1117 796 1117 c 257
 910 1117 910 1117 996 1075 c 128
 1082 1033 1082 1033 1137 958 c 128
 1192 883 1192 883 1215.5 779.5 c 128
 1239 676 1239 676 1228 553 c 257
 1221 474 1221 474 1195 399 c 128
 1169 324 1169 324 1127.5 258.5 c 128
 1086 193 1086 193 1030 139 c 128
 974 85 974 85 906 48 c 128
 838 11 838 11 760 -6.5 c 128
 682 -24 682 -24 597 -17 c 257
 571 -15 571 -15 546.5 -14 c 128
 522 -13 522 -13 499 -9 c 257
 333 75 l 257
 384 -99 l 257
 334 -380 l 257
 2 -380 l 257
 333 1493 l 257
 671 1527 l 257
EndSplineSet
EndChar
StartChar: Scaron
Encoding: 73 352 73
GlifName: S_caron
Width: 1100
VWidth: 0
Flags: W
LayerCount: 2
Fore
SplineSet
1059 1178 m 257
 1021 1205 1021 1205 988.5 1224.5 c 128
 956 1244 956 1244 926 1257 c 128
 896 1270 896 1270 867 1276.5 c 128
 838 1283 838 1283 808 1284 c 257
 771 1285 771 1285 731.5 1279 c 128
 692 1273 692 1273 660 1255 c 128
 628 1237 628 1237 607 1205.5 c 128
 586 1174 586 1174 586 1125 c 257
 586 1083 586 1083 601 1053.5 c 128
 616 1024 616 1024 642 1000 c 128
 668 976 668 976 702 955.5 c 128
 736 935 736 935 775 911 c 257
 813 887 813 887 854.5 862.5 c 128
 896 838 896 838 935.5 808.5 c 128
 975 779 975 779 1009.5 744 c 128
 1044 709 1044 709 1068.5 665.5 c 128
 1093 622 1093 622 1105 568.5 c 128
 1117 515 1117 515 1110 448 c 257
 1102 366 1102 366 1070.5 298 c 128
 1039 230 1039 230 991 177 c 128
 943 124 943 124 881.5 85.5 c 128
 820 47 820 47 751.5 22.5 c 128
 683 -2 683 -2 611.5 -12 c 128
 540 -22 540 -22 472 -17 c 257
 345 -9 345 -9 236.5 26.5 c 128
 128 62 128 62 50 121 c 257
 228 348 l 257
 255 326 255 326 284 306.5 c 128
 313 287 313 287 347.5 270.5 c 128
 382 254 382 254 422.5 242.5 c 128
 463 231 463 231 512 226 c 257
 556 221 556 221 604 231.5 c 128
 652 242 652 242 692.5 267.5 c 128
 733 293 733 293 759.5 333.5 c 128
 786 374 786 374 786 430 c 257
 786 485 786 485 765 526.5 c 128
 744 568 744 568 710.5 600 c 128
 677 632 677 632 636 656.5 c 128
 595 681 595 681 555 703 c 257
 490 738 490 738 432.5 774.5 c 128
 375 811 375 811 333 856 c 128
 291 901 291 901 268.5 959 c 128
 246 1017 246 1017 250 1097 c 257
 253 1165 253 1165 280 1224 c 128
 307 1283 307 1283 349.5 1331.5 c 128
 392 1380 392 1380 448.5 1416.5 c 128
 505 1453 505 1453 567.5 1477 c 128
 630 1501 630 1501 696 1511 c 128
 762 1521 762 1521 825 1517 c 257
 942 1509 942 1509 1043.5 1473.5 c 128
 1145 1438 1145 1438 1243 1369 c 257
 1059 1178 l 257
1021 1595 m 257
 730 1624 l 257
 605 1899 l 257
 835 1899 l 257
 894 1806 l 257
 908 1679 l 257
 964 1806 l 257
 1056 1899 l 257
 1261 1899 l 257
 1021 1595 l 257
EndSplineSet
EndChar
StartChar: caron
Encoding: 178 711 178
GlifName: caron
Width: 1100
VWidth: 0
Flags: W
LayerCount: 2
Fore
SplineSet
842 1215 m 257
 551 1244 l 257
 426 1519 l 257
 656 1519 l 257
 715 1426 l 257
 729 1299 l 257
 785 1426 l 257
 877 1519 l 257
 1082 1519 l 257
 842 1215 l 257
EndSplineSet
EndChar
StartChar: breve
Encoding: 172 728 172
GlifName: breve
Width: 1100
VWidth: 0
Flags: W
LayerCount: 2
Fore
SplineSet
634 1519 m 257
 632 1492 632 1492 642 1470 c 257
 650 1450 650 1450 670.5 1432.5 c 128
 691 1415 691 1415 732 1410 c 257
 779 1404 779 1404 807.5 1420 c 128
 836 1436 836 1436 851 1458 c 257
 869 1484 869 1484 875 1519 c 257
 1096 1519 l 257
 1097 1465 1097 1465 1067 1414.5 c 128
 1037 1364 1037 1364 983.5 1325.5 c 128
 930 1287 930 1287 858 1266.5 c 128
 786 1246 786 1246 705 1254 c 257
 616 1262 616 1262 555.5 1288 c 128
 495 1314 495 1314 460 1350.5 c 128
 425 1387 425 1387 414 1430.5 c 128
 403 1474 403 1474 412 1519 c 257
 634 1519 l 257
EndSplineSet
EndChar
StartChar: dotaccent
Encoding: 227 729 227
GlifName: dotaccent
Width: 600
VWidth: 0
Flags: W
LayerCount: 2
Fore
SplineSet
383 1500 m 257
 711 1500 l 257
 670 1269 l 257
 342 1269 l 257
 383 1500 l 257
EndSplineSet
EndChar
StartChar: ring
Encoding: 461 730 461
GlifName: ring
Width: 1100
VWidth: 0
Flags: W
LayerCount: 2
Fore
SplineSet
797 1682 m 257
 859 1675 859 1675 910 1652 c 128
 961 1629 961 1629 996 1592 c 128
 1031 1555 1031 1555 1048 1505.5 c 128
 1065 1456 1065 1456 1059 1396 c 257
 1053 1337 1053 1337 1020 1282 c 128
 987 1227 987 1227 936.5 1186 c 128
 886 1145 886 1145 823.5 1123 c 128
 761 1101 761 1101 696 1110 c 257
 559 1128 559 1128 493 1203 c 128
 427 1278 427 1278 432 1396 c 257
 434 1456 434 1456 467 1511 c 128
 500 1566 500 1566 552 1606.5 c 128
 604 1647 604 1647 668 1668 c 128
 732 1689 732 1689 797 1682 c 257
766 1492 m 257
 744 1494 744 1494 722 1487 c 128
 700 1480 700 1480 682.5 1466.5 c 128
 665 1453 665 1453 654 1434.5 c 128
 643 1416 643 1416 642 1395 c 257
 641 1354 641 1354 663 1329 c 128
 685 1304 685 1304 733 1297 c 257
 754 1294 754 1294 775 1301.5 c 128
 796 1309 796 1309 813.5 1323 c 128
 831 1337 831 1337 842 1356 c 128
 853 1375 853 1375 855 1395 c 257
 859 1437 859 1437 834.5 1462 c 128
 810 1487 810 1487 766 1492 c 257
EndSplineSet
EndChar
StartChar: tilde
Encoding: 527 732 527
GlifName: tilde
Width: 1100
VWidth: 0
Flags: W
LayerCount: 2
Fore
SplineSet
348 1307 m 257
 355 1349 355 1349 377.5 1397.5 c 128
 400 1446 400 1446 437 1485 c 128
 474 1524 474 1524 525.5 1547.5 c 128
 577 1571 577 1571 644 1564 c 257
 693 1559 693 1559 724.5 1544.5 c 128
 756 1530 756 1530 780.5 1515 c 128
 805 1500 805 1500 827.5 1490 c 128
 850 1480 850 1480 880 1484 c 257
 922 1489 922 1489 943 1513 c 128
 964 1537 964 1537 977 1572 c 257
 1142 1562 l 257
 1131 1508 1131 1508 1108 1459 c 128
 1085 1410 1085 1410 1049 1373.5 c 128
 1013 1337 1013 1337 963.5 1317 c 128
 914 1297 914 1297 851 1300 c 257
 806 1302 806 1302 775 1316.5 c 128
 744 1331 744 1331 719.5 1346.5 c 128
 695 1362 695 1362 671 1373 c 128
 647 1384 647 1384 616 1380 c 257
 581 1375 581 1375 561.5 1352.5 c 128
 542 1330 542 1330 529 1300 c 257
 348 1307 l 257
EndSplineSet
EndChar
StartChar: hungarumlaut
Encoding: 308 733 308
GlifName: hungarumlaut
Width: 1100
VWidth: 0
Flags: W
LayerCount: 2
Fore
SplineSet
599 1496 m 257
 934 1518 l 257
 581 1117 l 257
 352 1117 l 257
 599 1496 l 257
962 1496 m 257
 1297 1518 l 257
 944 1117 l 257
 715 1117 l 257
 962 1496 l 257
EndSplineSet
EndChar
StartChar: Gamma
Encoding: 32 915 32
GlifName: G_amma
Width: 1100
VWidth: 0
Flags: W
LayerCount: 2
Fore
SplineSet
670 1131 m 257
 471 0 l 257
 142 0 l 257
 365 1269 l 257
 387 1500 l 257
 1323 1500 l 257
 1285 1282 l 257
 685 1282 l 257
 670 1131 l 257
EndSplineSet
EndChar
StartChar: Deltagreek
Encoding: 16 916 16
GlifName: D_eltagreek
Width: 1500
VWidth: 0
Flags: W
LayerCount: 2
Fore
SplineSet
1510 0 m 257
 -52 0 l 257
 832 1494 l 257
 1146 1528 l 257
 1510 0 l 257
1077 230 m 257
 1211 178 l 257
 1132 330 l 257
 963 1061 l 257
 950 1265 l 257
 867 1061 l 257
 438 330 l 257
 302 178 l 257
 477 230 l 257
 1077 230 l 257
EndSplineSet
EndChar
StartChar: Epsilon
Encoding: 24 917 24
GlifName: E_psilon
Width: 1200
VWidth: 0
Flags: W
LayerCount: 2
Fore
SplineSet
1127 228 m 257
 1060 0 l 257
 118 0 l 257
 175 231 l 257
 357 1263 l 257
 364 1500 l 257
 1314 1500 l 257
 1274 1272 l 257
 680 1272 l 257
 670 1134 l 257
 632 916 l 257
 1145 916 l 257
 1107 703 l 257
 594 703 l 257
 534 360 l 257
 503 228 l 257
 1127 228 l 257
EndSplineSet
EndChar
StartChar: Iota
Encoding: 40 921 40
GlifName: I_ota
Width: 600
VWidth: 0
Flags: W
LayerCount: 2
Fore
SplineSet
126 0 m 257
 348 1263 l 257
 356 1494 l 257
 731 1525 l 257
 463 0 l 257
 126 0 l 257
EndSplineSet
EndChar
StartChar: Kappa
Encoding: 43 922 43
GlifName: K_appa
Width: 1200
VWidth: 0
Flags: W
LayerCount: 2
Fore
SplineSet
136 0 m 257
 358 1263 l 257
 366 1494 l 257
 740 1525 l 257
 654 1035 l 257
 1127 1500 l 257
 1495 1500 l 257
 890 900 l 257
 603 802 l 257
 848 716 l 257
 1252 0 l 257
 872 0 l 257
 567 540 l 257
 472 0 l 257
 136 0 l 257
EndSplineSet
EndChar
StartChar: Mu
Encoding: 47 924 47
GlifName: M_u
Width: 1800
VWidth: 0
Flags: W
LayerCount: 2
Fore
SplineSet
1062 799 m 257
 1513 1495 l 257
 1869 1526 l 257
 1600 0 l 257
 1282 0 l 257
 1379 551 l 257
 1513 1060 l 257
 1509 1061 l 257
 1260 581 l 257
 949 123 l 257
 766 123 l 257
 630 536 l 257
 553 1060 l 257
 547 1059 l 257
 499 498 l 257
 412 0 l 257
 100 0 l 257
 322 1263 l 257
 333 1494 l 257
 697 1524 l 257
 914 801 l 257
 935 498 l 257
 1062 799 l 257
EndSplineSet
EndChar
StartChar: Nu
Encoding: 52 925 52
GlifName: N_u
Width: 1500
VWidth: 0
Flags: W
LayerCount: 2
Fore
SplineSet
1577 1527 m 257
 1308 0 l 257
 1007 0 l 257
 712 700 l 257
 624 1038 l 257
 617 1037 l 257
 594 691 l 257
 473 0 l 257
 146 0 l 257
 368 1263 l 257
 376 1494 l 257
 722 1524 l 257
 1021 810 l 257
 1107 449 l 257
 1113 450 l 257
 1129 816 l 257
 1249 1493 l 257
 1577 1527 l 257
EndSplineSet
EndChar
StartChar: Xi
Encoding: 95 926 95
GlifName: X_i
Width: 1200
VWidth: 0
Flags: W
LayerCount: 2
Fore
SplineSet
310 916 m 257
 1182 916 l 257
 1140 675 l 257
 268 675 l 257
 310 916 l 257
96 241 m 257
 1157 241 l 257
 1115 0 l 257
 54 0 l 257
 96 241 l 257
318 1500 m 257
 1379 1500 l 257
 1336 1259 l 257
 275 1259 l 257
 318 1500 l 257
EndSplineSet
EndChar
StartChar: Rho
Encoding: 71 929 71
GlifName: R_ho
Width: 1200
VWidth: 0
Flags: W
LayerCount: 2
Fore
SplineSet
470 0 m 257
 134 0 l 257
 356 1262 l 257
 356 1478 l 257
 402 1485 402 1485 457 1491.5 c 128
 512 1498 512 1498 567 1502 c 128
 622 1506 622 1506 672.5 1508.5 c 128
 723 1511 723 1511 762 1511 c 257
 835 1511 835 1511 906.5 1502 c 128
 978 1493 978 1493 1042 1473 c 128
 1106 1453 1106 1453 1159.5 1420 c 128
 1213 1387 1213 1387 1250.5 1340 c 128
 1288 1293 1288 1293 1306 1230 c 128
 1324 1167 1324 1167 1317 1086 c 257
 1305 948 1305 948 1245 855 c 128
 1185 762 1185 762 1087 704.5 c 128
 989 647 989 647 858 621.5 c 128
 727 596 727 596 574 593 c 257
 470 0 l 257
669 1130 m 257
 611 804 l 257
 693 806 693 806 759.5 822 c 128
 826 838 826 838 874 870.5 c 128
 922 903 922 903 950 954.5 c 128
 978 1006 978 1006 983 1078 c 257
 987 1139 987 1139 967.5 1182.5 c 128
 948 1226 948 1226 915.5 1253 c 128
 883 1280 883 1280 844 1292.5 c 128
 805 1305 805 1305 769 1305 c 257
 752 1305 752 1305 729 1304 c 128
 706 1303 706 1303 683 1300 c 257
 669 1130 l 257
EndSplineSet
EndChar
StartChar: Sigma
Encoding: 75 931 75
GlifName: S_igma
Width: 1200
VWidth: 0
Flags: W
LayerCount: 2
Fore
SplineSet
1002 699 m 257
 552 300 l 257
 405 200 l 257
 568 217 l 257
 1174 217 l 257
 1136 0 l 257
 24 0 l 257
 85 216 l 257
 624 690 l 257
 845 750 l 257
 645 810 l 257
 273 1284 l 257
 288 1500 l 257
 1400 1500 l 257
 1362 1283 l 257
 756 1283 l 257
 599 1300 l 257
 711 1200 l 257
 1020 801 l 257
 1002 699 l 257
EndSplineSet
EndChar
StartChar: Upsilon
Encoding: 90 933 90
GlifName: U_psilon
Width: 1200
VWidth: 0
Flags: W
LayerCount: 2
Fore
SplineSet
711 1143 m 257
 753 773 l 257
 876 1143 l 257
 1121 1500 l 257
 1451 1500 l 257
 868 650 l 257
 754 0 l 257
 418 0 l 257
 532 650 l 257
 252 1492 l 257
 586 1525 l 257
 711 1143 l 257
EndSplineSet
EndChar
StartChar: Phi
Encoding: 66 934 66
GlifName: P_hi
Width: 1400
VWidth: 0
Flags: W
LayerCount: 2
Fore
SplineSet
550 204 m 257
 456 230 456 230 380 274 c 128
 304 318 304 318 252 384 c 128
 200 450 200 450 174.5 540.5 c 128
 149 631 149 631 155 750 c 257
 161 864 161 864 212.5 959.5 c 128
 264 1055 264 1055 345.5 1126 c 128
 427 1197 427 1197 530.5 1241 c 128
 634 1285 634 1285 743 1296 c 257
 778 1493 l 257
 1115 1527 l 257
 1074 1296 l 257
 1158 1279 1158 1279 1233.5 1236 c 128
 1309 1193 1309 1193 1364 1124 c 128
 1419 1055 1419 1055 1449 961 c 128
 1479 867 1479 867 1473 750 c 257
 1467 635 1467 635 1418.5 542 c 128
 1370 449 1370 449 1290.5 380 c 128
 1211 311 1211 311 1105.5 266.5 c 128
 1000 222 1000 222 881 204 c 257
 846 0 l 257
 515 0 l 257
 550 204 l 257
1181 750 m 257
 1192 801 1192 801 1185.5 853.5 c 128
 1179 906 1179 906 1159 951.5 c 128
 1139 997 1139 997 1107 1030.5 c 128
 1075 1064 1075 1064 1035 1076 c 257
 920 423 l 257
 1012 448 1012 448 1082 531.5 c 128
 1152 615 1152 615 1181 750 c 257
442 730 m 257
 438 607 438 607 478 531.5 c 128
 518 456 518 456 589 423 c 257
 704 1076 l 257
 652 1063 652 1063 605.5 1029 c 128
 559 995 559 995 523 947.5 c 128
 487 900 487 900 465.5 844 c 128
 444 788 444 788 442 730 c 257
EndSplineSet
EndChar
StartChar: Chi
Encoding: 14 935 14
GlifName: C_hi
Width: 1300
VWidth: 0
Flags: W
LayerCount: 2
Fore
SplineSet
766 375 m 257
 712 592 l 257
 620 400 l 257
 310 0 l 257
 -24 0 l 257
 595 797 l 257
 299 1492 l 257
 642 1524 l 257
 780 1198 l 257
 834 962 l 257
 910 1154 l 257
 1177 1500 l 257
 1513 1500 l 257
 949 775 l 257
 1278 0 l 257
 924 0 l 257
 766 375 l 257
EndSplineSet
EndChar
StartChar: Omegagreek
Encoding: 60 937 60
GlifName: O_megagreek
Width: 1600
VWidth: 0
Flags: W
LayerCount: 2
Fore
SplineSet
94 228 m 257
 388 228 l 257
 264 308 l 257
 247 338 247 338 233.5 381 c 128
 220 424 220 424 212 482 c 128
 204 540 204 540 203 612.5 c 128
 202 685 202 685 211 774 c 257
 229 949 229 949 297.5 1092 c 128
 366 1235 366 1235 475.5 1333 c 128
 585 1431 585 1431 730.5 1479.5 c 128
 876 1528 876 1528 1047 1516 c 257
 1217 1504 1217 1504 1336.5 1441 c 128
 1456 1378 1456 1378 1527 1278.5 c 128
 1598 1179 1598 1179 1621 1049.5 c 128
 1644 920 1644 920 1620 774 c 257
 1606 687 1606 687 1580.5 614.5 c 128
 1555 542 1555 542 1525.5 484 c 128
 1496 426 1496 426 1465.5 383 c 128
 1435 340 1435 340 1410 312 c 257
 1252 228 l 257
 1544 228 l 257
 1504 0 l 257
 845 0 l 257
 887 243 l 257
 967 264 967 264 1033.5 312 c 128
 1100 360 1100 360 1150.5 426 c 128
 1201 492 1201 492 1234 573.5 c 128
 1267 655 1267 655 1279 744 c 257
 1294 850 1294 850 1290 944 c 128
 1286 1038 1286 1038 1255 1109.5 c 128
 1224 1181 1224 1181 1162 1226 c 128
 1100 1271 1100 1271 999 1279 c 257
 902 1287 902 1287 823.5 1249.5 c 128
 745 1212 745 1212 688 1145 c 128
 631 1078 631 1078 596.5 989.5 c 128
 562 901 562 901 553 807 c 257
 543 703 543 703 548.5 616.5 c 128
 554 530 554 530 578 460 c 128
 602 390 602 390 645.5 335.5 c 128
 689 281 689 281 755 241 c 257
 713 0 l 257
 54 0 l 257
 94 228 l 257
EndSplineSet
EndChar
StartChar: alpha
Encoding: 110 945 110
GlifName: alpha
Width: 1400
VWidth: 0
Flags: W
LayerCount: 2
Fore
SplineSet
911 528 m 257
 923 596 923 596 919.5 664 c 128
 916 732 916 732 896 787 c 128
 876 842 876 842 837 878 c 128
 798 914 798 914 740 917 c 257
 677 921 677 921 626.5 890.5 c 128
 576 860 576 860 539 810 c 128
 502 760 502 760 479 696.5 c 128
 456 633 456 633 449 571 c 257
 441 502 441 502 444.5 436 c 128
 448 370 448 370 467 316 c 128
 486 262 486 262 523 226 c 128
 560 190 560 190 618 183 c 257
 673 176 673 176 721.5 206 c 128
 770 236 770 236 808.5 287 c 128
 847 338 847 338 873.5 402 c 128
 900 466 900 466 911 528 c 257
935 176 m 257
 852 56 l 257
 734 -29 734 -29 580 -17 c 257
 465 -8 465 -8 381.5 36.5 c 128
 298 81 298 81 246 155 c 128
 194 229 194 229 173.5 330 c 128
 153 431 153 431 163 553 c 257
 173 676 173 676 221.5 780.5 c 128
 270 885 270 885 350 961 c 128
 430 1037 430 1037 539 1079 c 128
 648 1121 648 1121 779 1117 c 257
 853 1115 853 1115 913.5 1099 c 128
 974 1083 974 1083 1028 1051 c 257
 1068 931 l 257
 1129 1055 l 257
 1158 1071 1158 1071 1189 1087.5 c 128
 1220 1104 1220 1104 1264 1122 c 257
 1370 962 l 257
 1282 904 1282 904 1265 829 c 257
 1255 787 1255 787 1241.5 719 c 128
 1228 651 1228 651 1211 552 c 257
 1205 518 1205 518 1199 477.5 c 128
 1193 437 1193 437 1188.5 396.5 c 128
 1184 356 1184 356 1182 318 c 128
 1180 280 1180 280 1183.5 251 c 128
 1187 222 1187 222 1196 204.5 c 128
 1205 187 1205 187 1222 187 c 257
 1243 187 1243 187 1258.5 192 c 128
 1274 197 1274 197 1282 203 c 257
 1329 35 l 257
 1272 10 1272 10 1222.5 -3.5 c 128
 1173 -17 1173 -17 1130 -17 c 257
 1070 -17 1070 -17 1025.5 5 c 128
 981 27 981 27 952 52 c 257
 935 176 l 257
EndSplineSet
EndChar
StartChar: beta
Encoding: 147 946 147
GlifName: beta
Width: 1200
VWidth: 0
Flags: W
LayerCount: 2
Fore
SplineSet
599 -17 m 257
 564 -15 564 -15 530.5 -13 c 128
 497 -11 497 -11 468 -7 c 257
 377 -527 l 257
 58 -500 l 257
 341 1101 l 257
 360 1215 360 1215 408.5 1298.5 c 128
 457 1382 457 1382 529 1434.5 c 128
 601 1487 601 1487 693 1507.5 c 128
 785 1528 785 1528 890 1517 c 257
 968 1509 968 1509 1036 1484.5 c 128
 1104 1460 1104 1460 1153 1416.5 c 128
 1202 1373 1202 1373 1229 1308 c 128
 1256 1243 1256 1243 1252 1155 c 257
 1250 1109 1250 1109 1234 1068 c 128
 1218 1027 1218 1027 1194 991.5 c 128
 1170 956 1170 956 1140.5 925.5 c 128
 1111 895 1111 895 1081 871 c 257
 866 809 l 257
 1054 784 l 257
 1089 767 1089 767 1116.5 746.5 c 128
 1144 726 1144 726 1163 701 c 257
 1182 677 1182 677 1193 652.5 c 128
 1204 628 1204 628 1210 600 c 128
 1216 572 1216 572 1218 537.5 c 128
 1220 503 1220 503 1220 460 c 257
 1220 409 1220 409 1205.5 352.5 c 128
 1191 296 1191 296 1160 241 c 128
 1129 186 1129 186 1080 136.5 c 128
 1031 87 1031 87 962 51 c 128
 893 15 893 15 803 -4 c 128
 713 -23 713 -23 599 -17 c 257
498 211 m 257
 520 199 520 199 549.5 191.5 c 128
 579 184 579 184 608 183 c 257
 680 182 680 182 735 202.5 c 128
 790 223 790 223 827.5 259.5 c 128
 865 296 865 296 886 345 c 128
 907 394 907 394 911 451 c 257
 920 574 920 574 871.5 637 c 128
 823 700 823 700 723 700 c 257
 668 900 l 257
 709 898 709 898 758 909 c 128
 807 920 807 920 849 948 c 128
 891 976 891 976 919.5 1021.5 c 128
 948 1067 948 1067 950 1135 c 257
 952 1207 952 1207 923.5 1254.5 c 128
 895 1302 895 1302 832 1317 c 257
 803 1324 803 1324 776 1315 c 128
 749 1306 749 1306 726 1284 c 128
 703 1262 703 1262 686.5 1227 c 128
 670 1192 670 1192 663 1147 c 257
 498 211 l 257
EndSplineSet
EndChar
StartChar: gamma
Encoding: 290 947 290
GlifName: gamma
Width: 1100
VWidth: 0
Flags: W
LayerCount: 2
Fore
SplineSet
150 1116 m 257
 207 1127 207 1127 266 1119 c 128
 325 1111 325 1111 376 1086 c 128
 427 1061 427 1061 463 1020.5 c 128
 499 980 499 980 509 927 c 257
 564 641 l 257
 569 220 l 257
 723 643 l 257
 971 1095 l 257
 1276 1124 l 257
 685 21 l 257
 593 -500 l 257
 285 -500 l 257
 372 -7 l 257
 215 834 l 257
 209 864 209 864 192.5 881.5 c 128
 176 899 176 899 159 907 c 257
 139 917 139 917 116 920 c 257
 150 1116 l 257
EndSplineSet
EndChar
StartChar: eta
Encoding: 255 951 255
GlifName: eta
Width: 1200
VWidth: 0
Flags: W
LayerCount: 2
Fore
SplineSet
457 0 m 257
 144 0 l 257
 336 1093 l 257
 655 1126 l 257
 645 1067 l 257
 697 1087 697 1087 758.5 1098.5 c 128
 820 1110 820 1110 882 1116 c 257
 941 1122 941 1122 985.5 1106 c 128
 1030 1090 1030 1090 1061.5 1060.5 c 128
 1093 1031 1093 1031 1112.5 990.5 c 128
 1132 950 1132 950 1141.5 905.5 c 128
 1151 861 1151 861 1150.5 817 c 128
 1150 773 1150 773 1142 736 c 257
 924 -500 l 257
 611 -500 l 257
 834 761 l 257
 848 843 848 843 839 880 c 128
 830 917 830 917 786 917 c 257
 769 917 769 917 747 910.5 c 128
 725 904 725 904 701.5 893.5 c 128
 678 883 678 883 653 869 c 128
 628 855 628 855 605 841 c 257
 457 0 l 257
EndSplineSet
EndChar
StartChar: iota
Encoding: 323 953 323
GlifName: iota
Width: 700
VWidth: 0
Flags: W
LayerCount: 2
Fore
SplineSet
291 874 m 257
 308 1093 l 257
 649 1125 l 257
 521 400 l 257
 514 362 514 362 508.5 325.5 c 128
 503 289 503 289 502.5 260 c 128
 502 231 502 231 508.5 213 c 128
 515 195 515 195 533 195 c 257
 577 195 577 195 610 209 c 257
 676 35 l 257
 660 26 660 26 636.5 17.5 c 128
 613 9 613 9 585.5 2 c 128
 558 -5 558 -5 529.5 -10 c 128
 501 -15 501 -15 476 -17 c 257
 403 -22 403 -22 352.5 -7 c 128
 302 8 302 8 268.5 38 c 128
 235 68 235 68 217.5 110.5 c 128
 200 153 200 153 194.5 202.5 c 128
 189 252 189 252 193.5 306 c 128
 198 360 198 360 209 413 c 257
 291 874 l 257
EndSplineSet
EndChar
StartChar: kappa
Encoding: 327 954 327
GlifName: kappa
Width: 1000
VWidth: 0
Flags: W
LayerCount: 2
Fore
SplineSet
144 0 m 257
 300 890 l 257
 314 1093 l 257
 626 1125 l 257
 564 774 l 257
 861 1095 l 257
 1189 1133 l 257
 737 670 l 257
 550 600 l 257
 712 530 l 257
 1026 0 l 257
 717 0 l 257
 499 405 l 257
 428 0 l 257
 144 0 l 257
EndSplineSet
EndChar
StartChar: lambda
Encoding: 329 955 329
GlifName: lambda
Width: 1100
VWidth: 0
Flags: W
LayerCount: 2
Fore
SplineSet
797 0 m 257
 629 452 l 257
 550 875 l 257
 470 454 l 257
 313 0 l 257
 0 0 l 257
 426 1148 l 257
 417 1192 417 1192 395 1231.5 c 128
 373 1271 373 1271 347 1300.5 c 128
 321 1330 321 1330 295 1347.5 c 128
 269 1365 269 1365 252 1365 c 257
 238 1365 238 1365 226.5 1362.5 c 128
 215 1360 215 1360 203 1354 c 128
 191 1348 191 1348 177.5 1339 c 128
 164 1330 164 1330 145 1317 c 257
 26 1475 l 257
 84 1525 84 1525 149.5 1553 c 128
 215 1581 215 1581 282 1581 c 257
 338 1581 338 1581 386 1560 c 128
 434 1539 434 1539 475 1503 c 128
 516 1467 516 1467 550.5 1419 c 128
 585 1371 585 1371 614 1317 c 128
 643 1263 643 1263 667 1205 c 128
 691 1147 691 1147 711 1092 c 257
 1110 0 l 257
 797 0 l 257
EndSplineSet
EndChar
StartChar: nu
Encoding: 371 957 371
GlifName: nu
Width: 1200
VWidth: 0
Flags: W
LayerCount: 2
Fore
SplineSet
606 650 m 257
 620 250 l 257
 772 650 l 257
 1000 1100 l 257
 1308 1100 l 257
 733 0 l 257
 405 0 l 257
 216 1100 l 257
 523 1100 l 257
 606 650 l 257
EndSplineSet
EndChar
StartChar: xi
Encoding: 581 958 581
GlifName: xi
Width: 1000
VWidth: 0
Flags: W
LayerCount: 2
Fore
SplineSet
372 33 m 257
 328 68 328 68 284.5 108 c 128
 241 148 241 148 207.5 197.5 c 128
 174 247 174 247 155.5 307.5 c 128
 137 368 137 368 142 445 c 257
 146 513 146 513 169.5 564.5 c 128
 193 616 193 616 228 656 c 128
 263 696 263 696 306.5 725 c 128
 350 754 350 754 394 777 c 257
 556 790 l 257
 405 855 l 257
 388 877 388 877 372.5 903.5 c 128
 357 930 357 930 344.5 961 c 128
 332 992 332 992 325 1027 c 128
 318 1062 318 1062 318 1100 c 257
 318 1137 318 1137 329.5 1176 c 128
 341 1215 341 1215 363 1250 c 128
 385 1285 385 1285 417 1313.5 c 128
 449 1342 449 1342 490 1360 c 257
 456 1368 456 1368 428.5 1387 c 128
 401 1406 401 1406 381 1434 c 128
 361 1462 361 1462 350.5 1499 c 128
 340 1536 340 1536 341 1581 c 257
 659 1581 l 257
 658 1574 658 1574 658 1560.5 c 128
 658 1547 658 1547 661 1533.5 c 128
 664 1520 664 1520 670.5 1510 c 128
 677 1500 677 1500 690 1500 c 257
 1219 1500 l 257
 1155 1302 l 257
 840 1302 l 257
 807 1302 807 1302 765.5 1292 c 128
 724 1282 724 1282 686.5 1259.5 c 128
 649 1237 649 1237 624 1200 c 128
 599 1163 599 1163 599 1110 c 257
 599 1058 599 1058 612 1020.5 c 128
 625 983 625 983 645.5 958.5 c 128
 666 934 666 934 690.5 922.5 c 128
 715 911 715 911 738 911 c 257
 1032 911 l 257
 960 700 l 257
 913 704 913 704 856.5 703 c 128
 800 702 800 702 742 693 c 128
 684 684 684 684 629.5 667 c 128
 575 650 575 650 533 621 c 128
 491 592 491 592 465.5 551 c 128
 440 510 440 510 441 454 c 257
 441 425 441 425 450.5 393.5 c 128
 460 362 460 362 477.5 331.5 c 128
 495 301 495 301 519.5 273 c 128
 544 245 544 245 576 223 c 257
 664 161 664 161 724.5 118 c 128
 785 75 785 75 823.5 34.5 c 128
 862 -6 862 -6 879.5 -51.5 c 128
 897 -97 897 -97 898 -162 c 257
 899 -214 899 -214 863 -266.5 c 128
 827 -319 827 -319 768.5 -366.5 c 128
 710 -414 710 -414 635.5 -453.5 c 128
 561 -493 561 -493 484 -517 c 257
 384 -324 l 257
 420 -315 420 -315 456 -298.5 c 128
 492 -282 492 -282 520 -261 c 128
 548 -240 548 -240 564.5 -216.5 c 128
 581 -193 581 -193 579 -170 c 257
 575 -133 575 -133 551.5 -104 c 128
 528 -75 528 -75 496.5 -51 c 128
 465 -27 465 -27 431 -7 c 128
 397 13 397 13 372 33 c 257
EndSplineSet
EndChar
StartChar: pi
Encoding: 422 960 422
GlifName: pi
Width: 1300
VWidth: 0
Flags: W
LayerCount: 2
Fore
SplineSet
1154 900 m 257
 1066 400 l 257
 1054 334 1054 334 1050.5 291.5 c 128
 1047 249 1047 249 1050 225 c 128
 1053 201 1053 201 1062 192 c 128
 1071 183 1071 183 1085 183 c 257
 1102 183 1102 183 1119.5 188 c 128
 1137 193 1137 193 1151 200 c 257
 1168 208 1168 208 1184 218 c 257
 1260 43 l 257
 1242 35 1242 35 1218 24.5 c 128
 1194 14 1194 14 1165 5 c 128
 1136 -4 1136 -4 1102 -10.5 c 128
 1068 -17 1068 -17 1030 -17 c 257
 958 -17 958 -17 908.5 2 c 128
 859 21 859 21 827.5 53 c 128
 796 85 796 85 780 127.5 c 128
 764 170 764 170 758.5 218 c 128
 753 266 753 266 755.5 316 c 128
 758 366 758 366 764 413 c 257
 850 900 l 257
 586 900 l 257
 675 752 l 257
 543 0 l 257
 239 0 l 257
 362 698 l 257
 381 806 381 806 384.5 854.5 c 128
 388 903 388 903 360 903 c 257
 342 903 342 903 323 898 c 128
 304 893 304 893 287 888 c 257
 268 882 268 882 250 874 c 257
 164 1041 l 257
 182 1050 182 1050 206 1060 c 128
 230 1070 230 1070 259 1079 c 128
 288 1088 288 1088 322 1094 c 128
 356 1100 356 1100 393 1100 c 257
 1322 1100 l 257
 1260 900 l 257
 1154 900 l 257
EndSplineSet
EndChar
StartChar: tau
Encoding: 513 964 513
GlifName: tau
Width: 1100
VWidth: 0
Flags: W
LayerCount: 2
Fore
SplineSet
855 900 m 257
 747 284 l 257
 741 250 741 250 741 220 c 128
 741 190 741 190 749 157.5 c 128
 757 125 757 125 774 87.5 c 128
 791 50 791 50 819 0 c 257
 517 0 l 257
 486 25 486 25 469 57.5 c 128
 452 90 452 90 446 130 c 128
 440 170 440 170 443.5 217 c 128
 447 264 447 264 457 320 c 257
 559 900 l 257
 224 900 l 257
 286 1100 l 257
 1201 1100 l 257
 1139 900 l 257
 855 900 l 257
EndSplineSet
EndChar
StartChar: chi
Encoding: 185 967 185
GlifName: chi
Width: 1300
VWidth: 0
Flags: W
LayerCount: 2
Fore
SplineSet
677 763 m 257
 731 478 l 257
 819 716 l 257
 1093 1100 l 257
 1419 1100 l 257
 845 323 l 257
 1060 -226 l 257
 1074 -261 1074 -261 1091.5 -280.5 c 128
 1109 -300 1109 -300 1125 -311 c 257
 1143 -323 1143 -323 1163 -328 c 257
 1129 -517 l 257
 1080 -530 1080 -530 1024 -519.5 c 128
 968 -509 968 -509 916.5 -482.5 c 128
 865 -456 865 -456 824.5 -416 c 128
 784 -376 784 -376 766 -330 c 257
 673 -93 l 257
 619 167 l 257
 514 -71 l 257
 199 -500 l 257
 -122 -500 l 257
 505 344 l 257
 317 829 l 257
 303 862 303 862 286 882 c 128
 269 902 269 902 253 913 c 257
 235 925 235 925 216 931 c 257
 248 1117 l 257
 297 1127 297 1127 352.5 1118 c 128
 408 1109 408 1109 458 1084 c 128
 508 1059 508 1059 548.5 1020 c 128
 589 981 589 981 609 932 c 257
 677 763 l 257
EndSplineSet
EndChar
StartChar: psi
Encoding: 434 968 434
GlifName: psi
Width: 1500
VWidth: 0
Flags: W
LayerCount: 2
Fore
SplineSet
1153 700 m 257
 1159 733 1159 733 1160.5 767 c 128
 1162 801 1162 801 1159 831.5 c 128
 1156 862 1156 862 1147 887 c 128
 1138 912 1138 912 1122 926 c 257
 1153 1105 l 257
 1190 1108 1190 1108 1229.5 1091.5 c 128
 1269 1075 1269 1075 1306.5 1045 c 128
 1344 1015 1344 1015 1376.5 973.5 c 128
 1409 932 1409 932 1431 884.5 c 128
 1453 837 1453 837 1462.5 787 c 128
 1472 737 1472 737 1464 689 c 257
 1430 499 l 257
 1421 449 1421 449 1410.5 392 c 128
 1400 335 1400 335 1379.5 277.5 c 128
 1359 220 1359 220 1325 167 c 128
 1291 114 1291 114 1236 73.5 c 128
 1181 33 1181 33 1100 8.5 c 128
 1019 -16 1019 -16 906 -16 c 257
 878 -16 l 257
 792 -500 l 257
 474 -500 l 257
 560 -16 l 257
 543 -16 l 257
 441 -16 441 -16 374 13 c 128
 307 42 307 42 266.5 88 c 128
 226 134 226 134 208.5 191.5 c 128
 191 249 191 249 186.5 306.5 c 128
 182 364 182 364 187.5 415 c 128
 193 466 193 466 199 499 c 257
 255 814 l 257
 574 846 l 257
 513 501 l 257
 502 441 502 441 497 386 c 128
 492 331 492 331 498 288.5 c 128
 504 246 504 246 523 220.5 c 128
 542 195 542 195 580 195 c 257
 597 195 l 257
 755 1093 l 257
 1079 1126 l 257
 915 195 l 257
 964 199 964 199 998 225.5 c 128
 1032 252 1032 252 1055 294 c 128
 1078 336 1078 336 1093 390 c 128
 1108 444 1108 444 1118 501 c 257
 1153 700 l 257
EndSplineSet
EndChar
StartChar: quotationdash
Encoding: 438 8213 438
GlifName: quotationdash
Width: 1600
VWidth: 0
Flags: W
LayerCount: 2
Fore
SplineSet
310 624 m 257
 1510 624 l 257
 1470 400 l 257
 270 400 l 257
 310 624 l 257
EndSplineSet
EndChar
StartChar: dblverticalbar
Encoding: 218 8214 218
GlifName: dblverticalbar
Width: 800
VWidth: 0
Flags: W
LayerCount: 2
Fore
SplineSet
683 1500 m 257
 419 0 l 257
 200 0 l 257
 464 1500 l 257
 683 1500 l 257
983 1500 m 257
 719 0 l 257
 500 0 l 257
 764 1500 l 257
 983 1500 l 257
EndSplineSet
EndChar
StartChar: quoteleft
Encoding: 443 8216 443
GlifName: quoteleft
Width: 700
VWidth: 0
Flags: W
LayerCount: 2
Fore
SplineSet
437 1079 m 257
 436 1044 436 1044 422 1013.5 c 128
 408 983 408 983 383.5 961.5 c 128
 359 940 359 940 325.5 929.5 c 128
 292 919 292 919 252 925 c 257
 223 929 223 929 198 941.5 c 128
 173 954 173 954 154.5 974 c 128
 136 994 136 994 125.5 1020.5 c 128
 115 1047 115 1047 115 1079 c 257
 115 1118 115 1118 129.5 1166 c 128
 144 1214 144 1214 175 1265 c 128
 206 1316 206 1316 254 1367.5 c 128
 302 1419 302 1419 370 1466 c 257
 462 1408 l 257
 448 1390 448 1390 432.5 1367 c 128
 417 1344 417 1344 403 1318.5 c 128
 389 1293 389 1293 377 1267 c 128
 365 1241 365 1241 358 1217 c 257
 376 1209 376 1209 391 1198.5 c 128
 406 1188 406 1188 416.5 1172 c 128
 427 1156 427 1156 432.5 1133 c 128
 438 1110 438 1110 437 1079 c 257
EndSplineSet
EndChar
StartChar: quotedblbase
Encoding: 440 8222 440
GlifName: quotedblbase
Width: 1000
VWidth: 0
Flags: W
LayerCount: 2
Fore
SplineSet
163 121 m 257
 164 156 164 156 178 186.5 c 128
 192 217 192 217 216.5 238.5 c 128
 241 260 241 260 274.5 270.5 c 128
 308 281 308 281 348 275 c 257
 377 271 377 271 402 258.5 c 128
 427 246 427 246 445.5 226 c 128
 464 206 464 206 474.5 179.5 c 128
 485 153 485 153 485 121 c 257
 485 82 485 82 470.5 34 c 128
 456 -14 456 -14 425 -65 c 128
 394 -116 394 -116 346 -168 c 128
 298 -220 298 -220 230 -266 c 257
 138 -208 l 257
 152 -190 152 -190 167.5 -167 c 128
 183 -144 183 -144 197 -118.5 c 128
 211 -93 211 -93 222.5 -67 c 128
 234 -41 234 -41 242 -17 c 257
 224 -9 224 -9 209 1.5 c 128
 194 12 194 12 183.5 28 c 128
 173 44 173 44 167.5 66.5 c 128
 162 89 162 89 163 121 c 257
563 121 m 257
 564 156 564 156 578 186.5 c 128
 592 217 592 217 616.5 238.5 c 128
 641 260 641 260 674.5 270.5 c 128
 708 281 708 281 748 275 c 257
 777 271 777 271 802 258.5 c 128
 827 246 827 246 845.5 226 c 128
 864 206 864 206 874.5 179.5 c 128
 885 153 885 153 885 121 c 257
 885 82 885 82 870.5 34 c 128
 856 -14 856 -14 825 -65 c 128
 794 -116 794 -116 746 -168 c 128
 698 -220 698 -220 630 -266 c 257
 538 -208 l 257
 552 -190 552 -190 567.5 -167 c 128
 583 -144 583 -144 597 -118.5 c 128
 611 -93 611 -93 622.5 -67 c 128
 634 -41 634 -41 642 -17 c 257
 624 -9 624 -9 609 1.5 c 128
 594 12 594 12 583.5 28 c 128
 573 44 573 44 567.5 66.5 c 128
 562 89 562 89 563 121 c 257
EndSplineSet
EndChar
StartChar: dagger
Encoding: 215 8224 215
GlifName: dagger
Width: 1100
VWidth: 0
Flags: W
LayerCount: 2
Fore
SplineSet
311 1118 m 257
 567 1118 l 257
 633 1493 l 257
 908 1527 l 257
 836 1118 l 257
 1125 1118 l 257
 1058 900 l 257
 797 900 l 257
 568 -400 l 257
 299 -400 l 257
 528 900 l 257
 272 900 l 257
 311 1118 l 257
EndSplineSet
EndChar
StartChar: daggerdbl
Encoding: 216 8225 216
GlifName: daggerdbl
Width: 1000
VWidth: 0
Flags: W
LayerCount: 2
Fore
SplineSet
384 82 m 257
 128 82 l 257
 166 300 l 257
 422 300 l 257
 528 900 l 257
 272 900 l 257
 311 1118 l 257
 567 1118 l 257
 633 1493 l 257
 908 1527 l 257
 836 1118 l 257
 1125 1118 l 257
 1058 900 l 257
 797 900 l 257
 691 300 l 257
 980 300 l 257
 914 82 l 257
 653 82 l 257
 568 -400 l 257
 299 -400 l 257
 384 82 l 257
EndSplineSet
EndChar
StartChar: ellipsis
Encoding: 242 8230 242
GlifName: ellipsis
Width: 1500
VWidth: 0
Flags: W
LayerCount: 2
Fore
SplineSet
97 171 m 257
 100 209 100 209 120 244.5 c 128
 140 280 140 280 170.5 306 c 128
 201 332 201 332 238.5 346 c 128
 276 360 276 360 313 356 c 257
 389 348 389 348 430 298 c 128
 471 248 471 248 466 171 c 257
 464 132 464 132 444 97 c 128
 424 62 424 62 393.5 35.5 c 128
 363 9 363 9 325 -5.5 c 128
 287 -20 287 -20 250 -17 c 257
 211 -14 211 -14 181 1.5 c 128
 151 17 151 17 131.5 42.5 c 128
 112 68 112 68 103 101 c 128
 94 134 94 134 97 171 c 257
597 171 m 257
 600 209 600 209 620 244.5 c 128
 640 280 640 280 670.5 306 c 128
 701 332 701 332 738.5 346 c 128
 776 360 776 360 813 356 c 257
 889 348 889 348 930 298 c 128
 971 248 971 248 966 171 c 257
 964 132 964 132 944 97 c 128
 924 62 924 62 893.5 35.5 c 128
 863 9 863 9 825 -5.5 c 128
 787 -20 787 -20 750 -17 c 257
 711 -14 711 -14 681 1.5 c 128
 651 17 651 17 631.5 42.5 c 128
 612 68 612 68 603 101 c 128
 594 134 594 134 597 171 c 257
1097 171 m 257
 1100 209 1100 209 1120 244.5 c 128
 1140 280 1140 280 1170.5 306 c 128
 1201 332 1201 332 1238.5 346 c 128
 1276 360 1276 360 1313 356 c 257
 1389 348 1389 348 1430 298 c 128
 1471 248 1471 248 1466 171 c 257
 1464 132 1464 132 1444 97 c 128
 1424 62 1424 62 1393.5 35.5 c 128
 1363 9 1363 9 1325 -5.5 c 128
 1287 -20 1287 -20 1250 -17 c 257
 1211 -14 1211 -14 1181 1.5 c 128
 1151 17 1151 17 1131.5 42.5 c 128
 1112 68 1112 68 1103 101 c 128
 1094 134 1094 134 1097 171 c 257
EndSplineSet
EndChar
StartChar: pertenthousandsign
Encoding: 415 8241 415
GlifName: pertenthousandsign
Width: 3300
VWidth: 0
Flags: W
LayerCount: 2
Fore
SplineSet
2065 -17 m 257
 1892 -1 1892 -1 1815 101.5 c 128
 1738 204 1738 204 1753 382 c 257
 1760 467 1760 467 1798 542.5 c 128
 1836 618 1836 618 1896 672 c 128
 1956 726 1956 726 2035 754 c 128
 2114 782 2114 782 2204 774 c 257
 2376 758 2376 758 2454 655.5 c 128
 2532 553 2532 553 2516 382 c 257
 2508 295 2508 295 2472 218.5 c 128
 2436 142 2436 142 2377 86.5 c 128
 2318 31 2318 31 2238.5 2.5 c 128
 2159 -26 2159 -26 2065 -17 c 257
2224 371 m 257
 2227 407 2227 407 2227.5 440.5 c 128
 2228 474 2228 474 2222 500 c 128
 2216 526 2216 526 2203 543.5 c 128
 2190 561 2190 561 2166 566 c 257
 2143 570 2143 570 2124 556.5 c 128
 2105 543 2105 543 2090 518 c 128
 2075 493 2075 493 2064.5 461 c 128
 2054 429 2054 429 2050 396 c 257
 2045 360 2045 360 2045 327 c 128
 2045 294 2045 294 2051 267.5 c 128
 2057 241 2057 241 2070.5 223.5 c 128
 2084 206 2084 206 2107 203 c 257
 2129 200 2129 200 2149 214 c 128
 2169 228 2169 228 2184.5 252.5 c 128
 2200 277 2200 277 2210.5 308 c 128
 2221 339 2221 339 2224 371 c 257
2781 -17 m 257
 2608 -1 2608 -1 2531 101.5 c 128
 2454 204 2454 204 2469 382 c 257
 2476 467 2476 467 2514 542.5 c 128
 2552 618 2552 618 2612 672 c 128
 2672 726 2672 726 2751 754 c 128
 2830 782 2830 782 2920 774 c 257
 3092 758 3092 758 3170 655.5 c 128
 3248 553 3248 553 3232 382 c 257
 3224 295 3224 295 3188 218.5 c 128
 3152 142 3152 142 3093 86.5 c 128
 3034 31 3034 31 2954.5 2.5 c 128
 2875 -26 2875 -26 2781 -17 c 257
2940 371 m 257
 2943 407 2943 407 2943.5 440.5 c 128
 2944 474 2944 474 2938 500 c 128
 2932 526 2932 526 2919 543.5 c 128
 2906 561 2906 561 2882 566 c 257
 2859 570 2859 570 2840 556.5 c 128
 2821 543 2821 543 2806 518 c 128
 2791 493 2791 493 2780.5 461 c 128
 2770 429 2770 429 2766 396 c 257
 2761 360 2761 360 2761 327 c 128
 2761 294 2761 294 2767 267.5 c 128
 2773 241 2773 241 2786.5 223.5 c 128
 2800 206 2800 206 2823 203 c 257
 2845 200 2845 200 2865 214 c 128
 2885 228 2885 228 2900.5 252.5 c 128
 2916 277 2916 277 2926.5 308 c 128
 2937 339 2937 339 2940 371 c 257
633 0 m 257
 310 0 l 257
 1393 1500 l 257
 1707 1500 l 257
 633 0 l 257
1348 -17 m 257
 1175 -1 1175 -1 1098 101.5 c 128
 1021 204 1021 204 1036 382 c 257
 1043 467 1043 467 1081 542.5 c 128
 1119 618 1119 618 1179 672 c 128
 1239 726 1239 726 1318 754 c 128
 1397 782 1397 782 1487 774 c 257
 1659 758 1659 758 1737 655.5 c 128
 1815 553 1815 553 1799 382 c 257
 1791 295 1791 295 1755 218.5 c 128
 1719 142 1719 142 1660 86.5 c 128
 1601 31 1601 31 1521.5 2.5 c 128
 1442 -26 1442 -26 1348 -17 c 257
1507 371 m 257
 1510 407 1510 407 1510.5 440.5 c 128
 1511 474 1511 474 1505 500 c 128
 1499 526 1499 526 1486 543.5 c 128
 1473 561 1473 561 1449 566 c 257
 1426 570 1426 570 1407 556.5 c 128
 1388 543 1388 543 1373 518 c 128
 1358 493 1358 493 1347.5 461 c 128
 1337 429 1337 429 1333 396 c 257
 1328 360 1328 360 1328 327 c 128
 1328 294 1328 294 1334 267.5 c 128
 1340 241 1340 241 1353.5 223.5 c 128
 1367 206 1367 206 1390 203 c 257
 1412 200 1412 200 1432 214 c 128
 1452 228 1452 228 1467.5 252.5 c 128
 1483 277 1483 277 1493.5 308 c 128
 1504 339 1504 339 1507 371 c 257
528 726 m 257
 355 742 355 742 278 844.5 c 128
 201 947 201 947 216 1125 c 257
 223 1210 223 1210 261 1285.5 c 128
 299 1361 299 1361 359 1415 c 128
 419 1469 419 1469 498 1497 c 128
 577 1525 577 1525 667 1517 c 257
 839 1501 839 1501 917 1398.5 c 128
 995 1296 995 1296 979 1125 c 257
 971 1038 971 1038 935 961.5 c 128
 899 885 899 885 840 829.5 c 128
 781 774 781 774 701.5 745.5 c 128
 622 717 622 717 528 726 c 257
687 1114 m 257
 690 1150 690 1150 690.5 1183.5 c 128
 691 1217 691 1217 685 1243 c 128
 679 1269 679 1269 666 1286.5 c 128
 653 1304 653 1304 629 1309 c 257
 606 1313 606 1313 587 1299.5 c 128
 568 1286 568 1286 553 1261 c 128
 538 1236 538 1236 527.5 1204 c 128
 517 1172 517 1172 513 1139 c 257
 508 1103 508 1103 508 1070 c 128
 508 1037 508 1037 514 1010.5 c 128
 520 984 520 984 533.5 966.5 c 128
 547 949 547 949 570 946 c 257
 592 943 592 943 612 957 c 128
 632 971 632 971 647.5 995.5 c 128
 663 1020 663 1020 673.5 1051 c 128
 684 1082 684 1082 687 1114 c 257
EndSplineSet
EndChar
StartChar: guilsinglleft
Encoding: 298 8249 298
GlifName: guilsinglleft
Width: 900
VWidth: 0
Flags: W
LayerCount: 2
Fore
SplineSet
878 1106 m 257
 927 880 l 257
 543 583 l 257
 461 550 l 257
 531 517 l 257
 813 224 l 257
 677 -13 l 257
 208 476 l 257
 234 620 l 257
 878 1106 l 257
EndSplineSet
EndChar
StartChar: twoasterisksvertical
Encoding: 536 8273 536
GlifName: twoasterisksvertical
Width: 700
VWidth: 0
Flags: W
LayerCount: 2
Fore
SplineSet
551 1063 m 257
 586 1002 l 257
 489 927 l 257
 446 1000 l 257
 435 1095 l 257
 393 1000 l 257
 330 928 l 257
 241 990 l 257
 317 1075 l 257
 406 1120 l 257
 301 1120 l 257
 230 1145 l 257
 271 1254 l 257
 359 1229 l 257
 426 1160 l 257
 410 1257 l 257
 421 1323 l 257
 538 1335 l 257
 524 1254 l 257
 468 1158 l 257
 553 1223 l 257
 630 1247 l 257
 658 1141 l 257
 585 1118 l 257
 473 1118 l 257
 551 1063 l 257
551 463 m 257
 586 402 l 257
 489 327 l 257
 446 400 l 257
 435 495 l 257
 393 400 l 257
 330 328 l 257
 241 390 l 257
 317 475 l 257
 406 520 l 257
 301 520 l 257
 230 545 l 257
 271 654 l 257
 359 629 l 257
 426 560 l 257
 410 657 l 257
 421 723 l 257
 538 735 l 257
 524 654 l 257
 468 558 l 257
 553 623 l 257
 630 647 l 257
 658 541 l 257
 585 518 l 257
 473 518 l 257
 551 463 l 257
EndSplineSet
EndChar
StartChar: ismallsuperior
Encoding: 324 8305 324
GlifName: ismallsuperior
Width: 300
VWidth: 0
Flags: W
LayerCount: 2
Fore
SplineSet
221 720 m 257
 68 720 l 257
 160 1244 l 257
 316 1260 l 257
 221 720 l 257
197 1470 m 257
 356 1470 l 257
 335 1354 l 257
 176 1354 l 257
 197 1470 l 257
EndSplineSet
EndChar
StartChar: plussuperior
Encoding: 428 8314 428
GlifName: plussuperior
Width: 600
VWidth: 0
Flags: W
LayerCount: 2
Fore
SplineSet
104 1070 m 257
 284 1070 l 257
 322 1285 l 257
 427 1285 l 257
 389 1070 l 257
 569 1070 l 257
 551 970 l 257
 371 970 l 257
 336 770 l 257
 231 770 l 257
 266 970 l 257
 86 970 l 257
 104 1070 l 257
EndSplineSet
EndChar
StartChar: parenleftsuperior
Encoding: 404 8317 404
GlifName: parenleftsuperior
Width: 400
VWidth: 0
Flags: W
LayerCount: 2
Fore
SplineSet
181 1296 m 257
 191 1349 191 1349 202.5 1391.5 c 128
 214 1434 214 1434 235.5 1463.5 c 128
 257 1493 257 1493 292 1507 c 128
 327 1521 327 1521 383 1517 c 257
 408 1515 408 1515 430.5 1509 c 128
 453 1503 453 1503 484 1489 c 257
 429 1432 l 257
 418 1434 418 1434 405 1433.5 c 128
 392 1433 392 1433 379.5 1423.5 c 128
 367 1414 367 1414 357 1392 c 128
 347 1370 347 1370 341 1330 c 257
 228 694 l 257
 222 665 222 665 225 646.5 c 128
 228 628 228 628 236 617 c 128
 244 606 244 606 255 601 c 128
 266 596 266 596 277 594 c 257
 316 534 l 257
 293 521 293 521 261.5 513 c 128
 230 505 230 505 205 507 c 257
 151 511 151 511 122.5 533.5 c 128
 94 556 94 556 83 589 c 128
 72 622 72 622 73.5 661 c 128
 75 700 75 700 82 736 c 257
 181 1296 l 257
EndSplineSet
EndChar
StartChar: parenrightsuperior
Encoding: 407 8318 407
GlifName: parenrightsuperior
Width: 500
VWidth: 0
Flags: W
LayerCount: 2
Fore
SplineSet
368 736 m 257
 358 680 358 680 348 636.5 c 128
 338 593 338 593 317 564 c 128
 296 535 296 535 260.5 520.5 c 128
 225 506 225 506 164 507 c 257
 139 507 139 507 110.5 514 c 128
 82 521 82 521 63 534 c 257
 123 594 l 257
 133 595 133 595 145 595 c 128
 157 595 157 595 168 603 c 128
 179 611 179 611 189 631.5 c 128
 199 652 199 652 207 694 c 257
 319 1330 l 257
 325 1363 325 1363 321 1382.5 c 128
 317 1402 317 1402 308 1412.5 c 128
 299 1423 299 1423 287.5 1427 c 128
 276 1431 276 1431 267 1432 c 257
 232 1489 l 257
 255 1503 255 1503 286.5 1510 c 128
 318 1517 318 1517 343 1517 c 257
 399 1517 399 1517 427.5 1495.5 c 128
 456 1474 456 1474 467 1441.5 c 128
 478 1409 478 1409 475.5 1370 c 128
 473 1331 473 1331 467 1296 c 257
 368 736 l 257
EndSplineSet
EndChar
StartChar: nsuperior
Encoding: 369 8319 369
GlifName: nsuperior
Width: 600
VWidth: 0
Flags: W
LayerCount: 2
Fore
SplineSet
327 1283 m 257
 310 1188 l 257
 368 1264 l 257
 385 1269 385 1269 402.5 1273 c 128
 420 1277 420 1277 438 1278 c 257
 465 1280 465 1280 484 1278.5 c 128
 503 1277 503 1277 518 1271 c 128
 533 1265 533 1265 545 1255.5 c 128
 557 1246 557 1246 570 1232 c 257
 583 1216 583 1216 588 1196.5 c 128
 593 1177 593 1177 593.5 1156.5 c 128
 594 1136 594 1136 591 1117 c 128
 588 1098 588 1098 585 1083 c 257
 521 720 l 257
 365 720 l 257
 431 1098 l 257
 437 1130 437 1130 425 1147 c 128
 413 1164 413 1164 394 1170 c 257
 386 1172 386 1172 374.5 1170.5 c 128
 363 1169 363 1169 350 1164 c 128
 337 1159 337 1159 324 1150 c 128
 311 1141 311 1141 299 1128 c 257
 228 720 l 257
 71 720 l 257
 167 1266 l 257
 327 1283 l 257
EndSplineSet
EndChar
StartChar: zeroinferior
Encoding: 588 8320 588
GlifName: zeroinferior
Width: 600
VWidth: 0
Flags: W
LayerCount: 2
Fore
SplineSet
297 -508 m 257
 228 -503 228 -503 184.5 -467 c 128
 141 -431 141 -431 117.5 -377 c 128
 94 -323 94 -323 88.5 -257 c 128
 83 -191 83 -191 91 -125 c 257
 97 -80 97 -80 111 -32.5 c 128
 125 15 125 15 146.5 59 c 128
 168 103 168 103 197 141 c 128
 226 179 226 179 262 206.5 c 128
 298 234 298 234 340.5 248.5 c 128
 383 263 383 263 432 258 c 257
 502 251 502 251 546.5 215 c 128
 591 179 591 179 615 125.5 c 128
 639 72 639 72 643.5 6.5 c 128
 648 -59 648 -59 638 -125 c 257
 628 -193 628 -193 602 -263.5 c 128
 576 -334 576 -334 533.5 -390.5 c 128
 491 -447 491 -447 432 -480.5 c 128
 373 -514 373 -514 297 -508 c 257
262 -105 m 257
 257 -145 257 -145 252.5 -192.5 c 128
 248 -240 248 -240 251.5 -282 c 128
 255 -324 255 -324 270.5 -353.5 c 128
 286 -383 286 -383 322 -387 c 257
 353 -390 353 -390 378 -369 c 128
 403 -348 403 -348 421 -312.5 c 128
 439 -277 439 -277 450.5 -232.5 c 128
 462 -188 462 -188 467 -146 c 257
 472 -104 472 -104 476.5 -56 c 128
 481 -8 481 -8 477 33.5 c 128
 473 75 473 75 457.5 104 c 128
 442 133 442 133 407 136 c 257
 375 139 375 139 350.5 117 c 128
 326 95 326 95 308 59.5 c 128
 290 24 290 24 278.5 -20 c 128
 267 -64 267 -64 262 -105 c 257
EndSplineSet
EndChar
StartChar: oneinferior
Encoding: 387 8321 387
GlifName: oneinferior
Width: 600
VWidth: 0
Flags: W
LayerCount: 2
Fore
SplineSet
350 -60 m 257
 419 121 l 257
 281 -14 l 257
 233 -51 l 257
 171 41 l 257
 450 262 l 257
 562 246 l 257
 448 -400 l 257
 569 -400 l 257
 552 -500 l 257
 151 -500 l 257
 168 -400 l 257
 290 -400 l 257
 350 -60 l 257
EndSplineSet
EndChar
StartChar: twoinferior
Encoding: 538 8322 538
GlifName: twoinferior
Width: 600
VWidth: 0
Flags: W
LayerCount: 2
Fore
SplineSet
62 -500 m 257
 79 -405 l 257
 109 -368 109 -368 149.5 -325 c 128
 190 -282 190 -282 231 -241.5 c 128
 272 -201 272 -201 308 -166.5 c 128
 344 -132 344 -132 366 -113 c 257
 408 -75 408 -75 431.5 -51.5 c 128
 455 -28 455 -28 467 -11.5 c 128
 479 5 479 5 483.5 18 c 128
 488 31 488 31 493 48 c 257
 497 63 497 63 494.5 80.5 c 128
 492 98 492 98 482.5 112.5 c 128
 473 127 473 127 457.5 137.5 c 128
 442 148 442 148 422 150 c 257
 381 154 381 154 343.5 126.5 c 128
 306 99 306 99 277 48 c 257
 168 91 l 257
 208 179 208 179 280 221 c 128
 352 263 352 263 449 258 c 257
 506 255 506 255 545 235 c 128
 584 215 584 215 607.5 185 c 128
 631 155 631 155 639.5 117.5 c 128
 648 80 648 80 644 43 c 257
 639 7 639 7 620 -25.5 c 128
 601 -58 601 -58 575.5 -87.5 c 128
 550 -117 550 -117 522 -142.5 c 128
 494 -168 494 -168 472 -190 c 257
 442 -220 442 -220 409.5 -251 c 128
 377 -282 377 -282 347.5 -310 c 128
 318 -338 318 -338 294 -361.5 c 128
 270 -385 270 -385 257 -400 c 257
 578 -400 l 257
 561 -500 l 257
 62 -500 l 257
EndSplineSet
EndChar
StartChar: threeinferior
Encoding: 523 8323 523
GlifName: threeinferior
Width: 600
VWidth: 0
Flags: W
LayerCount: 2
Fore
SplineSet
220 -31 m 257
 245 -15 245 -15 283.5 8.5 c 128
 322 32 322 32 363.5 61 c 128
 405 90 405 90 442.5 122 c 128
 480 154 480 154 503 187 c 257
 366 150 l 257
 201 150 l 257
 229 250 l 257
 643 250 l 257
 628 163 l 257
 607 133 607 133 572 94 c 128
 537 55 537 55 495 26 c 257
 409 -16 l 257
 454 -14 454 -14 492.5 -27.5 c 128
 531 -41 531 -41 558 -67 c 128
 585 -93 585 -93 598.5 -130.5 c 128
 612 -168 612 -168 608 -214 c 257
 601 -291 601 -291 553.5 -345 c 128
 506 -399 506 -399 433 -433.5 c 128
 360 -468 360 -468 268.5 -484 c 128
 177 -500 177 -500 81 -500 c 257
 99 -400 l 257
 163 -400 163 -400 224.5 -387 c 128
 286 -374 286 -374 334 -350.5 c 128
 382 -327 382 -327 412 -293.5 c 128
 442 -260 442 -260 443 -219 c 257
 444 -190 444 -190 433 -170 c 128
 422 -150 422 -150 403.5 -138 c 128
 385 -126 385 -126 360 -120.5 c 128
 335 -115 335 -115 308 -115 c 257
 300 -115 300 -115 286 -115.5 c 128
 272 -116 272 -116 256 -117 c 128
 240 -118 240 -118 226 -119 c 128
 212 -120 212 -120 205 -120 c 257
 220 -31 l 257
EndSplineSet
EndChar
StartChar: fourinferior
Encoding: 283 8324 283
GlifName: fourinferior
Width: 600
VWidth: 0
Flags: W
LayerCount: 2
Fore
SplineSet
595 -350 m 257
 506 -350 l 257
 480 -500 l 257
 326 -500 l 257
 352 -350 l 257
 57 -350 l 257
 75 -250 l 257
 413 262 l 257
 563 246 l 257
 335 -119 l 257
 225 -250 l 257
 370 -250 l 257
 396 -101 l 257
 548 -114 l 257
 524 -250 l 257
 624 -250 l 257
 595 -350 l 257
EndSplineSet
EndChar
StartChar: fiveinferior
Encoding: 272 8325 272
GlifName: fiveinferior
Width: 600
VWidth: 0
Flags: W
LayerCount: 2
Fore
SplineSet
337 23 m 257
 362 29 362 29 396 29 c 257
 445 29 445 29 485.5 13.5 c 128
 526 -2 526 -2 553.5 -30.5 c 128
 581 -59 581 -59 593.5 -99 c 128
 606 -139 606 -139 600 -187 c 257
 591 -264 591 -264 541.5 -322 c 128
 492 -380 492 -380 418 -420 c 128
 344 -460 344 -460 253.5 -480 c 128
 163 -500 163 -500 71 -500 c 257
 90 -387 l 257
 147 -386 147 -386 208 -372.5 c 128
 269 -359 269 -359 319.5 -334.5 c 128
 370 -310 370 -310 403 -275.5 c 128
 436 -241 436 -241 439 -197 c 257
 442 -154 442 -154 423 -124.5 c 128
 404 -95 404 -95 362 -89 c 257
 343 -86 343 -86 328 -88 c 128
 313 -90 313 -90 300.5 -95 c 128
 288 -100 288 -100 275.5 -107 c 128
 263 -114 263 -114 250 -121 c 257
 144 -121 l 257
 209 250 l 257
 636 250 l 257
 618 150 l 257
 360 150 l 257
 337 23 l 257
EndSplineSet
EndChar
StartChar: sixinferior
Encoding: 482 8326 482
GlifName: sixinferior
Width: 600
VWidth: 0
Flags: W
LayerCount: 2
Fore
SplineSet
609 140 m 257
 598 147 598 147 583 148 c 128
 568 149 568 149 556 150 c 257
 514 153 514 153 471.5 135.5 c 128
 429 118 429 118 391.5 84.5 c 128
 354 51 354 51 324.5 3.5 c 128
 295 -44 295 -44 281 -100 c 257
 376 -28 l 257
 390 -25 390 -25 403.5 -24 c 128
 417 -23 417 -23 428 -22 c 257
 472 -19 472 -19 511.5 -31 c 128
 551 -43 551 -43 579.5 -69.5 c 128
 608 -96 608 -96 623 -138 c 128
 638 -180 638 -180 634 -238 c 257
 630 -294 630 -294 603 -344.5 c 128
 576 -395 576 -395 533 -432.5 c 128
 490 -470 490 -470 434.5 -491 c 128
 379 -512 379 -512 317 -509 c 257
 263 -506 263 -506 225.5 -489 c 128
 188 -472 188 -472 163.5 -445.5 c 128
 139 -419 139 -419 125 -386 c 128
 111 -353 111 -353 105.5 -318 c 128
 100 -283 100 -283 100.5 -249 c 128
 101 -215 101 -215 104 -187 c 257
 114 -98 114 -98 156 -15 c 128
 198 68 198 68 262.5 130.5 c 128
 327 193 327 193 408.5 228.5 c 128
 490 264 490 264 579 258 c 257
 588 257 588 257 604.5 256.5 c 128
 621 256 621 256 646 249 c 257
 609 140 l 257
403 -122 m 257
 368 -117 368 -117 329.5 -139.5 c 128
 291 -162 291 -162 263 -200 c 257
 258 -226 258 -226 255.5 -244 c 128
 253 -262 253 -262 257 -283 c 257
 261 -302 261 -302 267 -322 c 128
 273 -342 273 -342 283 -358.5 c 128
 293 -375 293 -375 306.5 -386.5 c 128
 320 -398 320 -398 338 -400 c 257
 365 -403 365 -403 388.5 -389.5 c 128
 412 -376 412 -376 430 -352.5 c 128
 448 -329 448 -329 458.5 -299.5 c 128
 469 -270 469 -270 471 -242 c 257
 475 -191 475 -191 456.5 -159 c 128
 438 -127 438 -127 403 -122 c 257
EndSplineSet
EndChar
StartChar: seveninferior
Encoding: 473 8327 473
GlifName: seveninferior
Width: 600
VWidth: 0
Flags: W
LayerCount: 2
Fore
SplineSet
208 250 m 257
 705 250 l 257
 691 169 l 257
 684 131 684 131 651.5 87.5 c 128
 619 44 619 44 570 -12 c 257
 538 -50 538 -50 507 -88 c 128
 476 -126 476 -126 449.5 -165 c 128
 423 -204 423 -204 403.5 -244.5 c 128
 384 -285 384 -285 374 -327 c 257
 370 -345 370 -345 365 -367.5 c 128
 360 -390 360 -390 355 -413 c 128
 350 -436 350 -436 345.5 -458.5 c 128
 341 -481 341 -481 338 -500 c 257
 176 -500 l 257
 179 -484 179 -484 184.5 -457 c 128
 190 -430 190 -430 196.5 -400 c 128
 203 -370 203 -370 210.5 -341 c 128
 218 -312 218 -312 225 -291 c 257
 258 -192 258 -192 315 -109.5 c 128
 372 -27 372 -27 438 43 c 257
 463 69 463 69 480 94 c 128
 497 119 497 119 506 136 c 257
 188 136 l 257
 208 250 l 257
EndSplineSet
EndChar
StartChar: heightinferior
Encoding: 302 8328 302
GlifName: heightinferior
Width: 600
VWidth: 0
Flags: W
LayerCount: 2
Fore
SplineSet
441 258 m 257
 542 250 542 250 594.5 203.5 c 128
 647 157 647 157 640 67 c 257
 638 42 638 42 625 19 c 128
 612 -4 612 -4 592.5 -23 c 128
 573 -42 573 -42 549.5 -56.5 c 128
 526 -71 526 -71 502 -78 c 257
 523 -86 523 -86 546.5 -106.5 c 128
 570 -127 570 -127 588.5 -155 c 128
 607 -183 607 -183 617.5 -217 c 128
 628 -251 628 -251 624 -287 c 257
 618 -348 618 -348 588 -391.5 c 128
 558 -435 558 -435 513.5 -462.5 c 128
 469 -490 469 -490 415.5 -501 c 128
 362 -512 362 -512 309 -509 c 257
 258 -506 258 -506 215 -491 c 128
 172 -476 172 -476 142 -448 c 128
 112 -420 112 -420 96.5 -378.5 c 128
 81 -337 81 -337 86 -280 c 257
 91 -208 91 -208 139.5 -157 c 128
 188 -106 188 -106 266 -76 c 257
 248 -61 248 -61 232 -46 c 128
 216 -31 216 -31 204.5 -14 c 128
 193 3 193 3 187 22 c 128
 181 41 181 41 183 62 c 257
 187 114 187 114 213 152 c 128
 239 190 239 190 276 214.5 c 128
 313 239 313 239 356.5 250 c 128
 400 261 400 261 441 258 c 257
468 -289 m 257
 469 -262 469 -262 461 -240 c 128
 453 -218 453 -218 438.5 -200.5 c 128
 424 -183 424 -183 405.5 -169.5 c 128
 387 -156 387 -156 366 -145 c 257
 341 -154 341 -154 318.5 -167.5 c 128
 296 -181 296 -181 278.5 -199 c 128
 261 -217 261 -217 250.5 -240 c 128
 240 -263 240 -263 240 -290 c 257
 239 -339 239 -339 264.5 -367 c 128
 290 -395 290 -395 329 -400 c 257
 352 -403 352 -403 376.5 -396.5 c 128
 401 -390 401 -390 421 -375 c 128
 441 -360 441 -360 454 -338 c 128
 467 -316 467 -316 468 -289 c 257
339 78 m 257
 338 61 338 61 344.5 46 c 128
 351 31 351 31 361 19 c 128
 371 7 371 7 383 -2.5 c 128
 395 -12 395 -12 406 -18 c 257
 445 1 445 1 467 23.5 c 128
 489 46 489 46 488 76 c 257
 487 112 487 112 471.5 128.5 c 128
 456 145 456 145 431 150 c 257
 414 153 414 153 397.5 148 c 128
 381 143 381 143 368 132.5 c 128
 355 122 355 122 347 107.5 c 128
 339 93 339 93 339 78 c 257
EndSplineSet
EndChar
StartChar: plusinferior
Encoding: 426 8330 426
GlifName: plusinferior
Width: 600
VWidth: 0
Flags: W
LayerCount: 2
Fore
SplineSet
104 -150 m 257
 284 -150 l 257
 322 65 l 257
 427 65 l 257
 389 -150 l 257
 569 -150 l 257
 551 -250 l 257
 371 -250 l 257
 336 -450 l 257
 231 -450 l 257
 266 -250 l 257
 86 -250 l 257
 104 -150 l 257
EndSplineSet
EndChar
StartChar: minusinferior
Encoding: 350 8331 350
GlifName: minusinferior
Width: 600
VWidth: 0
Flags: W
LayerCount: 2
Fore
SplineSet
111 -150 m 257
 561 -150 l 257
 541 -262 l 257
 91 -262 l 257
 111 -150 l 257
EndSplineSet
EndChar
StartChar: parenrightinferior
Encoding: 406 8334 406
GlifName: parenrightinferior
Width: 400
VWidth: 0
Flags: W
LayerCount: 2
Fore
SplineSet
368 -481 m 257
 358 -537 358 -537 348 -580.5 c 128
 338 -624 338 -624 317 -653 c 128
 296 -682 296 -682 260.5 -696.5 c 128
 225 -711 225 -711 164 -710 c 257
 139 -710 139 -710 110.5 -703 c 128
 82 -696 82 -696 63 -683 c 257
 123 -623 l 257
 133 -622 133 -622 145 -622 c 128
 157 -622 157 -622 168 -614 c 128
 179 -606 179 -606 189 -585.5 c 128
 199 -565 199 -565 207 -523 c 257
 319 113 l 257
 325 146 325 146 321 165.5 c 128
 317 185 317 185 308 195.5 c 128
 299 206 299 206 287.5 210 c 128
 276 214 276 214 267 215 c 257
 232 272 l 257
 255 286 255 286 286.5 293 c 128
 318 300 318 300 343 300 c 257
 399 300 399 300 427.5 278.5 c 128
 456 257 456 257 467 224.5 c 128
 478 192 478 192 475.5 153 c 128
 473 114 473 114 467 79 c 257
 368 -481 l 257
EndSplineSet
EndChar
StartChar: Euro
Encoding: 27 8364 27
GlifName: E_uro
Width: 1400
VWidth: 0
Flags: W
LayerCount: 2
Fore
SplineSet
606 492 m 257
 616 438 616 438 635 391 c 128
 654 344 654 344 683.5 308 c 128
 713 272 713 272 753 249.5 c 128
 793 227 793 227 847 221 c 257
 878 218 878 218 914 219 c 128
 950 220 950 220 991 229 c 128
 1032 238 1032 238 1078 257 c 128
 1124 276 1124 276 1176 308 c 257
 1264 133 l 257
 1213 89 1213 89 1155.5 59 c 128
 1098 29 1098 29 1036.5 11 c 128
 975 -7 975 -7 910.5 -13.5 c 128
 846 -20 846 -20 782 -17 c 257
 667 -11 667 -11 573.5 31.5 c 128
 480 74 480 74 413.5 142 c 128
 347 210 347 210 308.5 300 c 128
 270 390 270 390 264 491 c 257
 128 491 l 257
 165 700 l 257
 261 700 l 257
 263 717 263 717 264.5 732 c 128
 266 747 266 747 269 765 c 257
 271 776 271 776 274.5 791 c 128
 278 806 278 806 281 817 c 257
 186 817 l 257
 222 1025 l 257
 348 1025 l 257
 396 1148 396 1148 462.5 1242.5 c 128
 529 1337 529 1337 618 1400 c 128
 707 1463 707 1463 820 1493 c 128
 933 1523 933 1523 1073 1517 c 257
 1137 1514 1137 1514 1194 1501 c 128
 1251 1488 1251 1488 1300 1468 c 128
 1349 1448 1349 1448 1390.5 1423.5 c 128
 1432 1399 1432 1399 1465 1373 c 257
 1331 1190 l 257
 1302 1208 1302 1208 1267 1225.5 c 128
 1232 1243 1232 1243 1194.5 1255.5 c 128
 1157 1268 1157 1268 1119 1275 c 128
 1081 1282 1081 1282 1047 1280 c 257
 961 1274 961 1274 897.5 1251.5 c 128
 834 1229 834 1229 787 1187.5 c 128
 740 1146 740 1146 707 1084 c 128
 674 1022 674 1022 649 937 c 257
 789 1025 l 257
 1269 1025 l 257
 1120 817 l 257
 615 817 l 257
 611 799 l 257
 609 785 609 785 606 767 c 128
 603 749 603 749 602 735 c 257
 535 628 l 257
 681 700 l 257
 1041 700 l 257
 891 492 l 257
 606 492 l 257
EndSplineSet
EndChar
StartChar: indianrupee
Encoding: 318 8377 318
GlifName: indianrupee
Width: 1200
VWidth: 0
Flags: W
LayerCount: 2
Fore
SplineSet
414 1500 m 257
 1356 1500 l 257
 1206 1292 l 257
 1118 1292 l 257
 983 1340 l 257
 1058 1251 l 257
 1064 1231 1064 1231 1062 1207 c 128
 1060 1183 1060 1183 1058 1169 c 257
 1299 1169 l 257
 1148 959 l 257
 1056 959 l 257
 948 990 l 257
 997 925 l 257
 938 794 938 794 822.5 717.5 c 128
 707 641 707 641 549 627 c 257
 689 583 l 257
 1024 0 l 257
 669 0 l 257
 343 573 l 257
 336 583 336 583 324 583 c 257
 232 583 l 257
 271 802 l 257
 441 802 l 257
 501 802 501 802 544 812.5 c 128
 587 823 587 823 618 843.5 c 128
 649 864 649 864 670.5 893 c 128
 692 922 692 922 709 959 c 257
 261 959 l 257
 356 1169 l 257
 752 1169 l 257
 753 1185 753 1185 750.5 1206.5 c 128
 748 1228 748 1228 734 1247 c 128
 720 1266 720 1266 690 1279 c 128
 660 1292 660 1292 607 1292 c 257
 319 1292 l 257
 414 1500 l 257
EndSplineSet
EndChar
StartChar: centigrade
Encoding: 183 8451 183
GlifName: centigrade
Width: 1800
VWidth: 0
Flags: W
LayerCount: 2
Fore
SplineSet
1767 133 m 257
 1657 42 1657 42 1538 6.5 c 128
 1419 -29 1419 -29 1285 -17 c 257
 1134 -4 1134 -4 1029.5 58 c 128
 925 120 925 120 862.5 222 c 128
 800 324 800 324 779 463 c 128
 758 602 758 602 774 769 c 257
 784 871 784 871 814 967.5 c 128
 844 1064 844 1064 893.5 1148.5 c 128
 943 1233 943 1233 1011 1303.5 c 128
 1079 1374 1079 1374 1165 1423 c 128
 1251 1472 1251 1472 1354 1497 c 128
 1457 1522 1457 1522 1576 1517 c 257
 1640 1514 1640 1514 1700.5 1502 c 128
 1761 1490 1761 1490 1815 1469 c 128
 1869 1448 1869 1448 1915 1417 c 128
 1961 1386 1961 1386 1997 1344 c 257
 1819 1170 l 257
 1780 1201 1780 1201 1746 1222 c 128
 1712 1243 1712 1243 1680.5 1255.5 c 128
 1649 1268 1649 1268 1617 1273.5 c 128
 1585 1279 1585 1279 1550 1280 c 257
 1456 1282 1456 1282 1379 1242.5 c 128
 1302 1203 1302 1203 1245.5 1133.5 c 128
 1189 1064 1189 1064 1154 971 c 128
 1119 878 1119 878 1110 772 c 257
 1104 710 1104 710 1103.5 647 c 128
 1103 584 1103 584 1110.5 524.5 c 128
 1118 465 1118 465 1134.5 412 c 128
 1151 359 1151 359 1179.5 318.5 c 128
 1208 278 1208 278 1250 252 c 128
 1292 226 1292 226 1350 221 c 257
 1419 215 1419 215 1502 239 c 128
 1585 263 1585 263 1682 328 c 257
 1767 133 l 257
566 1517 m 257
 505 1524 505 1524 444.5 1504 c 128
 384 1484 384 1484 335 1445.5 c 128
 286 1407 286 1407 255 1355.5 c 128
 224 1304 224 1304 222 1247 c 257
 217 1137 217 1137 279.5 1065.5 c 128
 342 994 342 994 471 977 c 257
 532 969 532 969 591 989.5 c 128
 650 1010 650 1010 698 1049 c 128
 746 1088 746 1088 777 1140 c 128
 808 1192 808 1192 814 1247 c 257
 820 1304 820 1304 804 1350.5 c 128
 788 1397 788 1397 754.5 1432 c 128
 721 1467 721 1467 673 1489 c 128
 625 1511 625 1511 566 1517 c 257
540 1349 m 257
 585 1344 585 1344 612 1317 c 128
 639 1290 639 1290 634 1246 c 257
 632 1225 632 1225 620 1205 c 128
 608 1185 608 1185 589.5 1170 c 128
 571 1155 571 1155 548.5 1147 c 128
 526 1139 526 1139 503 1142 c 257
 452 1149 452 1149 428.5 1176 c 128
 405 1203 405 1203 407 1246 c 257
 408 1268 408 1268 419.5 1287.5 c 128
 431 1307 431 1307 450 1321.5 c 128
 469 1336 469 1336 492.5 1344 c 128
 516 1352 516 1352 540 1349 c 257
EndSplineSet
EndChar
StartChar: fahrenheit
Encoding: 262 8457 262
GlifName: fahrenheit
Width: 1700
VWidth: 0
Flags: W
LayerCount: 2
Fore
SplineSet
1070 0 m 257
 734 0 l 257
 956 1263 l 257
 963 1500 l 257
 1950 1500 l 257
 1883 1272 l 257
 1279 1272 l 257
 1269 1134 l 257
 1231 916 l 257
 1744 916 l 257
 1706 703 l 257
 1193 703 l 257
 1070 0 l 257
566 1517 m 257
 505 1524 505 1524 444.5 1504 c 128
 384 1484 384 1484 335 1445.5 c 128
 286 1407 286 1407 255 1355.5 c 128
 224 1304 224 1304 222 1247 c 257
 217 1137 217 1137 279.5 1065.5 c 128
 342 994 342 994 471 977 c 257
 532 969 532 969 591 989.5 c 128
 650 1010 650 1010 698 1049 c 128
 746 1088 746 1088 777 1140 c 128
 808 1192 808 1192 814 1247 c 257
 820 1304 820 1304 804 1350.5 c 128
 788 1397 788 1397 754.5 1432 c 128
 721 1467 721 1467 673 1489 c 128
 625 1511 625 1511 566 1517 c 257
540 1349 m 257
 585 1344 585 1344 612 1317 c 128
 639 1290 639 1290 634 1246 c 257
 632 1225 632 1225 620 1205 c 128
 608 1185 608 1185 589.5 1170 c 128
 571 1155 571 1155 548.5 1147 c 128
 526 1139 526 1139 503 1142 c 257
 452 1149 452 1149 428.5 1176 c 128
 405 1203 405 1203 407 1246 c 257
 408 1268 408 1268 419.5 1287.5 c 128
 431 1307 431 1307 450 1321.5 c 128
 469 1336 469 1336 492.5 1344 c 128
 516 1352 516 1352 540 1349 c 257
EndSplineSet
EndChar
StartChar: weierstrass
Encoding: 559 8472 559
GlifName: weierstrass
Width: 1666
VWidth: 0
Flags: W
LayerCount: 2
Fore
SplineSet
338 -358 m 257
 363 -358 363 -358 383 -340 c 128
 403 -322 403 -322 416.5 -294 c 128
 430 -266 430 -266 437.5 -231 c 128
 445 -196 445 -196 445 -161 c 257
 445 -125 445 -125 439.5 -80.5 c 128
 434 -36 434 -36 425 8.5 c 128
 416 53 416 53 404.5 94.5 c 128
 393 136 393 136 381 168 c 257
 381 254 l 257
 349 200 349 200 321 140 c 128
 293 80 293 80 272.5 17 c 128
 252 -46 252 -46 240 -110 c 128
 228 -174 228 -174 228 -236 c 257
 228 -295 228 -295 257.5 -326.5 c 128
 287 -358 287 -358 338 -358 c 257
719 1031 m 257
 657 1019 657 1019 595 986.5 c 128
 533 954 533 954 483 902.5 c 128
 433 851 433 851 401.5 780 c 128
 370 709 370 709 370 620 c 257
 370 578 370 578 381 528 c 257
 381 406 l 257
 452 517 452 517 534.5 623.5 c 128
 617 730 617 730 711.5 813 c 128
 806 896 806 896 913 946.5 c 128
 1020 997 1020 997 1142 997 c 257
 1218 997 1218 997 1280 975.5 c 128
 1342 954 1342 954 1385.5 909 c 128
 1429 864 1429 864 1452.5 795 c 128
 1476 726 1476 726 1476 630 c 257
 1476 487 1476 487 1438.5 368 c 128
 1401 249 1401 249 1333 163.5 c 128
 1265 78 1265 78 1168.5 30.5 c 128
 1072 -17 1072 -17 954 -17 c 257
 908 -17 908 -17 862 -1 c 128
 816 15 816 15 779.5 46 c 128
 743 77 743 77 720 121 c 128
 697 165 697 165 697 221 c 257
 697 296 697 296 717.5 353 c 128
 738 410 738 410 770 452.5 c 128
 802 495 802 495 841 524 c 128
 880 553 880 553 917.5 571 c 128
 955 589 955 589 986.5 598 c 128
 1018 607 1018 607 1034 610 c 257
 1064 470 l 257
 1039 459 1039 459 999 439 c 128
 959 419 959 419 920.5 386 c 128
 882 353 882 353 854 305.5 c 128
 826 258 826 258 826 194 c 257
 826 169 826 169 835.5 150 c 128
 845 131 845 131 861.5 118 c 128
 878 105 878 105 899 98 c 128
 920 91 920 91 944 91 c 257
 1010 91 1010 91 1062 117 c 128
 1114 143 1114 143 1153 186.5 c 128
 1192 230 1192 230 1219 286 c 128
 1246 342 1246 342 1262.5 402.5 c 128
 1279 463 1279 463 1286.5 523 c 128
 1294 583 1294 583 1294 633 c 257
 1294 676 1294 676 1286 717 c 128
 1278 758 1278 758 1258 789.5 c 128
 1238 821 1238 821 1204 840.5 c 128
 1170 860 1170 860 1118 860 c 257
 1044 860 1044 860 975.5 836.5 c 128
 907 813 907 813 844.5 774 c 128
 782 735 782 735 725 683 c 128
 668 631 668 631 617.5 575 c 128
 567 519 567 519 524 461.5 c 128
 481 404 481 404 445 353 c 257
 475 288 475 288 503 225 c 128
 531 162 531 162 552.5 99.5 c 128
 574 37 574 37 586.5 -26 c 128
 599 -89 599 -89 599 -154 c 257
 599 -215 599 -215 585 -279 c 128
 571 -343 571 -343 538 -395 c 128
 505 -447 505 -447 450 -480.5 c 128
 395 -514 395 -514 313 -514 c 257
 254 -514 254 -514 213.5 -493.5 c 128
 173 -473 173 -473 147.5 -439 c 128
 122 -405 122 -405 111 -360 c 128
 100 -315 100 -315 100 -266 c 257
 100 -183 100 -183 118.5 -105 c 128
 137 -27 137 -27 167 44.5 c 128
 197 116 197 116 235 180 c 128
 273 244 273 244 312 299 c 257
 297 333 297 333 281 371.5 c 128
 265 410 265 410 252 450 c 128
 239 490 239 490 230.5 529.5 c 128
 222 569 222 569 222 605 c 257
 222 683 222 683 243.5 751.5 c 128
 265 820 265 820 301.5 877 c 128
 338 934 338 934 385.5 978.5 c 128
 433 1023 433 1023 486 1054 c 128
 539 1085 539 1085 594 1101 c 128
 649 1117 649 1117 699 1117 c 257
 719 1031 l 257
EndSplineSet
EndChar
StartChar: trademark
Encoding: 530 8482 530
GlifName: trademark
Width: 1700
VWidth: 0
Flags: W
LayerCount: 2
Fore
SplineSet
556 900 m 257
 644 1400 l 257
 454 1400 l 257
 472 1500 l 257
 1053 1500 l 257
 1035 1400 l 257
 845 1400 l 257
 757 900 l 257
 556 900 l 257
1457 900 m 257
 1526 1290 l 257
 1446 1120 l 257
 1336 950 l 257
 1296 950 l 257
 1246 1120 l 257
 1226 1290 l 257
 1157 900 l 257
 977 900 l 257
 1083 1500 l 257
 1303 1500 l 257
 1352 1380 l 257
 1365 1230 l 257
 1432 1380 l 257
 1523 1500 l 257
 1743 1500 l 257
 1637 900 l 257
 1457 900 l 257
EndSplineSet
EndChar
StartChar: fourfifths
Encoding: 282 8536 282
GlifName: fourfifths
Width: 1500
VWidth: 0
Flags: W
LayerCount: 2
Fore
SplineSet
473 0 m 257
 288 0 l 257
 1063 1500 l 257
 1239 1500 l 257
 473 0 l 257
1164 561 m 257
 1189 567 1189 567 1223 567 c 257
 1272 567 1272 567 1312.5 551.5 c 128
 1353 536 1353 536 1380.5 507.5 c 128
 1408 479 1408 479 1420.5 439 c 128
 1433 399 1433 399 1427 351 c 257
 1418 274 1418 274 1368.5 216 c 128
 1319 158 1319 158 1245 118 c 128
 1171 78 1171 78 1080.5 58 c 128
 990 38 990 38 898 38 c 257
 917 151 l 257
 974 152 974 152 1035 165.5 c 128
 1096 179 1096 179 1146.5 203.5 c 128
 1197 228 1197 228 1230 262.5 c 128
 1263 297 1263 297 1266 341 c 257
 1269 384 1269 384 1250 413.5 c 128
 1231 443 1231 443 1189 449 c 257
 1170 452 1170 452 1155 450 c 128
 1140 448 1140 448 1127.5 443 c 128
 1115 438 1115 438 1102.5 431 c 128
 1090 424 1090 424 1077 417 c 257
 971 417 l 257
 1036 788 l 257
 1463 788 l 257
 1445 688 l 257
 1187 688 l 257
 1164 561 l 257
612 872 m 257
 523 872 l 257
 497 722 l 257
 343 722 l 257
 369 872 l 257
 74 872 l 257
 92 972 l 257
 430 1484 l 257
 580 1468 l 257
 352 1103 l 257
 242 972 l 257
 387 972 l 257
 413 1121 l 257
 565 1108 l 257
 541 972 l 257
 641 972 l 257
 612 872 l 257
EndSplineSet
EndChar
StartChar: onesixth
Encoding: 390 8537 390
GlifName: onesixth
Width: 1500
VWidth: 0
Flags: W
LayerCount: 2
Fore
SplineSet
474 0 m 257
 289 0 l 257
 1064 1500 l 257
 1240 1500 l 257
 474 0 l 257
369 1162 m 257
 438 1343 l 257
 300 1208 l 257
 252 1171 l 257
 190 1263 l 257
 469 1484 l 257
 581 1468 l 257
 467 822 l 257
 588 822 l 257
 571 722 l 257
 170 722 l 257
 187 822 l 257
 309 822 l 257
 369 1162 l 257
1438 678 m 257
 1427 685 1427 685 1412 686 c 128
 1397 687 1397 687 1385 688 c 257
 1343 691 1343 691 1300.5 673.5 c 128
 1258 656 1258 656 1220.5 622.5 c 128
 1183 589 1183 589 1153.5 541.5 c 128
 1124 494 1124 494 1110 438 c 257
 1205 510 l 257
 1219 513 1219 513 1232.5 514 c 128
 1246 515 1246 515 1257 516 c 257
 1301 519 1301 519 1340.5 507 c 128
 1380 495 1380 495 1408.5 468.5 c 128
 1437 442 1437 442 1452 400 c 128
 1467 358 1467 358 1463 300 c 257
 1459 244 1459 244 1432 193.5 c 128
 1405 143 1405 143 1362 105.5 c 128
 1319 68 1319 68 1263.5 47 c 128
 1208 26 1208 26 1146 29 c 257
 1092 32 1092 32 1054.5 49 c 128
 1017 66 1017 66 992.5 92.5 c 128
 968 119 968 119 954 152 c 128
 940 185 940 185 934.5 220 c 128
 929 255 929 255 929.5 289 c 128
 930 323 930 323 933 351 c 257
 943 440 943 440 985 523 c 128
 1027 606 1027 606 1091.5 668.5 c 128
 1156 731 1156 731 1237.5 766.5 c 128
 1319 802 1319 802 1408 796 c 257
 1417 795 1417 795 1433.5 794.5 c 128
 1450 794 1450 794 1475 787 c 257
 1438 678 l 257
1232 416 m 257
 1197 421 1197 421 1158.5 398.5 c 128
 1120 376 1120 376 1092 338 c 257
 1087 312 1087 312 1084.5 294 c 128
 1082 276 1082 276 1086 255 c 257
 1090 236 1090 236 1096 216 c 128
 1102 196 1102 196 1112 179.5 c 128
 1122 163 1122 163 1135.5 151.5 c 128
 1149 140 1149 140 1167 138 c 257
 1194 135 1194 135 1217.5 148.5 c 128
 1241 162 1241 162 1259 185.5 c 128
 1277 209 1277 209 1287.5 238.5 c 128
 1298 268 1298 268 1300 296 c 257
 1304 347 1304 347 1285.5 379 c 128
 1267 411 1267 411 1232 416 c 257
EndSplineSet
EndChar
StartChar: fivesixths
Encoding: 274 8538 274
GlifName: fivesixths
Width: 1500
VWidth: 0
Flags: W
LayerCount: 2
Fore
SplineSet
474 0 m 257
 289 0 l 257
 1064 1500 l 257
 1240 1500 l 257
 474 0 l 257
1438 678 m 257
 1427 685 1427 685 1412 686 c 128
 1397 687 1397 687 1385 688 c 257
 1343 691 1343 691 1300.5 673.5 c 128
 1258 656 1258 656 1220.5 622.5 c 128
 1183 589 1183 589 1153.5 541.5 c 128
 1124 494 1124 494 1110 438 c 257
 1205 510 l 257
 1219 513 1219 513 1232.5 514 c 128
 1246 515 1246 515 1257 516 c 257
 1301 519 1301 519 1340.5 507 c 128
 1380 495 1380 495 1408.5 468.5 c 128
 1437 442 1437 442 1452 400 c 128
 1467 358 1467 358 1463 300 c 257
 1459 244 1459 244 1432 193.5 c 128
 1405 143 1405 143 1362 105.5 c 128
 1319 68 1319 68 1263.5 47 c 128
 1208 26 1208 26 1146 29 c 257
 1092 32 1092 32 1054.5 49 c 128
 1017 66 1017 66 992.5 92.5 c 128
 968 119 968 119 954 152 c 128
 940 185 940 185 934.5 220 c 128
 929 255 929 255 929.5 289 c 128
 930 323 930 323 933 351 c 257
 943 440 943 440 985 523 c 128
 1027 606 1027 606 1091.5 668.5 c 128
 1156 731 1156 731 1237.5 766.5 c 128
 1319 802 1319 802 1408 796 c 257
 1417 795 1417 795 1433.5 794.5 c 128
 1450 794 1450 794 1475 787 c 257
 1438 678 l 257
1232 416 m 257
 1197 421 1197 421 1158.5 398.5 c 128
 1120 376 1120 376 1092 338 c 257
 1087 312 1087 312 1084.5 294 c 128
 1082 276 1082 276 1086 255 c 257
 1090 236 1090 236 1096 216 c 128
 1102 196 1102 196 1112 179.5 c 128
 1122 163 1122 163 1135.5 151.5 c 128
 1149 140 1149 140 1167 138 c 257
 1194 135 1194 135 1217.5 148.5 c 128
 1241 162 1241 162 1259 185.5 c 128
 1277 209 1277 209 1287.5 238.5 c 128
 1298 268 1298 268 1300 296 c 257
 1304 347 1304 347 1285.5 379 c 128
 1267 411 1267 411 1232 416 c 257
356 1245 m 257
 381 1251 381 1251 415 1251 c 257
 464 1251 464 1251 504.5 1235.5 c 128
 545 1220 545 1220 572.5 1191.5 c 128
 600 1163 600 1163 612.5 1123 c 128
 625 1083 625 1083 619 1035 c 257
 610 958 610 958 560.5 900 c 128
 511 842 511 842 437 802 c 128
 363 762 363 762 272.5 742 c 128
 182 722 182 722 90 722 c 257
 109 835 l 257
 166 836 166 836 227 849.5 c 128
 288 863 288 863 338.5 887.5 c 128
 389 912 389 912 422 946.5 c 128
 455 981 455 981 458 1025 c 257
 461 1068 461 1068 442 1097.5 c 128
 423 1127 423 1127 381 1133 c 257
 362 1136 362 1136 347 1134 c 128
 332 1132 332 1132 319.5 1127 c 128
 307 1122 307 1122 294.5 1115 c 128
 282 1108 282 1108 269 1101 c 257
 163 1101 l 257
 228 1472 l 257
 655 1472 l 257
 637 1372 l 257
 379 1372 l 257
 356 1245 l 257
EndSplineSet
EndChar
StartChar: oneeighth
Encoding: 384 8539 384
GlifName: oneeighth
Width: 1500
VWidth: 0
Flags: W
LayerCount: 2
Fore
SplineSet
474 0 m 257
 289 0 l 257
 1064 1500 l 257
 1240 1500 l 257
 474 0 l 257
369 1162 m 257
 438 1343 l 257
 300 1208 l 257
 252 1171 l 257
 190 1263 l 257
 469 1484 l 257
 581 1468 l 257
 467 822 l 257
 588 822 l 257
 571 722 l 257
 170 722 l 257
 187 822 l 257
 309 822 l 257
 369 1162 l 257
1270 796 m 257
 1371 788 1371 788 1423.5 741.5 c 128
 1476 695 1476 695 1469 605 c 257
 1467 580 1467 580 1454 557 c 128
 1441 534 1441 534 1421.5 515 c 128
 1402 496 1402 496 1378.5 481.5 c 128
 1355 467 1355 467 1331 460 c 257
 1352 452 1352 452 1375.5 431.5 c 128
 1399 411 1399 411 1417.5 383 c 128
 1436 355 1436 355 1446.5 321 c 128
 1457 287 1457 287 1453 251 c 257
 1447 190 1447 190 1417 146.5 c 128
 1387 103 1387 103 1342.5 75.5 c 128
 1298 48 1298 48 1244.5 37 c 128
 1191 26 1191 26 1138 29 c 257
 1087 32 1087 32 1044 47 c 128
 1001 62 1001 62 971 90 c 128
 941 118 941 118 925.5 159.5 c 128
 910 201 910 201 915 258 c 257
 920 330 920 330 968.5 381 c 128
 1017 432 1017 432 1095 462 c 257
 1077 477 1077 477 1061 492 c 128
 1045 507 1045 507 1033.5 524 c 128
 1022 541 1022 541 1016 560 c 128
 1010 579 1010 579 1012 600 c 257
 1016 652 1016 652 1042 690 c 128
 1068 728 1068 728 1105 752.5 c 128
 1142 777 1142 777 1185.5 788 c 128
 1229 799 1229 799 1270 796 c 257
1297 249 m 257
 1298 276 1298 276 1290 298 c 128
 1282 320 1282 320 1267.5 337.5 c 128
 1253 355 1253 355 1234.5 368.5 c 128
 1216 382 1216 382 1195 393 c 257
 1170 384 1170 384 1147.5 370.5 c 128
 1125 357 1125 357 1107.5 339 c 128
 1090 321 1090 321 1079.5 298 c 128
 1069 275 1069 275 1069 248 c 257
 1068 199 1068 199 1093.5 171 c 128
 1119 143 1119 143 1158 138 c 257
 1181 135 1181 135 1205.5 141.5 c 128
 1230 148 1230 148 1250 163 c 128
 1270 178 1270 178 1283 200 c 128
 1296 222 1296 222 1297 249 c 257
1168 616 m 257
 1167 599 1167 599 1173.5 584 c 128
 1180 569 1180 569 1190 557 c 128
 1200 545 1200 545 1212 535.5 c 128
 1224 526 1224 526 1235 520 c 257
 1274 539 1274 539 1296 561.5 c 128
 1318 584 1318 584 1317 614 c 257
 1316 650 1316 650 1300.5 666.5 c 128
 1285 683 1285 683 1260 688 c 257
 1243 691 1243 691 1226.5 686 c 128
 1210 681 1210 681 1197 670.5 c 128
 1184 660 1184 660 1176 645.5 c 128
 1168 631 1168 631 1168 616 c 257
EndSplineSet
EndChar
StartChar: threeeighths
Encoding: 521 8540 521
GlifName: threeeighths
Width: 1500
VWidth: 0
Flags: W
LayerCount: 2
Fore
SplineSet
474 0 m 257
 289 0 l 257
 1064 1500 l 257
 1240 1500 l 257
 474 0 l 257
239 1191 m 257
 264 1207 264 1207 302.5 1230.5 c 128
 341 1254 341 1254 382.5 1283 c 128
 424 1312 424 1312 461.5 1344 c 128
 499 1376 499 1376 522 1409 c 257
 385 1372 l 257
 220 1372 l 257
 248 1472 l 257
 662 1472 l 257
 647 1385 l 257
 626 1355 626 1355 591 1316 c 128
 556 1277 556 1277 514 1248 c 257
 428 1206 l 257
 473 1208 473 1208 511.5 1194.5 c 128
 550 1181 550 1181 577 1155 c 128
 604 1129 604 1129 617.5 1091.5 c 128
 631 1054 631 1054 627 1008 c 257
 620 931 620 931 572.5 877 c 128
 525 823 525 823 452 788.5 c 128
 379 754 379 754 287.5 738 c 128
 196 722 196 722 100 722 c 257
 118 822 l 257
 182 822 182 822 243.5 835 c 128
 305 848 305 848 353 871.5 c 128
 401 895 401 895 431 928.5 c 128
 461 962 461 962 462 1003 c 257
 463 1032 463 1032 452 1052 c 128
 441 1072 441 1072 422.5 1084 c 128
 404 1096 404 1096 379 1101.5 c 128
 354 1107 354 1107 327 1107 c 257
 319 1107 319 1107 305 1106.5 c 128
 291 1106 291 1106 275 1105 c 128
 259 1104 259 1104 245 1103 c 128
 231 1102 231 1102 224 1102 c 257
 239 1191 l 257
1270 796 m 257
 1371 788 1371 788 1423.5 741.5 c 128
 1476 695 1476 695 1469 605 c 257
 1467 580 1467 580 1454 557 c 128
 1441 534 1441 534 1421.5 515 c 128
 1402 496 1402 496 1378.5 481.5 c 128
 1355 467 1355 467 1331 460 c 257
 1352 452 1352 452 1375.5 431.5 c 128
 1399 411 1399 411 1417.5 383 c 128
 1436 355 1436 355 1446.5 321 c 128
 1457 287 1457 287 1453 251 c 257
 1447 190 1447 190 1417 146.5 c 128
 1387 103 1387 103 1342.5 75.5 c 128
 1298 48 1298 48 1244.5 37 c 128
 1191 26 1191 26 1138 29 c 257
 1087 32 1087 32 1044 47 c 128
 1001 62 1001 62 971 90 c 128
 941 118 941 118 925.5 159.5 c 128
 910 201 910 201 915 258 c 257
 920 330 920 330 968.5 381 c 128
 1017 432 1017 432 1095 462 c 257
 1077 477 1077 477 1061 492 c 128
 1045 507 1045 507 1033.5 524 c 128
 1022 541 1022 541 1016 560 c 128
 1010 579 1010 579 1012 600 c 257
 1016 652 1016 652 1042 690 c 128
 1068 728 1068 728 1105 752.5 c 128
 1142 777 1142 777 1185.5 788 c 128
 1229 799 1229 799 1270 796 c 257
1297 249 m 257
 1298 276 1298 276 1290 298 c 128
 1282 320 1282 320 1267.5 337.5 c 128
 1253 355 1253 355 1234.5 368.5 c 128
 1216 382 1216 382 1195 393 c 257
 1170 384 1170 384 1147.5 370.5 c 128
 1125 357 1125 357 1107.5 339 c 128
 1090 321 1090 321 1079.5 298 c 128
 1069 275 1069 275 1069 248 c 257
 1068 199 1068 199 1093.5 171 c 128
 1119 143 1119 143 1158 138 c 257
 1181 135 1181 135 1205.5 141.5 c 128
 1230 148 1230 148 1250 163 c 128
 1270 178 1270 178 1283 200 c 128
 1296 222 1296 222 1297 249 c 257
1168 616 m 257
 1167 599 1167 599 1173.5 584 c 128
 1180 569 1180 569 1190 557 c 128
 1200 545 1200 545 1212 535.5 c 128
 1224 526 1224 526 1235 520 c 257
 1274 539 1274 539 1296 561.5 c 128
 1318 584 1318 584 1317 614 c 257
 1316 650 1316 650 1300.5 666.5 c 128
 1285 683 1285 683 1260 688 c 257
 1243 691 1243 691 1226.5 686 c 128
 1210 681 1210 681 1197 670.5 c 128
 1184 660 1184 660 1176 645.5 c 128
 1168 631 1168 631 1168 616 c 257
EndSplineSet
EndChar
StartChar: fiveeighths
Encoding: 271 8541 271
GlifName: fiveeighths
Width: 1500
VWidth: 0
Flags: W
LayerCount: 2
Fore
SplineSet
474 0 m 257
 289 0 l 257
 1064 1500 l 257
 1240 1500 l 257
 474 0 l 257
1270 796 m 257
 1371 788 1371 788 1423.5 741.5 c 128
 1476 695 1476 695 1469 605 c 257
 1467 580 1467 580 1454 557 c 128
 1441 534 1441 534 1421.5 515 c 128
 1402 496 1402 496 1378.5 481.5 c 128
 1355 467 1355 467 1331 460 c 257
 1352 452 1352 452 1375.5 431.5 c 128
 1399 411 1399 411 1417.5 383 c 128
 1436 355 1436 355 1446.5 321 c 128
 1457 287 1457 287 1453 251 c 257
 1447 190 1447 190 1417 146.5 c 128
 1387 103 1387 103 1342.5 75.5 c 128
 1298 48 1298 48 1244.5 37 c 128
 1191 26 1191 26 1138 29 c 257
 1087 32 1087 32 1044 47 c 128
 1001 62 1001 62 971 90 c 128
 941 118 941 118 925.5 159.5 c 128
 910 201 910 201 915 258 c 257
 920 330 920 330 968.5 381 c 128
 1017 432 1017 432 1095 462 c 257
 1077 477 1077 477 1061 492 c 128
 1045 507 1045 507 1033.5 524 c 128
 1022 541 1022 541 1016 560 c 128
 1010 579 1010 579 1012 600 c 257
 1016 652 1016 652 1042 690 c 128
 1068 728 1068 728 1105 752.5 c 128
 1142 777 1142 777 1185.5 788 c 128
 1229 799 1229 799 1270 796 c 257
1297 249 m 257
 1298 276 1298 276 1290 298 c 128
 1282 320 1282 320 1267.5 337.5 c 128
 1253 355 1253 355 1234.5 368.5 c 128
 1216 382 1216 382 1195 393 c 257
 1170 384 1170 384 1147.5 370.5 c 128
 1125 357 1125 357 1107.5 339 c 128
 1090 321 1090 321 1079.5 298 c 128
 1069 275 1069 275 1069 248 c 257
 1068 199 1068 199 1093.5 171 c 128
 1119 143 1119 143 1158 138 c 257
 1181 135 1181 135 1205.5 141.5 c 128
 1230 148 1230 148 1250 163 c 128
 1270 178 1270 178 1283 200 c 128
 1296 222 1296 222 1297 249 c 257
1168 616 m 257
 1167 599 1167 599 1173.5 584 c 128
 1180 569 1180 569 1190 557 c 128
 1200 545 1200 545 1212 535.5 c 128
 1224 526 1224 526 1235 520 c 257
 1274 539 1274 539 1296 561.5 c 128
 1318 584 1318 584 1317 614 c 257
 1316 650 1316 650 1300.5 666.5 c 128
 1285 683 1285 683 1260 688 c 257
 1243 691 1243 691 1226.5 686 c 128
 1210 681 1210 681 1197 670.5 c 128
 1184 660 1184 660 1176 645.5 c 128
 1168 631 1168 631 1168 616 c 257
356 1245 m 257
 381 1251 381 1251 415 1251 c 257
 464 1251 464 1251 504.5 1235.5 c 128
 545 1220 545 1220 572.5 1191.5 c 128
 600 1163 600 1163 612.5 1123 c 128
 625 1083 625 1083 619 1035 c 257
 610 958 610 958 560.5 900 c 128
 511 842 511 842 437 802 c 128
 363 762 363 762 272.5 742 c 128
 182 722 182 722 90 722 c 257
 109 835 l 257
 166 836 166 836 227 849.5 c 128
 288 863 288 863 338.5 887.5 c 128
 389 912 389 912 422 946.5 c 128
 455 981 455 981 458 1025 c 257
 461 1068 461 1068 442 1097.5 c 128
 423 1127 423 1127 381 1133 c 257
 362 1136 362 1136 347 1134 c 128
 332 1132 332 1132 319.5 1127 c 128
 307 1122 307 1122 294.5 1115 c 128
 282 1108 282 1108 269 1101 c 257
 163 1101 l 257
 228 1472 l 257
 655 1472 l 257
 637 1372 l 257
 379 1372 l 257
 356 1245 l 257
EndSplineSet
EndChar
StartChar: seveneighths
Encoding: 472 8542 472
GlifName: seveneighths
Width: 1500
VWidth: 0
Flags: W
LayerCount: 2
Fore
SplineSet
473 0 m 257
 288 0 l 257
 1063 1500 l 257
 1239 1500 l 257
 473 0 l 257
1269 796 m 257
 1370 788 1370 788 1422.5 741.5 c 128
 1475 695 1475 695 1468 605 c 257
 1466 580 1466 580 1453 557 c 128
 1440 534 1440 534 1420.5 515 c 128
 1401 496 1401 496 1377.5 481.5 c 128
 1354 467 1354 467 1330 460 c 257
 1351 452 1351 452 1374.5 431.5 c 128
 1398 411 1398 411 1416.5 383 c 128
 1435 355 1435 355 1445.5 321 c 128
 1456 287 1456 287 1452 251 c 257
 1446 190 1446 190 1416 146.5 c 128
 1386 103 1386 103 1341.5 75.5 c 128
 1297 48 1297 48 1243.5 37 c 128
 1190 26 1190 26 1137 29 c 257
 1086 32 1086 32 1043 47 c 128
 1000 62 1000 62 970 90 c 128
 940 118 940 118 924.5 159.5 c 128
 909 201 909 201 914 258 c 257
 919 330 919 330 967.5 381 c 128
 1016 432 1016 432 1094 462 c 257
 1076 477 1076 477 1060 492 c 128
 1044 507 1044 507 1032.5 524 c 128
 1021 541 1021 541 1015 560 c 128
 1009 579 1009 579 1011 600 c 257
 1015 652 1015 652 1041 690 c 128
 1067 728 1067 728 1104 752.5 c 128
 1141 777 1141 777 1184.5 788 c 128
 1228 799 1228 799 1269 796 c 257
1296 249 m 257
 1297 276 1297 276 1289 298 c 128
 1281 320 1281 320 1266.5 337.5 c 128
 1252 355 1252 355 1233.5 368.5 c 128
 1215 382 1215 382 1194 393 c 257
 1169 384 1169 384 1146.5 370.5 c 128
 1124 357 1124 357 1106.5 339 c 128
 1089 321 1089 321 1078.5 298 c 128
 1068 275 1068 275 1068 248 c 257
 1067 199 1067 199 1092.5 171 c 128
 1118 143 1118 143 1157 138 c 257
 1180 135 1180 135 1204.5 141.5 c 128
 1229 148 1229 148 1249 163 c 128
 1269 178 1269 178 1282 200 c 128
 1295 222 1295 222 1296 249 c 257
1167 616 m 257
 1166 599 1166 599 1172.5 584 c 128
 1179 569 1179 569 1189 557 c 128
 1199 545 1199 545 1211 535.5 c 128
 1223 526 1223 526 1234 520 c 257
 1273 539 1273 539 1295 561.5 c 128
 1317 584 1317 584 1316 614 c 257
 1315 650 1315 650 1299.5 666.5 c 128
 1284 683 1284 683 1259 688 c 257
 1242 691 1242 691 1225.5 686 c 128
 1209 681 1209 681 1196 670.5 c 128
 1183 660 1183 660 1175 645.5 c 128
 1167 631 1167 631 1167 616 c 257
226 1472 m 257
 723 1472 l 257
 709 1391 l 257
 702 1353 702 1353 669.5 1309.5 c 128
 637 1266 637 1266 588 1210 c 257
 556 1172 556 1172 525 1134 c 128
 494 1096 494 1096 467.5 1057 c 128
 441 1018 441 1018 421.5 977.5 c 128
 402 937 402 937 392 895 c 257
 388 877 388 877 383 854.5 c 128
 378 832 378 832 373 809 c 128
 368 786 368 786 363.5 763.5 c 128
 359 741 359 741 356 722 c 257
 194 722 l 257
 197 738 197 738 202.5 765 c 128
 208 792 208 792 214.5 822 c 128
 221 852 221 852 228.5 881 c 128
 236 910 236 910 243 931 c 257
 276 1030 276 1030 333 1112.5 c 128
 390 1195 390 1195 456 1265 c 257
 481 1291 481 1291 498 1316 c 128
 515 1341 515 1341 524 1358 c 257
 206 1358 l 257
 226 1472 l 257
EndSplineSet
EndChar
StartChar: Oneroman
Encoding: 62 8544 62
GlifName: O_neroman
Width: 600
VWidth: 0
Flags: W
LayerCount: 2
Fore
SplineSet
115 0 m 257
 337 1263 l 257
 345 1494 l 257
 720 1525 l 257
 452 0 l 257
 115 0 l 257
EndSplineSet
EndChar
StartChar: Threeroman
Encoding: 82 8546 82
GlifName: T_hreeroman
Width: 1800
VWidth: 0
Flags: W
LayerCount: 2
Fore
SplineSet
115 0 m 257
 337 1263 l 257
 345 1494 l 257
 720 1525 l 257
 452 0 l 257
 115 0 l 257
715 0 m 257
 937 1263 l 257
 945 1494 l 257
 1320 1525 l 257
 1052 0 l 257
 715 0 l 257
1315 0 m 257
 1537 1263 l 257
 1545 1494 l 257
 1920 1525 l 257
 1652 0 l 257
 1315 0 l 257
EndSplineSet
EndChar
StartChar: Fourroman
Encoding: 30 8547 30
GlifName: F_ourroman
Width: 1800
VWidth: 0
Flags: W
LayerCount: 2
Fore
SplineSet
115 0 m 257
 337 1263 l 257
 345 1494 l 257
 720 1525 l 257
 452 0 l 257
 115 0 l 257
2134 1500 m 257
 1495 204 l 257
 1426 -25 l 257
 1061 5 l 257
 847 1492 l 257
 1165 1526 l 257
 1272 700 l 257
 1288 260 l 257
 1435 700 l 257
 1824 1500 l 257
 2134 1500 l 257
EndSplineSet
EndChar
StartChar: Sevenroman
Encoding: 74 8550 74
GlifName: S_evenroman
Width: 2300
VWidth: 0
Flags: W
LayerCount: 2
Fore
SplineSet
1545 1500 m 257
 906 204 l 257
 837 -25 l 257
 472 5 l 257
 258 1492 l 257
 576 1526 l 257
 683 700 l 257
 699 260 l 257
 846 700 l 257
 1235 1500 l 257
 1545 1500 l 257
1415 0 m 257
 1637 1263 l 257
 1645 1494 l 257
 2020 1525 l 257
 1752 0 l 257
 1415 0 l 257
1915 0 m 257
 2137 1263 l 257
 2145 1494 l 257
 2520 1525 l 257
 2252 0 l 257
 1915 0 l 257
EndSplineSet
EndChar
StartChar: Eightroman
Encoding: 22 8551 22
GlifName: E_ightroman
Width: 2800
VWidth: 0
Flags: W
LayerCount: 2
Fore
SplineSet
1545 1500 m 257
 906 204 l 257
 837 -25 l 257
 472 5 l 257
 258 1492 l 257
 576 1526 l 257
 683 700 l 257
 699 260 l 257
 846 700 l 257
 1235 1500 l 257
 1545 1500 l 257
1415 0 m 257
 1637 1263 l 257
 1645 1494 l 257
 2020 1525 l 257
 1752 0 l 257
 1415 0 l 257
1915 0 m 257
 2137 1263 l 257
 2145 1494 l 257
 2520 1525 l 257
 2252 0 l 257
 1915 0 l 257
2415 0 m 257
 2637 1263 l 257
 2645 1494 l 257
 3020 1525 l 257
 2752 0 l 257
 2415 0 l 257
EndSplineSet
EndChar
StartChar: Nineroman
Encoding: 50 8552 50
GlifName: N_ineroman
Width: 1800
VWidth: 0
Flags: W
LayerCount: 2
Fore
SplineSet
115 0 m 257
 337 1263 l 257
 345 1494 l 257
 720 1525 l 257
 452 0 l 257
 115 0 l 257
1366 375 m 257
 1312 592 l 257
 1220 400 l 257
 910 0 l 257
 576 0 l 257
 1195 797 l 257
 899 1492 l 257
 1242 1524 l 257
 1380 1198 l 257
 1434 962 l 257
 1510 1154 l 257
 1777 1500 l 257
 2113 1500 l 257
 1549 775 l 257
 1878 0 l 257
 1524 0 l 257
 1366 375 l 257
EndSplineSet
EndChar
StartChar: Elevenroman
Encoding: 23 8554 23
GlifName: E_levenroman
Width: 1800
VWidth: 0
Flags: W
LayerCount: 2
Fore
SplineSet
766 375 m 257
 712 592 l 257
 620 400 l 257
 310 0 l 257
 -24 0 l 257
 595 797 l 257
 299 1492 l 257
 642 1524 l 257
 780 1198 l 257
 834 962 l 257
 910 1154 l 257
 1177 1500 l 257
 1513 1500 l 257
 949 775 l 257
 1278 0 l 257
 924 0 l 257
 766 375 l 257
1415 0 m 257
 1637 1263 l 257
 1645 1494 l 257
 2020 1525 l 257
 1752 0 l 257
 1415 0 l 257
EndSplineSet
EndChar
StartChar: oneroman
Encoding: 389 8560 389
GlifName: oneroman
Width: 600
VWidth: 0
Flags: W
LayerCount: 2
Fore
SplineSet
400 0 m 257
 100 0 l 257
 296 1114 l 257
 602 1147 l 257
 400 0 l 257
EndSplineSet
EndChar
StartChar: tworoman
Encoding: 539 8561 539
GlifName: tworoman
Width: 1100
VWidth: 0
Flags: W
LayerCount: 2
Fore
SplineSet
400 0 m 257
 100 0 l 257
 296 1114 l 257
 602 1147 l 257
 400 0 l 257
900 0 m 257
 600 0 l 257
 796 1114 l 257
 1102 1147 l 257
 900 0 l 257
EndSplineSet
EndChar
StartChar: threeroman
Encoding: 525 8562 525
GlifName: threeroman
Width: 1600
VWidth: 0
Flags: W
LayerCount: 2
Fore
SplineSet
400 0 m 257
 100 0 l 257
 296 1114 l 257
 602 1147 l 257
 400 0 l 257
900 0 m 257
 600 0 l 257
 796 1114 l 257
 1102 1147 l 257
 900 0 l 257
1400 0 m 257
 1100 0 l 257
 1296 1114 l 257
 1602 1147 l 257
 1400 0 l 257
EndSplineSet
EndChar
StartChar: fourroman
Encoding: 284 8563 284
GlifName: fourroman
Width: 1600
VWidth: 0
Flags: W
LayerCount: 2
Fore
SplineSet
1085 700 m 257
 1088 300 l 257
 1231 700 l 257
 1429 1093 l 257
 1743 1129 l 257
 1164 -24 l 257
 872 5 l 257
 712 1093 l 257
 1023 1125 l 257
 1085 700 l 257
400 0 m 257
 100 0 l 257
 296 1114 l 257
 602 1147 l 257
 400 0 l 257
EndSplineSet
EndChar
StartChar: sixroman
Encoding: 483 8565 483
GlifName: sixroman
Width: 1500
VWidth: 0
Flags: W
LayerCount: 2
Fore
SplineSet
585 700 m 257
 588 300 l 257
 731 700 l 257
 929 1093 l 257
 1243 1129 l 257
 664 -24 l 257
 372 5 l 257
 212 1093 l 257
 523 1125 l 257
 585 700 l 257
1400 0 m 257
 1100 0 l 257
 1296 1114 l 257
 1602 1147 l 257
 1400 0 l 257
EndSplineSet
EndChar
StartChar: nineroman
Encoding: 363 8568 363
GlifName: nineroman
Width: 1700
VWidth: 0
Flags: W
LayerCount: 2
Fore
SplineSet
1244 272 m 257
 1214 474 l 257
 1110 272 l 257
 895 0 l 257
 566 0 l 257
 1080 585 l 257
 813 1093 l 257
 1150 1120 l 257
 1252 900 l 257
 1279 699 l 257
 1374 900 l 257
 1548 1096 l 257
 1899 1124 l 257
 1423 581 l 257
 1729 0 l 257
 1378 0 l 257
 1244 272 l 257
400 0 m 257
 100 0 l 257
 296 1114 l 257
 602 1147 l 257
 400 0 l 257
EndSplineSet
EndChar
StartChar: tenroman
Encoding: 514 8569 514
GlifName: tenroman
Width: 1100
VWidth: 0
Flags: W
LayerCount: 2
Fore
SplineSet
644 272 m 257
 614 474 l 257
 510 272 l 257
 295 0 l 257
 -34 0 l 257
 480 585 l 257
 213 1093 l 257
 550 1120 l 257
 652 900 l 257
 679 699 l 257
 774 900 l 257
 948 1096 l 257
 1299 1124 l 257
 823 581 l 257
 1129 0 l 257
 778 0 l 257
 644 272 l 257
EndSplineSet
EndChar
StartChar: elevenroman
Encoding: 241 8570 241
GlifName: elevenroman
Width: 1600
VWidth: 0
Flags: W
LayerCount: 2
Fore
SplineSet
644 272 m 257
 614 474 l 257
 510 272 l 257
 295 0 l 257
 -34 0 l 257
 480 585 l 257
 213 1093 l 257
 550 1120 l 257
 652 900 l 257
 679 699 l 257
 774 900 l 257
 948 1096 l 257
 1299 1124 l 257
 823 581 l 257
 1129 0 l 257
 778 0 l 257
 644 272 l 257
1500 0 m 257
 1200 0 l 257
 1396 1114 l 257
 1702 1147 l 257
 1500 0 l 257
EndSplineSet
EndChar
StartChar: carriagereturn
Encoding: 179 8629 179
GlifName: carriagereturn
Width: 1100
VWidth: 0
Flags: W
LayerCount: 2
Fore
SplineSet
841 1300 m 257
 1000 1300 l 257
 1000 300 l 257
 547 300 l 257
 443 312 l 257
 500 237 l 257
 500 0 l 257
 199 300 l 257
 80 400 l 257
 200 500 l 257
 500 800 l 257
 500 565 l 257
 443 490 l 257
 547 500 l 257
 841 500 l 257
 841 1300 l 257
EndSplineSet
EndChar
StartChar: arrowdblup
Encoding: 124 8657 124
GlifName: arrowdblup
Width: 1200
VWidth: 0
Flags: W
LayerCount: 2
Fore
SplineSet
690 1393 m 257
 1056 1027 l 257
 1056 857 l 257
 812 1102 l 257
 799 1002 l 257
 799 0 l 257
 683 0 l 257
 683 852 l 257
 711 1202 l 257
 599 1333 l 257
 487 1202 l 257
 515 852 l 257
 515 0 l 257
 399 0 l 257
 399 1002 l 257
 387 1102 l 257
 142 857 l 257
 142 1027 l 257
 508 1393 l 257
 599 1500 l 257
 690 1393 l 257
EndSplineSet
EndChar
StartChar: arrowdblright
Encoding: 121 8658 121
GlifName: arrowdblright
Width: 1600
VWidth: 0
Flags: W
LayerCount: 2
Fore
SplineSet
1500 600 m 257
 1393 509 l 257
 1027 143 l 257
 857 143 l 257
 1102 388 l 257
 1002 400 l 257
 100 400 l 257
 100 516 l 257
 852 516 l 257
 1202 488 l 257
 1333 600 l 257
 1202 712 l 257
 852 684 l 257
 100 684 l 257
 100 800 l 257
 1002 800 l 257
 1102 813 l 257
 857 1057 l 257
 1027 1057 l 257
 1393 691 l 257
 1500 600 l 257
EndSplineSet
EndChar
StartChar: pagedown
Encoding: 398 8671 398
GlifName: pagedown
Width: 1000
VWidth: 0
Flags: W
LayerCount: 2
Fore
SplineSet
200 1140 m 257
 400 1140 l 257
 400 1500 l 257
 600 1500 l 257
 600 1140 l 257
 800 1140 l 257
 800 1000 l 257
 600 1000 l 257
 600 840 l 257
 800 840 l 257
 800 700 l 257
 600 700 l 257
 600 447 l 257
 590 343 l 257
 665 400 l 257
 900 400 l 257
 600 100 l 257
 500 -20 l 257
 400 99 l 257
 100 400 l 257
 337 400 l 257
 412 343 l 257
 400 447 l 257
 400 700 l 257
 200 700 l 257
 200 840 l 257
 400 840 l 257
 400 1000 l 257
 200 1000 l 257
 200 1140 l 257
EndSplineSet
EndChar
StartChar: rightwardsdashedarrow
Encoding: 460 8674 460
GlifName: rightwardsdashedarrow
Width: 1600
VWidth: 0
Flags: W
LayerCount: 2
Fore
SplineSet
950 500 m 257
 950 700 l 257
 1053 700 l 257
 1157 690 l 257
 1100 765 l 257
 1100 1000 l 257
 1400 700 l 257
 1520 600 l 257
 1401 500 l 257
 1100 200 l 257
 1100 437 l 257
 1157 512 l 257
 1053 500 l 257
 950 500 l 257
800 500 m 257
 550 500 l 257
 550 700 l 257
 800 700 l 257
 800 500 l 257
400 500 m 257
 150 500 l 257
 150 700 l 257
 400 700 l 257
 400 500 l 257
EndSplineSet
EndChar
StartChar: downwardsdashedarrow
Encoding: 229 8675 229
GlifName: downwardsdashedarrow
Width: 1000
VWidth: 0
Flags: W
LayerCount: 2
Fore
SplineSet
400 550 m 257
 600 550 l 257
 600 447 l 257
 590 343 l 257
 665 400 l 257
 900 400 l 257
 600 100 l 257
 500 -20 l 257
 400 99 l 257
 100 400 l 257
 337 400 l 257
 412 343 l 257
 400 447 l 257
 400 550 l 257
400 700 m 257
 400 950 l 257
 600 950 l 257
 600 700 l 257
 400 700 l 257
400 1100 m 257
 400 1350 l 257
 600 1350 l 257
 600 1100 l 257
 400 1100 l 257
EndSplineSet
EndChar
StartChar: capslock
Encoding: 177 8682 177
GlifName: capslock
Width: 1200
VWidth: 0
Flags: W
LayerCount: 2
Fore
SplineSet
599 1430 m 257
 690 1323 l 257
 1072 957 l 257
 1072 855 l 257
 917 855 l 257
 909 755 l 257
 909 400 l 257
 289 400 l 257
 289 755 l 257
 280 855 l 257
 126 855 l 257
 126 957 l 257
 508 1323 l 257
 599 1430 l 257
399 662 m 257
 399 500 l 257
 799 500 l 257
 799 662 l 257
 820 937 l 257
 932 937 l 257
 599 1273 l 257
 266 937 l 257
 379 937 l 257
 399 662 l 257
909 300 m 257
 909 200 l 257
 920 0 l 257
 278 0 l 257
 289 200 l 257
 289 300 l 257
 909 300 l 257
399 94 m 257
 799 94 l 257
 799 200 l 257
 399 200 l 257
 399 94 l 257
EndSplineSet
EndChar
StartChar: universal
Encoding: 551 8704 551
GlifName: universal
Width: 1400
VWidth: 0
Flags: W
LayerCount: 2
Fore
SplineSet
1141 1300 m 257
 1331 1300 l 257
 742 -20 l 257
 599 0 l 257
 561 160 l 257
 72 1300 l 257
 249 1300 l 257
 379 1000 l 257
 1010 1000 l 257
 1141 1300 l 257
640 400 m 257
 694 112 l 257
 748 400 l 257
 944 850 l 257
 444 850 l 257
 640 400 l 257
EndSplineSet
EndChar
StartChar: complement
Encoding: 204 8705 204
GlifName: complement
Width: 1200
VWidth: 0
Flags: W
LayerCount: 2
Fore
SplineSet
600 143 m 257
 751 143 751 143 825.5 208.5 c 128
 900 274 900 274 900 416 c 257
 1074 400 l 257
 1074 312 1074 312 1045.5 236 c 128
 1017 160 1017 160 958.5 103.5 c 128
 900 47 900 47 810.5 15 c 128
 721 -17 721 -17 600 -17 c 257
 500 -17 500 -17 424 8 c 128
 348 33 348 33 292.5 78 c 128
 237 123 237 123 200 185 c 128
 163 247 163 247 141 321.5 c 128
 119 396 119 396 109.5 479.5 c 128
 100 563 100 563 100 650 c 257
 100 737 100 737 109.5 820.5 c 128
 119 904 119 904 141 978.5 c 128
 163 1053 163 1053 200 1115 c 128
 237 1177 237 1177 292.5 1222 c 128
 348 1267 348 1267 424 1292 c 128
 500 1317 500 1317 600 1317 c 257
 716 1317 716 1317 804.5 1285 c 128
 893 1253 893 1253 953 1196.5 c 128
 1013 1140 1013 1140 1043.5 1064 c 128
 1074 988 1074 988 1074 900 c 257
 900 885 l 257
 900 1015 900 1015 827 1086 c 128
 754 1157 754 1157 600 1157 c 257
 532 1157 532 1157 483 1137 c 128
 434 1117 434 1117 399.5 1081.5 c 128
 365 1046 365 1046 343.5 997.5 c 128
 322 949 322 949 310 892.5 c 128
 298 836 298 836 294 774 c 128
 290 712 290 712 290 650 c 257
 290 587 290 587 294 525.5 c 128
 298 464 298 464 310 407.5 c 128
 322 351 322 351 343.5 302.5 c 128
 365 254 365 254 399.5 218.5 c 128
 434 183 434 183 483 163 c 128
 532 143 532 143 600 143 c 257
EndSplineSet
EndChar
StartChar: emptyset
Encoding: 245 8709 245
GlifName: emptyset
Width: 1400
VWidth: 0
Flags: W
LayerCount: 2
Fore
SplineSet
698 -17 m 257
 560 -17 560 -17 451 33 c 128
 342 83 342 83 265.5 172.5 c 128
 189 262 189 262 148.5 384 c 128
 108 506 108 506 108 650 c 257
 108 794 108 794 147.5 916 c 128
 187 1038 187 1038 262 1127.5 c 128
 337 1217 337 1217 447 1267 c 128
 557 1317 557 1317 698 1317 c 257
 836 1317 836 1317 945 1267 c 128
 1054 1217 1054 1217 1130.5 1127.5 c 128
 1207 1038 1207 1038 1247.5 916 c 128
 1288 794 1288 794 1288 650 c 257
 1288 506 1288 506 1248.5 384 c 128
 1209 262 1209 262 1134 172.5 c 128
 1059 83 1059 83 949 33 c 128
 839 -17 839 -17 698 -17 c 257
1106 623 m 257
 1106 728 1106 728 1083.5 826 c 128
 1061 924 1061 924 1012 1000.5 c 128
 963 1077 963 1077 884 1123 c 128
 805 1169 805 1169 693 1169 c 257
 585 1169 585 1169 509 1128 c 128
 433 1087 433 1087 384 1018.5 c 128
 335 950 335 950 312.5 862 c 128
 290 774 290 774 290 680 c 257
 290 574 290 574 312.5 475 c 128
 335 376 335 376 384.5 299.5 c 128
 434 223 434 223 512.5 177 c 128
 591 131 591 131 703 131 c 257
 809 131 809 131 885.5 173 c 128
 962 215 962 215 1011 284 c 128
 1060 353 1060 353 1083 441.5 c 128
 1106 530 1106 530 1106 623 c 257
473 -200 m 257
 318 -200 l 257
 927 1500 l 257
 1073 1500 l 257
 473 -200 l 257
EndSplineSet
EndChar
StartChar: notelement
Encoding: 367 8713 367
GlifName: notelement
Width: 1500
VWidth: 0
Flags: W
LayerCount: 2
Fore
SplineSet
620 -200 m 257
 465 -200 l 257
 1074 1500 l 257
 1220 1500 l 257
 620 -200 l 257
1420 0 m 257
 843 0 l 257
 672 0 672 0 534.5 40.5 c 128
 397 81 397 81 300.5 162.5 c 128
 204 244 204 244 152 366 c 128
 100 488 100 488 100 650 c 257
 100 812 100 812 152 934 c 128
 204 1056 204 1056 300.5 1137.5 c 128
 397 1219 397 1219 534.5 1259.5 c 128
 672 1300 672 1300 843 1300 c 257
 1420 1300 l 257
 1400 1146 l 257
 847 1146 l 257
 716 1146 716 1146 611 1116.5 c 128
 506 1087 506 1087 432.5 1026 c 128
 359 965 359 965 320 871 c 257
 292 806 292 806 284 725 c 257
 1400 725 l 257
 1400 575 l 257
 284 575 l 257
 292 493 292 493 320 428 c 257
 359 334 359 334 432.5 273 c 128
 506 212 506 212 611 182.5 c 128
 716 153 716 153 847 153 c 257
 1400 153 l 257
 1420 0 l 257
EndSplineSet
EndChar
StartChar: minus
Encoding: 349 8722 349
GlifName: minus
Width: 1100
VWidth: 0
Flags: W
LayerCount: 2
Fore
SplineSet
182 700 m 257
 1082 700 l 257
 1082 545 l 257
 182 545 l 257
 182 700 l 257
EndSplineSet
EndChar
StartChar: minusplus
Encoding: 351 8723 351
GlifName: minusplus
Width: 1100
VWidth: 0
Flags: W
LayerCount: 2
Fore
SplineSet
188 1200 m 257
 1088 1200 l 257
 1088 1060 l 257
 188 1060 l 257
 188 1200 l 257
188 612 m 257
 561 612 l 257
 561 949 l 257
 716 949 l 257
 716 612 l 257
 1088 612 l 257
 1088 488 l 257
 716 488 l 257
 716 150 l 257
 561 150 l 257
 561 488 l 257
 188 488 l 257
 188 612 l 257
EndSplineSet
EndChar
StartChar: logicaland
Encoding: 340 8743 340
GlifName: logicaland
Width: 1300
VWidth: 0
Flags: W
LayerCount: 2
Fore
SplineSet
779 1320 m 257
 1221 0 l 257
 1057 0 l 257
 721 980 l 257
 656 1220 l 257
 591 980 l 257
 254 0 l 257
 92 0 l 257
 521 1300 l 257
 779 1320 l 257
EndSplineSet
EndChar
StartChar: intersection
Encoding: 322 8745 322
GlifName: intersection
Width: 1500
VWidth: 0
Flags: W
LayerCount: 2
Fore
SplineSet
750 1140 m 257
 664 1140 664 1140 596 1116 c 128
 528 1092 528 1092 476 1050.5 c 128
 424 1009 424 1009 386.5 953 c 128
 349 897 349 897 325 834 c 128
 301 771 301 771 290 704 c 128
 279 637 279 637 279 573 c 257
 279 0 l 257
 100 0 l 257
 100 538 l 257
 100 709 100 709 140.5 849.5 c 128
 181 990 181 990 262.5 1090 c 128
 344 1190 344 1190 466 1245 c 128
 588 1300 588 1300 750 1300 c 257
 912 1300 912 1300 1033.5 1245 c 128
 1155 1190 1155 1190 1236.5 1090 c 128
 1318 990 1318 990 1358.5 849.5 c 128
 1399 709 1399 709 1399 538 c 257
 1399 0 l 257
 1220 0 l 257
 1220 573 l 257
 1220 637 1220 637 1209 704 c 128
 1198 771 1198 771 1174 834 c 128
 1150 897 1150 897 1113 953 c 128
 1076 1009 1076 1009 1023.5 1050.5 c 128
 971 1092 971 1092 903 1116 c 128
 835 1140 835 1140 750 1140 c 257
EndSplineSet
EndChar
StartChar: because
Encoding: 146 8757 146
GlifName: because
Width: 1200
VWidth: 0
Flags: W
LayerCount: 2
Fore
SplineSet
95 1061 m 257
 98 1099 98 1099 118 1134.5 c 128
 138 1170 138 1170 168.5 1196 c 128
 199 1222 199 1222 236.5 1236 c 128
 274 1250 274 1250 311 1246 c 257
 387 1238 387 1238 428 1188 c 128
 469 1138 469 1138 464 1061 c 257
 462 1022 462 1022 442 987 c 128
 422 952 422 952 391.5 925.5 c 128
 361 899 361 899 323 884.5 c 128
 285 870 285 870 248 873 c 257
 209 876 209 876 179 891.5 c 128
 149 907 149 907 129.5 932.5 c 128
 110 958 110 958 101 991 c 128
 92 1024 92 1024 95 1061 c 257
895 1061 m 257
 898 1099 898 1099 918 1134.5 c 128
 938 1170 938 1170 968.5 1196 c 128
 999 1222 999 1222 1036.5 1236 c 128
 1074 1250 1074 1250 1111 1246 c 257
 1187 1238 1187 1238 1228 1188 c 128
 1269 1138 1269 1138 1264 1061 c 257
 1262 1022 1262 1022 1242 987 c 128
 1222 952 1222 952 1191.5 925.5 c 128
 1161 899 1161 899 1123 884.5 c 128
 1085 870 1085 870 1048 873 c 257
 1009 876 1009 876 979 891.5 c 128
 949 907 949 907 929.5 932.5 c 128
 910 958 910 958 901 991 c 128
 892 1024 892 1024 895 1061 c 257
495 171 m 257
 498 209 498 209 518 244.5 c 128
 538 280 538 280 568.5 306 c 128
 599 332 599 332 636.5 346 c 128
 674 360 674 360 711 356 c 257
 787 348 787 348 828 298 c 128
 869 248 869 248 864 171 c 257
 862 132 862 132 842 97 c 128
 822 62 822 62 791.5 35.5 c 128
 761 9 761 9 723 -5.5 c 128
 685 -20 685 -20 648 -17 c 257
 609 -14 609 -14 579 1.5 c 128
 549 17 549 17 529.5 42.5 c 128
 510 68 510 68 501 101 c 128
 492 134 492 134 495 171 c 257
EndSplineSet
EndChar
StartChar: asymptoticallyequal
Encoding: 139 8771 139
GlifName: asymptoticallyequal
Width: 1000
VWidth: 0
Flags: W
LayerCount: 2
Fore
SplineSet
138 400 m 257
 938 400 l 257
 938 260 l 257
 138 260 l 257
 138 400 l 257
698 500 m 257
 663 500 663 500 632 512.5 c 128
 601 525 601 525 572.5 544 c 128
 544 563 544 563 517.5 585 c 128
 491 607 491 607 465.5 626 c 128
 440 645 440 645 414.5 657.5 c 128
 389 670 389 670 363 670 c 257
 332 670 332 670 304.5 662.5 c 128
 277 655 277 655 250 641 c 128
 223 627 223 627 195.5 606.5 c 128
 168 586 168 586 138 560 c 257
 138 660 l 257
 158 688 158 688 181 713 c 128
 204 738 204 738 233 757.5 c 128
 262 777 262 777 297.5 788.5 c 128
 333 800 333 800 378 800 c 257
 430 800 430 800 474.5 773.5 c 128
 519 747 519 747 559 715 c 128
 599 683 599 683 636.5 656.5 c 128
 674 630 674 630 713 630 c 257
 774 630 774 630 826 658.5 c 128
 878 687 878 687 938 740 c 257
 938 640 l 257
 918 612 918 612 895 587 c 128
 872 562 872 562 843 542.5 c 128
 814 523 814 523 778.5 511.5 c 128
 743 500 743 500 698 500 c 257
EndSplineSet
EndChar
StartChar: estimate
Encoding: 254 8793 254
GlifName: estimate
Width: 1000
VWidth: 0
Flags: W
LayerCount: 2
Fore
SplineSet
120 600 m 257
 920 600 l 257
 920 460 l 257
 120 460 l 257
 120 600 l 257
120 300 m 257
 920 300 l 257
 920 160 l 257
 120 160 l 257
 120 300 l 257
951 727 m 257
 745 727 l 257
 560 915 l 257
 317 728 l 257
 100 728 l 257
 523 1104 l 257
 652 1120 l 257
 951 727 l 257
EndSplineSet
EndChar
StartChar: equivalence
Encoding: 252 8801 252
GlifName: equivalence
Width: 1000
VWidth: 0
Flags: W
LayerCount: 2
Fore
SplineSet
120 600 m 257
 920 600 l 257
 920 460 l 257
 120 460 l 257
 120 600 l 257
120 300 m 257
 920 300 l 257
 920 160 l 257
 120 160 l 257
 120 300 l 257
120 900 m 257
 920 900 l 257
 920 760 l 257
 120 760 l 257
 120 900 l 257
EndSplineSet
EndChar
StartChar: lessequal
Encoding: 336 8804 336
GlifName: lessequal
Width: 1300
VWidth: 0
Flags: W
LayerCount: 2
Fore
SplineSet
130 135 m 257
 1030 135 l 257
 1010 0 l 257
 130 0 l 257
 130 135 l 257
1292 1172 m 257
 1244 957 l 257
 515 673 l 257
 1120 392 l 257
 1072 177 l 257
 156 586 l 257
 195 766 l 257
 1292 1172 l 257
EndSplineSet
EndChar
StartChar: circleplus
Encoding: 189 8853 189
GlifName: circleplus
Width: 1700
VWidth: 0
Flags: W
LayerCount: 2
Fore
SplineSet
82 750 m 257
 82 856 82 856 109.5 954 c 128
 137 1052 137 1052 187 1137 c 128
 237 1222 237 1222 307 1292 c 128
 377 1362 377 1362 462 1412 c 128
 547 1462 547 1462 645 1489.5 c 128
 743 1517 743 1517 849 1517 c 257
 955 1517 955 1517 1053 1489.5 c 128
 1151 1462 1151 1462 1236 1412 c 128
 1321 1362 1321 1362 1391 1292 c 128
 1461 1222 1461 1222 1511 1137 c 128
 1561 1052 1561 1052 1588.5 954 c 128
 1616 856 1616 856 1616 750 c 257
 1616 644 1616 644 1588.5 546 c 128
 1561 448 1561 448 1511 363 c 128
 1461 278 1461 278 1391 208 c 128
 1321 138 1321 138 1236 88 c 128
 1151 38 1151 38 1053 10.5 c 128
 955 -17 955 -17 849 -17 c 257
 743 -17 743 -17 645 10.5 c 128
 547 38 547 38 462 88 c 128
 377 138 377 138 307 208 c 128
 237 278 237 278 187 363 c 128
 137 448 137 448 109.5 546 c 128
 82 644 82 644 82 750 c 257
235 675 m 257
 248 570 248 570 294 477 c 128
 340 384 340 384 411.5 312.5 c 128
 483 241 483 241 576 195 c 128
 669 149 669 149 774 136 c 257
 774 675 l 257
 235 675 l 257
774 1362 m 257
 669 1349 669 1349 576 1303 c 128
 483 1257 483 1257 411.5 1186 c 128
 340 1115 340 1115 294 1022.5 c 128
 248 930 248 930 235 825 c 257
 774 825 l 257
 774 1362 l 257
924 136 m 257
 1029 149 1029 149 1121.5 195 c 128
 1214 241 1214 241 1285 312.5 c 128
 1356 384 1356 384 1402 477 c 128
 1448 570 1448 570 1461 675 c 257
 924 675 l 257
 924 136 l 257
1461 825 m 257
 1448 930 1448 930 1402 1022.5 c 128
 1356 1115 1356 1115 1285 1186 c 128
 1214 1257 1214 1257 1121.5 1303 c 128
 1029 1349 1029 1349 924 1362 c 257
 924 825 l 257
 1461 825 l 257
EndSplineSet
EndChar
StartChar: circlemultiply
Encoding: 188 8855 188
GlifName: circlemultiply
Width: 1700
VWidth: 0
Flags: W
LayerCount: 2
Fore
SplineSet
82 750 m 257
 82 856 82 856 109.5 954 c 128
 137 1052 137 1052 187 1137 c 128
 237 1222 237 1222 307 1292 c 128
 377 1362 377 1362 462 1412 c 128
 547 1462 547 1462 645 1489.5 c 128
 743 1517 743 1517 849 1517 c 257
 955 1517 955 1517 1053 1489.5 c 128
 1151 1462 1151 1462 1236 1412 c 128
 1321 1362 1321 1362 1391 1292 c 128
 1461 1222 1461 1222 1511 1137 c 128
 1561 1052 1561 1052 1588.5 954 c 128
 1616 856 1616 856 1616 750 c 257
 1616 644 1616 644 1588.5 546 c 128
 1561 448 1561 448 1511 363 c 128
 1461 278 1461 278 1391 208 c 128
 1321 138 1321 138 1236 88 c 128
 1151 38 1151 38 1053 10.5 c 128
 955 -17 955 -17 849 -17 c 257
 743 -17 743 -17 645 10.5 c 128
 547 38 547 38 462 88 c 128
 377 138 377 138 307 208 c 128
 237 278 237 278 187 363 c 128
 137 448 137 448 109.5 546 c 128
 82 644 82 644 82 750 c 257
231 750 m 257
 231 641 231 641 265.5 544.5 c 128
 300 448 300 448 362 369 c 257
 743 750 l 257
 362 1130 l 257
 300 1051 300 1051 265.5 954.5 c 128
 231 858 231 858 231 750 c 257
849 132 m 257
 957 132 957 132 1053.5 166.5 c 128
 1150 201 1150 201 1229 263 c 257
 849 644 l 257
 468 263 l 257
 547 201 547 201 643.5 166.5 c 128
 740 132 740 132 849 132 c 257
849 1367 m 257
 740 1367 740 1367 644 1332.5 c 128
 548 1298 548 1298 469 1236 c 257
 849 856 l 257
 1229 1236 l 257
 1150 1298 1150 1298 1053.5 1332.5 c 128
 957 1367 957 1367 849 1367 c 257
1466 750 m 257
 1466 858 1466 858 1431.5 954.5 c 128
 1397 1051 1397 1051 1335 1130 c 257
 955 750 l 257
 1335 370 l 257
 1397 449 1397 449 1431.5 545 c 128
 1466 641 1466 641 1466 750 c 257
EndSplineSet
EndChar
StartChar: perpendicular
Encoding: 414 8869 414
GlifName: perpendicular
Width: 1400
VWidth: 0
Flags: W
LayerCount: 2
Fore
SplineSet
799 1300 m 257
 799 150 l 257
 1299 150 l 257
 1279 0 l 257
 94 0 l 257
 114 150 l 257
 599 150 l 257
 599 1300 l 257
 799 1300 l 257
EndSplineSet
EndChar
StartChar: verticalellipsis
Encoding: 556 8942 556
GlifName: verticalellipsis
Width: 400
VWidth: 0
Flags: W
LayerCount: 2
Fore
SplineSet
95 171 m 257
 98 209 98 209 118 244.5 c 128
 138 280 138 280 168.5 306 c 128
 199 332 199 332 236.5 346 c 128
 274 360 274 360 311 356 c 257
 387 348 387 348 428 298 c 128
 469 248 469 248 464 171 c 257
 462 132 462 132 442 97 c 128
 422 62 422 62 391.5 35.5 c 128
 361 9 361 9 323 -5.5 c 128
 285 -20 285 -20 248 -17 c 257
 209 -14 209 -14 179 1.5 c 128
 149 17 149 17 129.5 42.5 c 128
 110 68 110 68 101 101 c 128
 92 134 92 134 95 171 c 257
95 771 m 257
 98 809 98 809 118 844.5 c 128
 138 880 138 880 168.5 906 c 128
 199 932 199 932 236.5 946 c 128
 274 960 274 960 311 956 c 257
 387 948 387 948 428 898 c 128
 469 848 469 848 464 771 c 257
 462 732 462 732 442 697 c 128
 422 662 422 662 391.5 635.5 c 128
 361 609 361 609 323 594.5 c 128
 285 580 285 580 248 583 c 257
 209 586 209 586 179 601.5 c 128
 149 617 149 617 129.5 642.5 c 128
 110 668 110 668 101 701 c 128
 92 734 92 734 95 771 c 257
95 1371 m 257
 98 1409 98 1409 118 1444.5 c 128
 138 1480 138 1480 168.5 1506 c 128
 199 1532 199 1532 236.5 1546 c 128
 274 1560 274 1560 311 1556 c 257
 387 1548 387 1548 428 1498 c 128
 469 1448 469 1448 464 1371 c 257
 462 1332 462 1332 442 1297 c 128
 422 1262 422 1262 391.5 1235.5 c 128
 361 1209 361 1209 323 1194.5 c 128
 285 1180 285 1180 248 1183 c 257
 209 1186 209 1186 179 1201.5 c 128
 149 1217 149 1217 129.5 1242.5 c 128
 110 1268 110 1268 101 1301 c 128
 92 1334 92 1334 95 1371 c 257
EndSplineSet
EndChar
StartChar: leftceiling
Encoding: 331 8968 331
GlifName: leftceiling
Width: 800
VWidth: 0
Flags: W
LayerCount: 2
Fore
SplineSet
300 0 m 257
 100 0 l 257
 100 1500 l 257
 700 1500 l 257
 700 1350 l 257
 300 1350 l 257
 300 0 l 257
EndSplineSet
EndChar
StartChar: rightceiling
Encoding: 457 8969 457
GlifName: rightceiling
Width: 800
VWidth: 0
Flags: W
LayerCount: 2
Fore
SplineSet
500 1350 m 257
 100 1350 l 257
 100 1500 l 257
 700 1500 l 257
 700 0 l 257
 500 0 l 257
 500 1350 l 257
EndSplineSet
EndChar
StartChar: leftfloor
Encoding: 332 8970 332
GlifName: leftfloor
Width: 800
VWidth: 0
Flags: W
LayerCount: 2
Fore
SplineSet
300 150 m 257
 700 150 l 257
 700 0 l 257
 100 0 l 257
 100 1500 l 257
 300 1500 l 257
 300 150 l 257
EndSplineSet
EndChar
StartChar: rightfloor
Encoding: 458 8971 458
GlifName: rightfloor
Width: 800
VWidth: 0
Flags: W
LayerCount: 2
Fore
SplineSet
500 1500 m 257
 700 1500 l 257
 700 0 l 257
 100 0 l 257
 100 150 l 257
 500 150 l 257
 500 1500 l 257
EndSplineSet
EndChar
StartChar: toprightcorner
Encoding: 529 8989 529
GlifName: toprightcorner
Width: 1000
VWidth: 0
Flags: W
LayerCount: 2
Fore
SplineSet
700 1350 m 257
 150 1350 l 257
 150 1500 l 257
 900 1500 l 257
 900 750 l 257
 700 750 l 257
 700 1350 l 257
EndSplineSet
EndChar
StartChar: bottomleftcorner
Encoding: 164 8990 164
GlifName: bottomleftcorner
Width: 1000
VWidth: 0
Flags: W
LayerCount: 2
Fore
SplineSet
300 150 m 257
 850 150 l 257
 850 0 l 257
 100 0 l 257
 100 750 l 257
 300 750 l 257
 300 150 l 257
EndSplineSet
EndChar
StartChar: bottomrightcorner
Encoding: 165 8991 165
GlifName: bottomrightcorner
Width: 1000
VWidth: 0
Flags: W
LayerCount: 2
Fore
SplineSet
700 750 m 257
 900 750 l 257
 900 0 l 257
 150 0 l 257
 150 150 l 257
 700 150 l 257
 700 750 l 257
EndSplineSet
EndChar
StartChar: whitedownpointingsmalltriangle
Encoding: 571 9663 571
GlifName: whitedownpointingsmalltriangle
Width: 900
VWidth: 0
Flags: W
LayerCount: 2
Fore
SplineSet
449 617 m 257
 680 1016 l 257
 218 1016 l 257
 449 617 l 257
64 1100 m 257
 834 1100 l 257
 449 470 l 257
 64 1100 l 257
EndSplineSet
EndChar
StartChar: day
Encoding: 217 9728 217
GlifName: day
Width: 1800
VWidth: 0
Flags: W
LayerCount: 2
Fore
SplineSet
1428 456 m 257
 1423 428 1423 428 1416 401 c 128
 1409 374 1409 374 1399 347 c 257
 1527 245 l 257
 1509 206 l 257
 1349 244 l 257
 1303 172 1303 172 1238 114 c 257
 1328 -75 l 257
 1297 -96 l 257
 1146 47 l 257
 1122 33 1122 33 1096.5 20.5 c 128
 1071 8 1071 8 1044 -1 c 257
 1066 -247 l 257
 1035 -254 l 257
 940 -27 l 257
 918 -30 918 -30 896 -32 c 128
 874 -34 874 -34 851 -34 c 257
 845 -34 845 -34 839.5 -34 c 128
 834 -34 834 -34 828 -33 c 257
 769 -188 l 257
 726 -182 l 257
 712 -18 l 257
 629 5 629 5 555 47 c 257
 404 -96 l 257
 374 -75 l 257
 463 114 l 257
 442 133 442 133 422 153.5 c 128
 402 174 402 174 385 197 c 257
 159 100 l 257
 142 127 l 257
 329 287 l 257
 316 313 316 313 306 339 c 128
 296 365 296 365 288 393 c 257
 123 400 l 257
 116 442 l 257
 268 507 l 257
 268 518 268 518 267.5 528.5 c 128
 267 539 267 539 267 551 c 257
 267 618 267 618 280 676 c 257
 98 776 l 257
 109 811 l 257
 315 784 l 257
 338 837 338 837 371 884 c 257
 209 1069 l 257
 230 1094 l 257
 440 966 l 257
 460 986 460 986 482 1003.5 c 128
 504 1021 504 1021 527 1037 c 257
 483 1197 l 257
 521 1216 l 257
 629 1092 l 257
 705 1123 705 1123 794 1132 c 257
 832 1337 l 257
 870 1337 l 257
 908 1132 l 257
 937 1129 937 1129 965 1123.5 c 128
 993 1118 993 1118 1020 1110 c 257
 1145 1322 l 257
 1175 1310 l 257
 1119 1070 l 257
 1169 1044 1169 1044 1213 1009 c 257
 1352 1100 l 257
 1382 1070 l 257
 1296 929 l 257
 1324 896 1324 896 1347 860 c 128
 1370 824 1370 824 1387 784 c 257
 1593 811 l 257
 1604 776 l 257
 1422 676 l 257
 1427 649 1427 649 1430.5 621 c 128
 1434 593 1434 593 1435 564 c 257
 1674 509 l 257
 1674 477 l 257
 1428 456 l 257
EndSplineSet
EndChar
StartChar: boxwithaX
Encoding: 166 9746 166
GlifName: boxwithaX_
Width: 1100
VWidth: 0
Flags: W
LayerCount: 2
Fore
SplineSet
1100 0 m 257
 0 0 l 257
 0 1100 l 257
 1100 1100 l 257
 1100 0 l 257
165 165 m 257
 935 165 l 257
 935 935 l 257
 165 935 l 257
 165 165 l 257
701 230 m 257
 570 400 l 257
 562 468 l 257
 405 230 l 257
 226 230 l 257
 448 558 l 257
 227 844 l 257
 422 869 l 257
 515 733 l 257
 528 631 l 257
 668 853 l 257
 859 870 l 257
 655 569 l 257
 896 230 l 257
 701 230 l 257
EndSplineSet
EndChar
StartChar: whitecircledtwo
Encoding: 569 10113 569
GlifName: whitecircledtwo
Width: 1700
VWidth: 0
Flags: W
LayerCount: 2
Fore
SplineSet
180 750 m 257
 180 856 180 856 207.5 954 c 128
 235 1052 235 1052 285 1137 c 128
 335 1222 335 1222 405 1292 c 128
 475 1362 475 1362 560 1412 c 128
 645 1462 645 1462 743 1489.5 c 128
 841 1517 841 1517 947 1517 c 257
 1053 1517 1053 1517 1151 1489.5 c 128
 1249 1462 1249 1462 1334 1412 c 128
 1419 1362 1419 1362 1489 1292 c 128
 1559 1222 1559 1222 1609 1137 c 128
 1659 1052 1659 1052 1686.5 954 c 128
 1714 856 1714 856 1714 750 c 257
 1714 644 1714 644 1686.5 546 c 128
 1659 448 1659 448 1609 363 c 128
 1559 278 1559 278 1489 208 c 128
 1419 138 1419 138 1334 88 c 128
 1249 38 1249 38 1151 10.5 c 128
 1053 -17 1053 -17 947 -17 c 257
 841 -17 841 -17 743 10.5 c 128
 645 38 645 38 560 88 c 128
 475 138 475 138 405 208 c 128
 335 278 335 278 285 363 c 128
 235 448 235 448 207.5 546 c 128
 180 644 180 644 180 750 c 257
298 750 m 257
 298 616 298 616 349 497.5 c 128
 400 379 400 379 488 291 c 128
 576 203 576 203 694.5 152 c 128
 813 101 813 101 947 101 c 257
 1037 101 1037 101 1119.5 124 c 128
 1202 147 1202 147 1274 189.5 c 128
 1346 232 1346 232 1405 291.5 c 128
 1464 351 1464 351 1506.5 423 c 128
 1549 495 1549 495 1572 577.5 c 128
 1595 660 1595 660 1595 750 c 257
 1595 884 1595 884 1544 1002 c 128
 1493 1120 1493 1120 1405 1208 c 128
 1317 1296 1317 1296 1199 1347 c 128
 1081 1398 1081 1398 947 1398 c 257
 858 1398 858 1398 775 1375 c 128
 692 1352 692 1352 620 1309.5 c 128
 548 1267 548 1267 488.5 1208 c 128
 429 1149 429 1149 386.5 1077 c 128
 344 1005 344 1005 321 922 c 128
 298 839 298 839 298 750 c 257
616 300 m 257
 636 414 l 257
 672 458 672 458 720.5 510 c 128
 769 562 769 562 818.5 611 c 128
 868 660 868 660 911.5 701 c 128
 955 742 955 742 981 765 c 257
 1032 810 1032 810 1059.5 838 c 128
 1087 866 1087 866 1101 885.5 c 128
 1115 905 1115 905 1121 921 c 128
 1127 937 1127 937 1133 958 c 257
 1139 976 1139 976 1135.5 996.5 c 128
 1132 1017 1132 1017 1120.5 1035 c 128
 1109 1053 1109 1053 1090.5 1065.5 c 128
 1072 1078 1072 1078 1048 1080 c 257
 1000 1085 1000 1085 954.5 1052 c 128
 909 1019 909 1019 874 958 c 257
 744 1010 l 257
 792 1114 792 1114 877.5 1165 c 128
 963 1216 963 1216 1080 1210 c 257
 1148 1207 1148 1207 1195 1182.5 c 128
 1242 1158 1242 1158 1270.5 1121.5 c 128
 1299 1085 1299 1085 1309.5 1040.5 c 128
 1320 996 1320 996 1314 952 c 257
 1309 909 1309 909 1286 870 c 128
 1263 831 1263 831 1232.5 795.5 c 128
 1202 760 1202 760 1168.5 729.5 c 128
 1135 699 1135 699 1108 673 c 257
 1072 637 1072 637 1033 600 c 128
 994 563 994 563 959 529 c 128
 924 495 924 495 895 466.5 c 128
 866 438 866 438 850 420 c 257
 1236 420 l 257
 1215 300 l 257
 616 300 l 257
EndSplineSet
EndChar
StartChar: whitecircledthree
Encoding: 568 10114 568
GlifName: whitecircledthree
Width: 1700
VWidth: 0
Flags: W
LayerCount: 2
Fore
SplineSet
180 750 m 257
 180 856 180 856 207.5 954 c 128
 235 1052 235 1052 285 1137 c 128
 335 1222 335 1222 405 1292 c 128
 475 1362 475 1362 560 1412 c 128
 645 1462 645 1462 743 1489.5 c 128
 841 1517 841 1517 947 1517 c 257
 1053 1517 1053 1517 1151 1489.5 c 128
 1249 1462 1249 1462 1334 1412 c 128
 1419 1362 1419 1362 1489 1292 c 128
 1559 1222 1559 1222 1609 1137 c 128
 1659 1052 1659 1052 1686.5 954 c 128
 1714 856 1714 856 1714 750 c 257
 1714 644 1714 644 1686.5 546 c 128
 1659 448 1659 448 1609 363 c 128
 1559 278 1559 278 1489 208 c 128
 1419 138 1419 138 1334 88 c 128
 1249 38 1249 38 1151 10.5 c 128
 1053 -17 1053 -17 947 -17 c 257
 841 -17 841 -17 743 10.5 c 128
 645 38 645 38 560 88 c 128
 475 138 475 138 405 208 c 128
 335 278 335 278 285 363 c 128
 235 448 235 448 207.5 546 c 128
 180 644 180 644 180 750 c 257
298 750 m 257
 298 616 298 616 349 497.5 c 128
 400 379 400 379 488 291 c 128
 576 203 576 203 694.5 152 c 128
 813 101 813 101 947 101 c 257
 1037 101 1037 101 1119.5 124 c 128
 1202 147 1202 147 1274 189.5 c 128
 1346 232 1346 232 1405 291.5 c 128
 1464 351 1464 351 1506.5 423 c 128
 1549 495 1549 495 1572 577.5 c 128
 1595 660 1595 660 1595 750 c 257
 1595 884 1595 884 1544 1002 c 128
 1493 1120 1493 1120 1405 1208 c 128
 1317 1296 1317 1296 1199 1347 c 128
 1081 1398 1081 1398 947 1398 c 257
 858 1398 858 1398 775 1375 c 128
 692 1352 692 1352 620 1309.5 c 128
 548 1267 548 1267 488.5 1208 c 128
 429 1149 429 1149 386.5 1077 c 128
 344 1005 344 1005 321 922 c 128
 298 839 298 839 298 750 c 257
806 863 m 257
 836 882 836 882 882.5 910.5 c 128
 929 939 929 939 978.5 973.5 c 128
 1028 1008 1028 1008 1073 1046.5 c 128
 1118 1085 1118 1085 1145 1124 c 257
 981 1080 l 257
 783 1080 l 257
 816 1200 l 257
 1314 1200 l 257
 1295 1096 l 257
 1283 1078 1283 1078 1265.5 1056.5 c 128
 1248 1035 1248 1035 1227.5 1013 c 128
 1207 991 1207 991 1183.5 970 c 128
 1160 949 1160 949 1135 931 c 257
 1033 881 l 257
 1087 883 1087 883 1132.5 867.5 c 128
 1178 852 1178 852 1211 821 c 128
 1244 790 1244 790 1260.5 745 c 128
 1277 700 1277 700 1272 644 c 257
 1266 582 1266 582 1238.5 532.5 c 128
 1211 483 1211 483 1166 445 c 128
 1121 407 1121 407 1061.5 379.5 c 128
 1002 352 1002 352 934 334.5 c 128
 866 317 866 317 790.5 308.5 c 128
 715 300 715 300 639 300 c 257
 660 420 l 257
 738 420 738 420 811.5 435.5 c 128
 885 451 885 451 943 479.5 c 128
 1001 508 1001 508 1036.5 548 c 128
 1072 588 1072 588 1074 638 c 257
 1075 673 1075 673 1062 696.5 c 128
 1049 720 1049 720 1026.5 734.5 c 128
 1004 749 1004 749 974.5 755.5 c 128
 945 762 945 762 912 762 c 257
 903 762 903 762 885.5 761 c 128
 868 760 868 760 849 759 c 128
 830 758 830 758 813 757 c 128
 796 756 796 756 787 756 c 257
 806 863 l 257
EndSplineSet
EndChar
StartChar: whitecircledzero
Encoding: 570 10121 570
GlifName: whitecircledzero
Width: 1700
VWidth: 0
Flags: W
LayerCount: 2
Fore
SplineSet
180 750 m 257
 180 856 180 856 207.5 954 c 128
 235 1052 235 1052 285 1137 c 128
 335 1222 335 1222 405 1292 c 128
 475 1362 475 1362 560 1412 c 128
 645 1462 645 1462 743 1489.5 c 128
 841 1517 841 1517 947 1517 c 257
 1053 1517 1053 1517 1151 1489.5 c 128
 1249 1462 1249 1462 1334 1412 c 128
 1419 1362 1419 1362 1489 1292 c 128
 1559 1222 1559 1222 1609 1137 c 128
 1659 1052 1659 1052 1686.5 954 c 128
 1714 856 1714 856 1714 750 c 257
 1714 644 1714 644 1686.5 546 c 128
 1659 448 1659 448 1609 363 c 128
 1559 278 1559 278 1489 208 c 128
 1419 138 1419 138 1334 88 c 128
 1249 38 1249 38 1151 10.5 c 128
 1053 -17 1053 -17 947 -17 c 257
 841 -17 841 -17 743 10.5 c 128
 645 38 645 38 560 88 c 128
 475 138 475 138 405 208 c 128
 335 278 335 278 285 363 c 128
 235 448 235 448 207.5 546 c 128
 180 644 180 644 180 750 c 257
298 750 m 257
 298 616 298 616 349 497.5 c 128
 400 379 400 379 488 291 c 128
 576 203 576 203 694.5 152 c 128
 813 101 813 101 947 101 c 257
 1037 101 1037 101 1119.5 124 c 128
 1202 147 1202 147 1274 189.5 c 128
 1346 232 1346 232 1405 291.5 c 128
 1464 351 1464 351 1506.5 423 c 128
 1549 495 1549 495 1572 577.5 c 128
 1595 660 1595 660 1595 750 c 257
 1595 884 1595 884 1544 1002 c 128
 1493 1120 1493 1120 1405 1208 c 128
 1317 1296 1317 1296 1199 1347 c 128
 1081 1398 1081 1398 947 1398 c 257
 858 1398 858 1398 775 1375 c 128
 692 1352 692 1352 620 1309.5 c 128
 548 1267 548 1267 488.5 1208 c 128
 429 1149 429 1149 386.5 1077 c 128
 344 1005 344 1005 321 922 c 128
 298 839 298 839 298 750 c 257
888 290 m 257
 806 296 806 296 753.5 339.5 c 128
 701 383 701 383 672.5 448 c 128
 644 513 644 513 637.5 592 c 128
 631 671 631 671 641 750 c 257
 651 832 651 832 683.5 917 c 128
 716 1002 716 1002 768 1070 c 128
 820 1138 820 1138 891 1178 c 128
 962 1218 962 1218 1050 1210 c 257
 1134 1202 1134 1202 1187.5 1158.5 c 128
 1241 1115 1241 1115 1269.5 1050.5 c 128
 1298 986 1298 986 1304 907.5 c 128
 1310 829 1310 829 1298 750 c 257
 1290 696 1290 696 1273 639.5 c 128
 1256 583 1256 583 1231 530.5 c 128
 1206 478 1206 478 1172 432 c 128
 1138 386 1138 386 1095 353 c 128
 1052 320 1052 320 1000.5 303 c 128
 949 286 949 286 888 290 c 257
846 775 m 257
 842 743 842 743 838 706.5 c 128
 834 670 834 670 832.5 633 c 128
 831 596 831 596 833.5 562 c 128
 836 528 836 528 845 501 c 128
 854 474 854 474 871.5 456.5 c 128
 889 439 889 439 918 436 c 257
 956 432 956 432 985.5 457.5 c 128
 1015 483 1015 483 1037 525.5 c 128
 1059 568 1059 568 1072.5 621 c 128
 1086 674 1086 674 1092 725 c 257
 1098 775 1098 775 1103.5 832.5 c 128
 1109 890 1109 890 1104 940 c 128
 1099 990 1099 990 1080.5 1025 c 128
 1062 1060 1062 1060 1020 1064 c 257
 982 1067 982 1067 952.5 1041 c 128
 923 1015 923 1015 901.5 972.5 c 128
 880 930 880 930 866 877 c 128
 852 824 852 824 846 775 c 257
EndSplineSet
EndChar
StartChar: blackcircledeight
Encoding: 149 10129 149
GlifName: blackcircledeight
Width: 1700
VWidth: 0
Flags: W
LayerCount: 2
Fore
SplineSet
180 750 m 257
 180 856 180 856 207.5 954 c 128
 235 1052 235 1052 285 1137 c 128
 335 1222 335 1222 405 1292 c 128
 475 1362 475 1362 560 1412 c 128
 645 1462 645 1462 743 1489.5 c 128
 841 1517 841 1517 947 1517 c 257
 1053 1517 1053 1517 1151 1489.5 c 128
 1249 1462 1249 1462 1334 1412 c 128
 1419 1362 1419 1362 1489 1292 c 128
 1559 1222 1559 1222 1609 1137 c 128
 1659 1052 1659 1052 1686.5 954 c 128
 1714 856 1714 856 1714 750 c 257
 1714 644 1714 644 1686.5 546 c 128
 1659 448 1659 448 1609 363 c 128
 1559 278 1559 278 1489 208 c 128
 1419 138 1419 138 1334 88 c 128
 1249 38 1249 38 1151 10.5 c 128
 1053 -17 1053 -17 947 -17 c 257
 841 -17 841 -17 743 10.5 c 128
 645 38 645 38 560 88 c 128
 475 138 475 138 405 208 c 128
 335 278 335 278 285 363 c 128
 235 448 235 448 207.5 546 c 128
 180 644 180 644 180 750 c 257
1047 1210 m 257
 998 1214 998 1214 945.5 1201 c 128
 893 1188 893 1188 848.5 1158.5 c 128
 804 1129 804 1129 773.5 1083 c 128
 743 1037 743 1037 737 974 c 257
 735 949 735 949 742 926.5 c 128
 749 904 749 904 762.5 884 c 128
 776 864 776 864 795 845.5 c 128
 814 827 814 827 836 809 c 257
 742 773 742 773 684.5 712 c 128
 627 651 627 651 620 565 c 257
 615 496 615 496 633 446 c 128
 651 396 651 396 687 362.5 c 128
 723 329 723 329 774.5 311.5 c 128
 826 294 826 294 888 290 c 257
 952 286 952 286 1016 299.5 c 128
 1080 313 1080 313 1133.5 345.5 c 128
 1187 378 1187 378 1223 430 c 128
 1259 482 1259 482 1266 556 c 257
 1270 599 1270 599 1257.5 640 c 128
 1245 681 1245 681 1223 714.5 c 128
 1201 748 1201 748 1173 772 c 128
 1145 796 1145 796 1120 806 c 257
 1148 815 1148 815 1176.5 832.5 c 128
 1205 850 1205 850 1228 872.5 c 128
 1251 895 1251 895 1266.5 922.5 c 128
 1282 950 1282 950 1285 980 c 257
 1295 1088 1295 1088 1231.5 1144.5 c 128
 1168 1201 1168 1201 1047 1210 c 257
1079 553 m 257
 1077 521 1077 521 1061.5 495 c 128
 1046 469 1046 469 1022 451 c 128
 998 433 998 433 969 424.5 c 128
 940 416 940 416 912 420 c 257
 865 426 865 426 834.5 459.5 c 128
 804 493 804 493 805 553 c 257
 805 586 805 586 817.5 613 c 128
 830 640 830 640 851 661.5 c 128
 872 683 872 683 899 699.5 c 128
 926 716 926 716 956 727 c 257
 981 714 981 714 1003.5 697.5 c 128
 1026 681 1026 681 1043.5 660 c 128
 1061 639 1061 639 1070.5 612.5 c 128
 1080 586 1080 586 1079 553 c 257
924 994 m 257
 925 1012 925 1012 934.5 1029 c 128
 944 1046 944 1046 959.5 1059 c 128
 975 1072 975 1072 994.5 1078 c 128
 1014 1084 1014 1084 1035 1080 c 257
 1064 1074 1064 1074 1083 1054.5 c 128
 1102 1035 1102 1035 1103 991 c 257
 1104 955 1104 955 1078 928 c 128
 1052 901 1052 901 1004 878 c 257
 991 886 991 886 976.5 897 c 128
 962 908 962 908 950 922.5 c 128
 938 937 938 937 930.5 955 c 128
 923 973 923 973 924 994 c 257
EndSplineSet
EndChar
StartChar: takeoff
Encoding: 512 57344 512
GlifName: takeoff
Width: 2600
VWidth: 0
Flags: W
LayerCount: 2
Fore
SplineSet
79 -200 m 257
 99 0 l 257
 1899 0 l 257
 1899 -200 l 257
 79 -200 l 257
2299 -200 m 257
 2299 0 l 257
 2399 0 l 257
 2399 -200 l 257
 2299 -200 l 257
1999 -200 m 257
 1999 0 l 257
 2199 0 l 257
 2199 -200 l 257
 1999 -200 l 257
1494 1138 m 257
 2050 1378 l 257
 2089 1392 2089 1392 2132.5 1399.5 c 128
 2176 1407 2176 1407 2220 1407 c 257
 2263 1407 2263 1407 2312.5 1396.5 c 128
 2362 1386 2362 1386 2404 1362.5 c 128
 2446 1339 2446 1339 2473.5 1302 c 128
 2501 1265 2501 1265 2501 1211 c 257
 2501 1167 2501 1167 2479 1123.5 c 128
 2457 1080 2457 1080 2422.5 1042.5 c 128
 2388 1005 2388 1005 2345 975.5 c 128
 2302 946 2302 946 2260 928 c 257
 1212 499 l 257
 1207 499 1207 499 1200 499.5 c 128
 1193 500 1193 500 1185 500 c 257
 1147 500 1147 500 1086.5 496.5 c 128
 1026 493 1026 493 955.5 488 c 128
 885 483 885 483 811.5 476 c 128
 738 469 738 469 675 462 c 128
 612 455 612 455 566 448 c 128
 520 441 520 441 505 436 c 257
 457 568 l 257
 119 767 l 257
 343 849 l 257
 677 768 l 257
 1012 907 l 257
 561 1266 l 257
 896 1388 l 257
 1494 1138 l 257
EndSplineSet
EndChar
StartChar: descent
Encoding: 221 57347 221
GlifName: descent
Width: 2600
VWidth: 0
Flags: W
LayerCount: 2
Fore
SplineSet
1519 903 m 257
 2112 780 l 257
 2167 765 2167 765 2221.5 735.5 c 128
 2276 706 2276 706 2319 666.5 c 128
 2362 627 2362 627 2388.5 579.5 c 128
 2415 532 2415 532 2415 481 c 257
 2415 428 2415 428 2387.5 390 c 128
 2360 352 2360 352 2317.5 328 c 128
 2275 304 2275 304 2223 293 c 128
 2171 282 2171 282 2123 282 c 257
 2097 282 2097 282 2073 284.5 c 128
 2049 287 2049 287 2026 292 c 257
 922 541 l 257
 901 558 901 558 851.5 589.5 c 128
 802 621 802 621 739 659 c 128
 676 697 676 697 607 736.5 c 128
 538 776 538 776 476.5 810 c 128
 415 844 415 844 368.5 867 c 128
 322 890 322 890 306 895 c 257
 343 1031 l 257
 180 1388 l 257
 411 1326 l 257
 638 1069 l 257
 993 990 l 257
 828 1543 l 257
 1173 1450 l 257
 1519 903 l 257
EndSplineSet
EndChar
StartChar: landing
Encoding: 330 57348 330
GlifName: landing
Width: 2600
VWidth: 0
Flags: W
LayerCount: 2
Fore
SplineSet
2400 -200 m 257
 600 -200 l 257
 600 0 l 257
 2400 0 l 257
 2400 -200 l 257
200 -200 m 257
 80 -200 l 257
 100 0 l 257
 200 0 l 257
 200 -200 l 257
500 -200 m 257
 300 -200 l 257
 300 0 l 257
 500 0 l 257
 500 -200 l 257
1503 1021 m 257
 2096 898 l 257
 2151 883 2151 883 2205.5 853.5 c 128
 2260 824 2260 824 2303 784.5 c 128
 2346 745 2346 745 2372.5 697.5 c 128
 2399 650 2399 650 2399 599 c 257
 2399 546 2399 546 2371.5 508 c 128
 2344 470 2344 470 2301.5 446 c 128
 2259 422 2259 422 2207 411 c 128
 2155 400 2155 400 2107 400 c 257
 2081 400 2081 400 2057 402.5 c 128
 2033 405 2033 405 2010 410 c 257
 906 659 l 257
 885 676 885 676 835.5 707.5 c 128
 786 739 786 739 723 777 c 128
 660 815 660 815 591 854.5 c 128
 522 894 522 894 460.5 928 c 128
 399 962 399 962 352.5 985 c 128
 306 1008 306 1008 290 1013 c 257
 327 1149 l 257
 164 1506 l 257
 395 1444 l 257
 622 1187 l 257
 977 1108 l 257
 812 1661 l 257
 1157 1568 l 257
 1503 1021 l 257
EndSplineSet
EndChar
